<svg xmlns="http://www.w3.org/2000/svg"
viewBox = "0 0 512 512"
width="512"
height="512">
<g fill="None" fill-opacity="0.0" stroke="#000000" stroke-opacity="0.02" stroke-width="0.3"><path d="
M 0.00 512.00 
L 168.00 512.00
C 168.00 511.50 168.00 511.00 168.00 511.00
C 149.79 511.00 130.47 509.40 115.75 506.20 C 101.03 503.00 88.83 499.32 77.25 493.61 C 65.66 487.89 52.37 478.94 40.25 465.75 C 28.13 452.56 22.55 441.84 16.61 428.25 C 10.66 414.65 6.83 403.42 4.20 385.75 C 1.57 368.08 2.57 352.60 1.93 330.93 C 1.28 309.25 0.97 274.52 1.00 251.00 C 1.03 227.48 1.54 193.71 1.93 172.93 C 2.31 152.14 2.60 137.99 5.39 121.25 C 8.19 104.51 11.60 94.48 17.58 81.23 C 23.55 67.98 28.58 58.88 41.25 45.25 C 53.92 31.62 66.31 24.84 78.25 18.81 C 90.20 12.78 101.90 8.16 116.75 5.40 C 131.61 2.63 150.70 1.00 169.00 1.00
C 168.96 1.00 169.00 0.00 169.00 0.00
L 0.00 0.00
L 0.00 512.00 Z"/>
</g>
<g fill="None" fill-opacity="0.0" stroke="#000000" stroke-opacity="0.33" stroke-width="0.3"><path d="
M 169.00 1.00 
C 171.67 1.00 174.33 1.00 177.00 1.00
C 176.96 1.00 177.00 0.00 177.00 0.00
L 169.00 0.00
C 169.00 0.00 168.96 1.00 169.00 1.00 Z"/>
</g>
<g fill="None" fill-opacity="0.0" stroke="#000000" stroke-opacity="0.56" stroke-width="0.3"><path d="
M 177.00 1.00 
C 180.67 1.00 184.33 1.00 188.00 1.00
C 187.96 1.00 188.00 0.00 188.00 0.00
L 177.00 0.00
C 177.00 0.00 176.96 1.00 177.00 1.00 Z"/>
</g>
<g fill="None" fill-opacity="0.0" stroke="#000000" stroke-opacity="0.76" stroke-width="0.3"><path d="
M 188.00 1.00 
C 192.83 1.00 198.99 1.82 203.00 0.00
L 188.00 0.00
C 188.00 0.00 187.96 1.00 188.00 1.00 Z"/>
</g>
<g fill="None" fill-opacity="0.0" stroke="#000000" stroke-opacity="0.99" stroke-width="0.3"><path d="
M 188.00 1.00 
C 184.33 1.00 180.67 1.00 177.00 1.00
C 174.33 1.00 171.67 1.00 169.00 1.00
C 150.70 1.00 131.61 2.63 116.75 5.40 C 101.90 8.16 90.20 12.78 78.25 18.81 C 66.31 24.84 53.92 31.62 41.25 45.25 C 28.58 58.88 23.55 67.98 17.58 81.23 C 11.60 94.48 8.19 104.51 5.39 121.25 C 2.60 137.99 2.31 152.14 1.93 172.93 C 1.54 193.71 1.03 227.48 1.00 251.00 C 0.97 274.52 1.28 309.25 1.93 330.93 C 2.57 352.60 1.57 368.08 4.20 385.75 C 6.83 403.42 10.66 414.65 16.61 428.25 C 22.55 441.84 28.13 452.56 40.25 465.75 C 52.37 478.94 65.66 487.89 77.25 493.61 C 88.83 499.32 101.03 503.00 115.75 506.20 C 130.47 509.40 149.79 511.00 168.00 511.00
C 170.33 511.00 172.67 511.00 175.00 511.00
C 177.67 511.00 180.33 511.00 183.00 511.00
C 187.33 511.00 191.67 511.00 196.00 511.00
C 200.83 511.00 206.99 510.18 211.00 512.00
L 303.00 512.00
C 310.42 510.18 319.82 511.00 328.00 511.00
C 331.67 511.00 335.33 511.00 339.00 511.00
C 341.32 511.00 343.68 511.12 346.00 511.00
C 377.24 509.45 407.73 506.62 430.70 496.65 C 453.67 486.68 477.08 464.35 490.39 441.25 C 503.70 418.14 509.40 394.36 511.00 362.00
C 511.12 359.67 510.96 357.33 511.00 355.00
C 511.04 352.80 510.22 349.39 512.00 348.00
L 512.00 160.00
C 510.50 158.36 510.28 153.57 512.00 152.00
L 512.00 144.00
C 507.48 100.47 496.62 67.45 463.25 37.61 C 429.88 7.77 395.97 2.95 345.00 1.00
C 341.01 0.85 336.99 1.00 333.00 1.00
C 330.33 1.00 327.67 1.00 325.00 1.00
C 320.17 1.00 314.01 1.82 310.00 0.00
L 203.00 0.00
C 198.99 1.82 192.83 1.00 188.00 1.00
M 189.00 46.00 
C 213.33 46.43 245.20 46.09 270.00 46.00 C 294.80 45.91 325.24 47.00 346.69 47.65 C 368.14 48.30 380.68 48.91 397.75 53.59 C 414.82 58.28 422.05 61.89 436.75 76.25 C 451.46 90.61 454.00 96.92 459.39 113.75 C 464.78 130.59 464.13 142.10 465.34 162.68 C 466.54 183.26 466.53 214.51 467.00 238.00 C 467.47 261.49 466.32 297.59 466.00 320.00 C 465.68 342.41 466.13 360.89 463.81 378.25 C 461.48 395.61 458.08 404.01 451.87 416.92 C 445.66 429.83 431.93 444.15 419.25 450.59 C 406.56 457.02 396.80 460.37 379.25 462.40 C 361.70 464.42 341.50 465.97 319.00 466.00 C 296.50 466.03 261.56 465.56 238.00 466.00 C 214.44 466.44 183.31 465.01 162.98 464.02 C 142.64 463.04 131.54 464.00 115.70 458.29 C 99.85 452.57 92.33 451.89 78.75 438.25 C 65.16 424.62 60.49 415.61 55.79 400.77 C 51.09 385.93 49.61 374.66 48.98 354.98 C 48.34 335.29 46.63 306.62 48.00 283.00 C 49.37 259.38 46.57 223.59 47.00 201.00 C 47.43 178.41 48.04 156.91 49.20 138.75 C 50.36 120.59 55.98 111.93 60.19 98.75 C 64.40 85.56 80.21 71.80 92.25 64.20 C 104.29 56.60 114.12 52.81 130.25 50.80 C 146.38 48.79 169.02 45.65 189.00 46.00 Z"/>
</g>
<g fill="None" fill-opacity="0.0" stroke="#000000" stroke-opacity="0.76" stroke-width="0.3"><path d="
M 325.00 1.00 
C 324.96 1.00 325.00 0.00 325.00 0.00
L 310.00 0.00
C 314.01 1.82 320.17 1.00 325.00 1.00 Z"/>
</g>
<g fill="None" fill-opacity="0.0" stroke="#000000" stroke-opacity="0.60" stroke-width="0.3"><path d="
M 325.00 1.00 
C 327.67 1.00 330.33 1.00 333.00 1.00
C 332.96 1.00 333.00 0.00 333.00 0.00
L 325.00 0.00
C 325.00 0.00 324.96 1.00 325.00 1.00 Z"/>
</g>
<g fill="None" fill-opacity="0.0" stroke="#000000" stroke-opacity="0.34" stroke-width="0.3"><path d="
M 333.00 1.00 
C 336.99 1.00 341.01 0.85 345.00 1.00
C 345.02 1.00 345.00 0.00 345.00 0.00
L 333.00 0.00
C 333.00 0.00 332.96 1.00 333.00 1.00 Z"/>
</g>
<g fill="None" fill-opacity="0.0" stroke="#000000" stroke-opacity="0.01" stroke-width="0.3"><path d="
M 345.00 1.00 
C 395.97 2.95 429.88 7.77 463.25 37.61 C 496.62 67.45 507.48 100.47 512.00 144.00
L 512.00 0.00
L 345.00 0.00
C 345.00 0.00 345.02 1.00 345.00 1.00 Z"/>
</g>
<g fill="None" fill-opacity="0.0" stroke="#000000" stroke-opacity="0.00" stroke-width="0.3"><path d="
M 189.00 46.00 
C 169.02 45.65 146.38 48.79 130.25 50.80 C 114.12 52.81 104.29 56.60 92.25 64.20 C 80.21 71.80 64.40 85.56 60.19 98.75 C 55.98 111.93 50.36 120.59 49.20 138.75 C 48.04 156.91 47.43 178.41 47.00 201.00 C 46.57 223.59 49.37 259.38 48.00 283.00 C 46.63 306.62 48.34 335.29 48.98 354.98 C 49.61 374.66 51.09 385.93 55.79 400.77 C 60.49 415.61 65.16 424.62 78.75 438.25 C 92.33 451.89 99.85 452.57 115.70 458.29 C 131.54 464.00 142.64 463.04 162.98 464.02 C 183.31 465.01 214.44 466.44 238.00 466.00 C 261.56 465.56 296.50 466.03 319.00 466.00 C 341.50 465.97 361.70 464.42 379.25 462.40 C 396.80 460.37 406.56 457.02 419.25 450.59 C 431.93 444.15 445.66 429.83 451.87 416.92 C 458.08 404.01 461.48 395.61 463.81 378.25 C 466.13 360.89 465.68 342.41 466.00 320.00 C 466.32 297.59 467.47 261.49 467.00 238.00 C 466.53 214.51 466.54 183.26 465.34 162.68 C 464.13 142.10 464.78 130.59 459.39 113.75 C 454.00 96.92 451.46 90.61 436.75 76.25 C 422.05 61.89 414.82 58.28 397.75 53.59 C 380.68 48.91 368.14 48.30 346.69 47.65 C 325.24 47.00 294.80 45.91 270.00 46.00 C 245.20 46.09 213.33 46.43 189.00 46.00
M 392.00 88.00 
C 414.25 86.19 431.43 111.65 421.81 132.25 C 412.19 152.86 380.24 155.70 367.91 136.08 C 355.59 116.47 369.10 89.86 392.00 88.00
M 249.00 124.00 
C 275.52 120.46 300.00 131.91 317.30 139.71 C 334.61 147.52 358.59 167.51 368.71 186.30 C 378.84 205.10 386.56 220.22 388.78 246.22 C 391.00 272.23 382.76 297.94 374.61 315.75 C 366.45 333.56 344.94 356.50 326.25 367.39 C 307.56 378.29 292.13 385.22 265.30 387.35 C 238.47 389.48 213.28 380.92 196.23 372.42 C 179.18 363.93 155.47 343.91 144.87 325.08 C 134.27 306.25 128.04 290.70 125.93 263.92 C 123.82 237.15 131.94 212.33 140.58 195.23 C 149.21 178.13 169.41 154.64 187.92 143.91 C 206.42 133.18 223.75 127.37 249.00 124.00 Z"/>
</g>
<g fill="None" fill-opacity="0.0" stroke="#000000" stroke-opacity="0.98" stroke-width="0.3"><path d="
M 392.00 88.00 
C 369.10 89.86 355.59 116.47 367.91 136.08 C 380.24 155.70 412.19 152.86 421.81 132.25 C 431.43 111.65 414.25 86.19 392.00 88.00 Z"/>
</g>
<g fill="None" fill-opacity="0.0" stroke="#000000" stroke-opacity="0.99" stroke-width="0.3"><path d="
M 249.00 124.00 
C 223.75 127.37 206.42 133.18 187.92 143.91 C 169.41 154.64 149.21 178.13 140.58 195.23 C 131.94 212.33 123.82 237.15 125.93 263.92 C 128.04 290.70 134.27 306.25 144.87 325.08 C 155.47 343.91 179.18 363.93 196.23 372.42 C 213.28 380.92 238.47 389.48 265.30 387.35 C 292.13 385.22 307.56 378.29 326.25 367.39 C 344.94 356.50 366.45 333.56 374.61 315.75 C 382.76 297.94 391.00 272.23 388.78 246.22 C 386.56 220.22 378.84 205.10 368.71 186.30 C 358.59 167.51 334.61 147.52 317.30 139.71 C 300.00 131.91 275.52 120.46 249.00 124.00
M 253.00 170.00 
C 279.45 168.70 298.35 178.82 315.25 194.75 C 332.15 210.69 343.63 231.14 343.00 256.00 C 342.37 280.87 333.73 300.65 317.25 317.25 C 300.77 333.84 281.19 341.37 257.00 341.00 C 232.81 340.63 213.97 335.24 197.25 317.75 C 180.53 300.26 173.07 285.78 171.80 261.75 C 170.54 237.73 177.29 214.85 193.32 198.32 C 209.35 181.79 230.50 171.11 253.00 170.00 Z"/>
</g>
<g fill="None" fill-opacity="0.0" stroke="#000000" stroke-opacity="0.71" stroke-width="0.3"><path d="
M 512.00 160.00 
L 512.00 152.00
C 510.28 153.57 510.50 158.36 512.00 160.00 Z"/>
</g>
<g fill="None" fill-opacity="0.0" stroke="#000000" stroke-opacity="0.01" stroke-width="0.3"><path d="
M 253.00 170.00 
C 230.50 171.11 209.35 181.79 193.32 198.32 C 177.29 214.85 170.54 237.73 171.80 261.75 C 173.07 285.78 180.53 300.26 197.25 317.75 C 213.97 335.24 232.81 340.63 257.00 341.00 C 281.19 341.37 300.77 333.84 317.25 317.25 C 333.73 300.65 342.37 280.87 343.00 256.00 C 343.63 231.14 332.15 210.69 315.25 194.75 C 298.35 178.82 279.45 168.70 253.00 170.00 Z"/>
</g>
<g fill="None" fill-opacity="0.0" stroke="#000000" stroke-opacity="0.70" stroke-width="0.3"><path d="
M 511.00 355.00 
C 511.01 354.93 512.00 355.00 512.00 355.00
L 512.00 348.00
C 510.22 349.39 511.04 352.80 511.00 355.00 Z"/>
</g>
<g fill="None" fill-opacity="0.0" stroke="#000000" stroke-opacity="0.42" stroke-width="0.3"><path d="
M 511.00 362.00 
C 511.00 361.99 512.00 362.00 512.00 362.00
L 512.00 355.00
C 512.00 355.00 511.01 354.93 511.00 355.00
C 510.96 357.33 511.12 359.67 511.00 362.00 Z"/>
</g>
<g fill="None" fill-opacity="0.0" stroke="#000000" stroke-opacity="0.01" stroke-width="0.3"><path d="
M 346.00 511.00 
C 345.99 511.00 346.00 512.00 346.00 512.00
L 512.00 512.00
L 512.00 362.00
C 512.00 362.00 511.00 361.99 511.00 362.00
C 509.40 394.36 503.70 418.14 490.39 441.25 C 477.08 464.35 453.67 486.68 430.70 496.65 C 407.73 506.62 377.24 509.45 346.00 511.00 Z"/>
</g>
<g fill="None" fill-opacity="0.0" stroke="#000000" stroke-opacity="0.28" stroke-width="0.3"><path d="
M 168.00 512.00 
L 175.00 512.00
C 175.00 511.50 175.00 511.00 175.00 511.00
C 172.67 511.00 170.33 511.00 168.00 511.00
C 168.00 511.00 168.00 511.50 168.00 512.00 Z"/>
</g>
<g fill="None" fill-opacity="0.0" stroke="#000000" stroke-opacity="0.47" stroke-width="0.3"><path d="
M 175.00 512.00 
L 183.00 512.00
C 183.00 511.50 183.00 511.00 183.00 511.00
C 180.33 511.00 177.67 511.00 175.00 511.00
C 175.00 511.00 175.00 511.50 175.00 512.00 Z"/>
</g>
<g fill="None" fill-opacity="0.0" stroke="#000000" stroke-opacity="0.69" stroke-width="0.3"><path d="
M 183.00 512.00 
L 196.00 512.00
C 196.00 511.50 196.00 511.00 196.00 511.00
C 191.67 511.00 187.33 511.00 183.00 511.00
C 183.00 511.00 183.00 511.50 183.00 512.00 Z"/>
</g>
<g fill="None" fill-opacity="0.0" stroke="#000000" stroke-opacity="0.84" stroke-width="0.3"><path d="
M 196.00 512.00 
L 211.00 512.00
C 206.99 510.18 200.83 511.00 196.00 511.00
C 196.00 511.00 196.00 511.50 196.00 512.00 Z"/>
</g>
<g fill="None" fill-opacity="0.0" stroke="#000000" stroke-opacity="0.78" stroke-width="0.3"><path d="
M 303.00 512.00 
L 328.00 512.00
C 328.00 511.50 328.00 511.00 328.00 511.00
C 319.82 511.00 310.42 510.18 303.00 512.00 Z"/>
</g>
<g fill="None" fill-opacity="0.0" stroke="#000000" stroke-opacity="0.50" stroke-width="0.3"><path d="
M 328.00 512.00 
L 339.00 512.00
C 339.00 511.50 339.00 511.00 339.00 511.00
C 335.33 511.00 331.67 511.00 328.00 511.00
C 328.00 511.00 328.00 511.50 328.00 512.00 Z"/>
</g>
<g fill="None" fill-opacity="0.0" stroke="#000000" stroke-opacity="0.27" stroke-width="0.3"><path d="
M 339.00 512.00 
L 346.00 512.00
C 346.00 512.00 345.99 511.00 346.00 511.00
C 343.68 511.12 341.32 511.00 339.00 511.00
C 339.00 511.00 339.00 511.50 339.00 512.00 Z"/>
</g>
<g fill="#000000" fill-opacity="0.02" stroke="None">
<path d="
M 0.00 512.00 
L 168.00 512.00
C 168.00 511.50 168.00 511.00 168.00 511.00
C 149.79 511.00 130.47 509.40 115.75 506.20 C 101.03 503.00 88.83 499.32 77.25 493.61 C 65.66 487.89 52.37 478.94 40.25 465.75 C 28.13 452.56 22.55 441.84 16.61 428.25 C 10.66 414.65 6.83 403.42 4.20 385.75 C 1.57 368.08 2.57 352.60 1.93 330.93 C 1.28 309.25 0.97 274.52 1.00 251.00 C 1.03 227.48 1.54 193.71 1.93 172.93 C 2.31 152.14 2.60 137.99 5.39 121.25 C 8.19 104.51 11.60 94.48 17.58 81.23 C 23.55 67.98 28.58 58.88 41.25 45.25 C 53.92 31.62 66.31 24.84 78.25 18.81 C 90.20 12.78 101.90 8.16 116.75 5.40 C 131.61 2.63 150.70 1.00 169.00 1.00
C 168.96 1.00 169.00 0.00 169.00 0.00
L 0.00 0.00
L 0.00 512.00 Z"/>
</g>
<g fill="#000000" fill-opacity="0.33" stroke="None">
<path d="
M 169.00 1.00 
C 171.67 1.00 174.33 1.00 177.00 1.00
C 176.96 1.00 177.00 0.00 177.00 0.00
L 169.00 0.00
C 169.00 0.00 168.96 1.00 169.00 1.00 Z"/>
</g>
<g fill="#000000" fill-opacity="0.56" stroke="None">
<path d="
M 177.00 1.00 
C 180.67 1.00 184.33 1.00 188.00 1.00
C 187.96 1.00 188.00 0.00 188.00 0.00
L 177.00 0.00
C 177.00 0.00 176.96 1.00 177.00 1.00 Z"/>
</g>
<g fill="#000000" fill-opacity="0.76" stroke="None">
<path d="
M 188.00 1.00 
C 192.83 1.00 198.99 1.82 203.00 0.00
L 188.00 0.00
C 188.00 0.00 187.96 1.00 188.00 1.00 Z"/>
</g>
<g fill="#000000" fill-opacity="0.99" stroke="None">
<path d="
M 188.00 1.00 
C 184.33 1.00 180.67 1.00 177.00 1.00
C 174.33 1.00 171.67 1.00 169.00 1.00
C 150.70 1.00 131.61 2.63 116.75 5.40 C 101.90 8.16 90.20 12.78 78.25 18.81 C 66.31 24.84 53.92 31.62 41.25 45.25 C 28.58 58.88 23.55 67.98 17.58 81.23 C 11.60 94.48 8.19 104.51 5.39 121.25 C 2.60 137.99 2.31 152.14 1.93 172.93 C 1.54 193.71 1.03 227.48 1.00 251.00 C 0.97 274.52 1.28 309.25 1.93 330.93 C 2.57 352.60 1.57 368.08 4.20 385.75 C 6.83 403.42 10.66 414.65 16.61 428.25 C 22.55 441.84 28.13 452.56 40.25 465.75 C 52.37 478.94 65.66 487.89 77.25 493.61 C 88.83 499.32 101.03 503.00 115.75 506.20 C 130.47 509.40 149.79 511.00 168.00 511.00
C 170.33 511.00 172.67 511.00 175.00 511.00
C 177.67 511.00 180.33 511.00 183.00 511.00
C 187.33 511.00 191.67 511.00 196.00 511.00
C 200.83 511.00 206.99 510.18 211.00 512.00
L 303.00 512.00
C 310.42 510.18 319.82 511.00 328.00 511.00
C 331.67 511.00 335.33 511.00 339.00 511.00
C 341.32 511.00 343.68 511.12 346.00 511.00
C 377.24 509.45 407.73 506.62 430.70 496.65 C 453.67 486.68 477.08 464.35 490.39 441.25 C 503.70 418.14 509.40 394.36 511.00 362.00
C 511.12 359.67 510.96 357.33 511.00 355.00
C 511.04 352.80 510.22 349.39 512.00 348.00
L 512.00 160.00
C 510.50 158.36 510.28 153.57 512.00 152.00
L 512.00 144.00
C 507.48 100.47 496.62 67.45 463.25 37.61 C 429.88 7.77 395.97 2.95 345.00 1.00
C 341.01 0.85 336.99 1.00 333.00 1.00
C 330.33 1.00 327.67 1.00 325.00 1.00
C 320.17 1.00 314.01 1.82 310.00 0.00
L 203.00 0.00
C 198.99 1.82 192.83 1.00 188.00 1.00
M 189.00 46.00 
C 213.33 46.43 245.20 46.09 270.00 46.00 C 294.80 45.91 325.24 47.00 346.69 47.65 C 368.14 48.30 380.68 48.91 397.75 53.59 C 414.82 58.28 422.05 61.89 436.75 76.25 C 451.46 90.61 454.00 96.92 459.39 113.75 C 464.78 130.59 464.13 142.10 465.34 162.68 C 466.54 183.26 466.53 214.51 467.00 238.00 C 467.47 261.49 466.32 297.59 466.00 320.00 C 465.68 342.41 466.13 360.89 463.81 378.25 C 461.48 395.61 458.08 404.01 451.87 416.92 C 445.66 429.83 431.93 444.15 419.25 450.59 C 406.56 457.02 396.80 460.37 379.25 462.40 C 361.70 464.42 341.50 465.97 319.00 466.00 C 296.50 466.03 261.56 465.56 238.00 466.00 C 214.44 466.44 183.31 465.01 162.98 464.02 C 142.64 463.04 131.54 464.00 115.70 458.29 C 99.85 452.57 92.33 451.89 78.75 438.25 C 65.16 424.62 60.49 415.61 55.79 400.77 C 51.09 385.93 49.61 374.66 48.98 354.98 C 48.34 335.29 46.63 306.62 48.00 283.00 C 49.37 259.38 46.57 223.59 47.00 201.00 C 47.43 178.41 48.04 156.91 49.20 138.75 C 50.36 120.59 55.98 111.93 60.19 98.75 C 64.40 85.56 80.21 71.80 92.25 64.20 C 104.29 56.60 114.12 52.81 130.25 50.80 C 146.38 48.79 169.02 45.65 189.00 46.00 Z"/>
</g>
<g fill="#000000" fill-opacity="0.76" stroke="None">
<path d="
M 325.00 1.00 
C 324.96 1.00 325.00 0.00 325.00 0.00
L 310.00 0.00
C 314.01 1.82 320.17 1.00 325.00 1.00 Z"/>
</g>
<g fill="#000000" fill-opacity="0.60" stroke="None">
<path d="
M 325.00 1.00 
C 327.67 1.00 330.33 1.00 333.00 1.00
C 332.96 1.00 333.00 0.00 333.00 0.00
L 325.00 0.00
C 325.00 0.00 324.96 1.00 325.00 1.00 Z"/>
</g>
<g fill="#000000" fill-opacity="0.34" stroke="None">
<path d="
M 333.00 1.00 
C 336.99 1.00 341.01 0.85 345.00 1.00
C 345.02 1.00 345.00 0.00 345.00 0.00
L 333.00 0.00
C 333.00 0.00 332.96 1.00 333.00 1.00 Z"/>
</g>
<g fill="#000000" fill-opacity="0.01" stroke="None">
<path d="
M 345.00 1.00 
C 395.97 2.95 429.88 7.77 463.25 37.61 C 496.62 67.45 507.48 100.47 512.00 144.00
L 512.00 0.00
L 345.00 0.00
C 345.00 0.00 345.02 1.00 345.00 1.00 Z"/>
</g>
<g fill="#000000" fill-opacity="0.00" stroke="None">
<path d="
M 189.00 46.00 
C 169.02 45.65 146.38 48.79 130.25 50.80 C 114.12 52.81 104.29 56.60 92.25 64.20 C 80.21 71.80 64.40 85.56 60.19 98.75 C 55.98 111.93 50.36 120.59 49.20 138.75 C 48.04 156.91 47.43 178.41 47.00 201.00 C 46.57 223.59 49.37 259.38 48.00 283.00 C 46.63 306.62 48.34 335.29 48.98 354.98 C 49.61 374.66 51.09 385.93 55.79 400.77 C 60.49 415.61 65.16 424.62 78.75 438.25 C 92.33 451.89 99.85 452.57 115.70 458.29 C 131.54 464.00 142.64 463.04 162.98 464.02 C 183.31 465.01 214.44 466.44 238.00 466.00 C 261.56 465.56 296.50 466.03 319.00 466.00 C 341.50 465.97 361.70 464.42 379.25 462.40 C 396.80 460.37 406.56 457.02 419.25 450.59 C 431.93 444.15 445.66 429.83 451.87 416.92 C 458.08 404.01 461.48 395.61 463.81 378.25 C 466.13 360.89 465.68 342.41 466.00 320.00 C 466.32 297.59 467.47 261.49 467.00 238.00 C 466.53 214.51 466.54 183.26 465.34 162.68 C 464.13 142.10 464.78 130.59 459.39 113.75 C 454.00 96.92 451.46 90.61 436.75 76.25 C 422.05 61.89 414.82 58.28 397.75 53.59 C 380.68 48.91 368.14 48.30 346.69 47.65 C 325.24 47.00 294.80 45.91 270.00 46.00 C 245.20 46.09 213.33 46.43 189.00 46.00
M 392.00 88.00 
C 414.25 86.19 431.43 111.65 421.81 132.25 C 412.19 152.86 380.24 155.70 367.91 136.08 C 355.59 116.47 369.10 89.86 392.00 88.00
M 249.00 124.00 
C 275.52 120.46 300.00 131.91 317.30 139.71 C 334.61 147.52 358.59 167.51 368.71 186.30 C 378.84 205.10 386.56 220.22 388.78 246.22 C 391.00 272.23 382.76 297.94 374.61 315.75 C 366.45 333.56 344.94 356.50 326.25 367.39 C 307.56 378.29 292.13 385.22 265.30 387.35 C 238.47 389.48 213.28 380.92 196.23 372.42 C 179.18 363.93 155.47 343.91 144.87 325.08 C 134.27 306.25 128.04 290.70 125.93 263.92 C 123.82 237.15 131.94 212.33 140.58 195.23 C 149.21 178.13 169.41 154.64 187.92 143.91 C 206.42 133.18 223.75 127.37 249.00 124.00 Z"/>
</g>
<g fill="#000000" fill-opacity="0.98" stroke="None">
<path d="
M 392.00 88.00 
C 369.10 89.86 355.59 116.47 367.91 136.08 C 380.24 155.70 412.19 152.86 421.81 132.25 C 431.43 111.65 414.25 86.19 392.00 88.00 Z"/>
</g>
<g fill="#000000" fill-opacity="0.99" stroke="None">
<path d="
M 249.00 124.00 
C 223.75 127.37 206.42 133.18 187.92 143.91 C 169.41 154.64 149.21 178.13 140.58 195.23 C 131.94 212.33 123.82 237.15 125.93 263.92 C 128.04 290.70 134.27 306.25 144.87 325.08 C 155.47 343.91 179.18 363.93 196.23 372.42 C 213.28 380.92 238.47 389.48 265.30 387.35 C 292.13 385.22 307.56 378.29 326.25 367.39 C 344.94 356.50 366.45 333.56 374.61 315.75 C 382.76 297.94 391.00 272.23 388.78 246.22 C 386.56 220.22 378.84 205.10 368.71 186.30 C 358.59 167.51 334.61 147.52 317.30 139.71 C 300.00 131.91 275.52 120.46 249.00 124.00
M 253.00 170.00 
C 279.45 168.70 298.35 178.82 315.25 194.75 C 332.15 210.69 343.63 231.14 343.00 256.00 C 342.37 280.87 333.73 300.65 317.25 317.25 C 300.77 333.84 281.19 341.37 257.00 341.00 C 232.81 340.63 213.97 335.24 197.25 317.75 C 180.53 300.26 173.07 285.78 171.80 261.75 C 170.54 237.73 177.29 214.85 193.32 198.32 C 209.35 181.79 230.50 171.11 253.00 170.00 Z"/>
</g>
<g fill="#000000" fill-opacity="0.71" stroke="None">
<path d="
M 512.00 160.00 
L 512.00 152.00
C 510.28 153.57 510.50 158.36 512.00 160.00 Z"/>
</g>
<g fill="#000000" fill-opacity="0.01" stroke="None">
<path d="
M 253.00 170.00 
C 230.50 171.11 209.35 181.79 193.32 198.32 C 177.29 214.85 170.54 237.73 171.80 261.75 C 173.07 285.78 180.53 300.26 197.25 317.75 C 213.97 335.24 232.81 340.63 257.00 341.00 C 281.19 341.37 300.77 333.84 317.25 317.25 C 333.73 300.65 342.37 280.87 343.00 256.00 C 343.63 231.14 332.15 210.69 315.25 194.75 C 298.35 178.82 279.45 168.70 253.00 170.00 Z"/>
</g>
<g fill="#000000" fill-opacity="0.70" stroke="None">
<path d="
M 511.00 355.00 
C 511.01 354.93 512.00 355.00 512.00 355.00
L 512.00 348.00
C 510.22 349.39 511.04 352.80 511.00 355.00 Z"/>
</g>
<g fill="#000000" fill-opacity="0.42" stroke="None">
<path d="
M 511.00 362.00 
C 511.00 361.99 512.00 362.00 512.00 362.00
L 512.00 355.00
C 512.00 355.00 511.01 354.93 511.00 355.00
C 510.96 357.33 511.12 359.67 511.00 362.00 Z"/>
</g>
<g fill="#000000" fill-opacity="0.01" stroke="None">
<path d="
M 346.00 511.00 
C 345.99 511.00 346.00 512.00 346.00 512.00
L 512.00 512.00
L 512.00 362.00
C 512.00 362.00 511.00 361.99 511.00 362.00
C 509.40 394.36 503.70 418.14 490.39 441.25 C 477.08 464.35 453.67 486.68 430.70 496.65 C 407.73 506.62 377.24 509.45 346.00 511.00 Z"/>
</g>
<g fill="#000000" fill-opacity="0.28" stroke="None">
<path d="
M 168.00 512.00 
L 175.00 512.00
C 175.00 511.50 175.00 511.00 175.00 511.00
C 172.67 511.00 170.33 511.00 168.00 511.00
C 168.00 511.00 168.00 511.50 168.00 512.00 Z"/>
</g>
<g fill="#000000" fill-opacity="0.47" stroke="None">
<path d="
M 175.00 512.00 
L 183.00 512.00
C 183.00 511.50 183.00 511.00 183.00 511.00
C 180.33 511.00 177.67 511.00 175.00 511.00
C 175.00 511.00 175.00 511.50 175.00 512.00 Z"/>
</g>
<g fill="#000000" fill-opacity="0.69" stroke="None">
<path d="
M 183.00 512.00 
L 196.00 512.00
C 196.00 511.50 196.00 511.00 196.00 511.00
C 191.67 511.00 187.33 511.00 183.00 511.00
C 183.00 511.00 183.00 511.50 183.00 512.00 Z"/>
</g>
<g fill="#000000" fill-opacity="0.84" stroke="None">
<path d="
M 196.00 512.00 
L 211.00 512.00
C 206.99 510.18 200.83 511.00 196.00 511.00
C 196.00 511.00 196.00 511.50 196.00 512.00 Z"/>
</g>
<g fill="#000000" fill-opacity="0.78" stroke="None">
<path d="
M 303.00 512.00 
L 328.00 512.00
C 328.00 511.50 328.00 511.00 328.00 511.00
C 319.82 511.00 310.42 510.18 303.00 512.00 Z"/>
</g>
<g fill="#000000" fill-opacity="0.50" stroke="None">
<path d="
M 328.00 512.00 
L 339.00 512.00
C 339.00 511.50 339.00 511.00 339.00 511.00
C 335.33 511.00 331.67 511.00 328.00 511.00
C 328.00 511.00 328.00 511.50 328.00 512.00 Z"/>
</g>
<g fill="#000000" fill-opacity="0.27" stroke="None">
<path d="
M 339.00 512.00 
L 346.00 512.00
C 346.00 512.00 345.99 511.00 346.00 511.00
C 343.68 511.12 341.32 511.00 339.00 511.00
C 339.00 511.00 339.00 511.50 339.00 512.00 Z"/>
</g>
</svg>