<svg xmlns="http://www.w3.org/2000/svg"
viewBox = "0 0 512 512"
width="512"
height="512">
<g fill="None" fill-opacity="0.0" stroke="#000000" stroke-opacity="0.00" stroke-width="0.3"><path d="
M 0.00 200.00 
C 9.18 145.56 -7.48 77.99 35.25 35.25 C 77.98 -7.49 146.41 9.07 201.00 0.00
L 0.00 0.00
L 0.00 200.00 Z"/>
</g>
<g fill="None" fill-opacity="0.0" stroke="#0B65C2" stroke-opacity="1.00" stroke-width="0.3"><path d="
M 0.00 200.00 
L 0.00 278.00
C 1.65 286.59 1.68 298.48 0.00 307.00
L 0.00 312.00
C 9.20 366.47 -7.53 434.09 35.25 476.75 C 78.03 519.41 146.46 502.95 201.00 512.00
L 273.00 512.00
C 281.59 510.35 293.48 510.32 302.00 512.00
L 311.00 512.00
C 365.63 502.89 433.90 519.55 476.75 476.75 C 519.61 433.95 502.84 365.65 512.00 311.00
L 512.00 201.00
C 511.09 171.59 507.10 136.86 505.07 107.93 C 503.04 78.99 498.02 56.56 477.25 35.75 C 456.47 14.94 435.23 9.25 406.00 7.00 C 376.77 4.75 341.53 1.00 311.00 1.00
C 298.83 1.00 285.34 1.83 274.00 0.00
L 201.00 0.00
C 146.41 9.07 77.98 -7.49 35.25 35.25 C -7.48 77.99 9.18 145.56 0.00 200.00
M 148.00 96.00 
C 179.85 100.55 195.15 142.21 174.75 166.75 C 154.34 191.28 114.31 187.41 101.03 156.97 C 87.74 126.54 113.50 91.07 148.00 96.00
M 346.00 408.00 
C 340.67 391.14 346.83 370.20 345.00 352.00 C 343.17 333.80 346.00 313.42 345.00 295.00
C 343.82 273.32 329.84 254.46 307.00 257.00 C 284.16 259.54 274.39 278.56 273.00 299.00
C 271.79 316.78 274.83 336.42 273.00 354.00 C 271.17 371.58 277.12 391.79 272.00 408.00
C 268.09 420.38 248.19 416.04 238.00 416.00 C 227.81 415.96 206.70 420.66 205.01 406.99 C 203.32 393.32 205.70 377.81 205.00 364.00 C 204.30 350.19 205.13 335.70 205.00 322.00 C 204.87 308.30 204.68 292.30 205.00 279.00 C 205.32 265.70 203.98 249.27 205.00 237.00 C 206.02 224.73 199.51 206.27 213.00 202.00
C 220.39 199.66 230.77 201.01 239.00 201.00 C 247.23 200.99 257.68 199.69 265.00 202.00
C 276.45 205.62 271.39 218.32 274.00 227.00
C 280.92 218.13 287.28 210.02 298.23 205.23 C 309.18 200.44 325.37 197.50 338.00 198.00 C 350.63 198.50 364.39 201.01 375.23 206.77 C 386.07 212.53 393.01 218.54 399.77 229.23 C 406.53 239.92 409.03 250.05 411.78 263.22 C 414.53 276.39 415.00 292.14 415.00 307.00 C 415.00 321.86 414.34 337.34 415.00 353.00 C 415.66 368.66 413.30 383.50 415.00 400.00 C 416.70 416.50 398.41 418.54 385.00 416.00 C 371.59 413.46 352.21 422.78 346.00 408.00
M 166.00 202.00 
C 170.49 203.42 172.58 205.51 174.00 210.00
C 178.62 224.62 173.81 243.09 175.00 259.00 C 176.19 274.91 175.00 292.90 175.00 309.00 C 175.00 325.10 176.18 343.09 175.00 359.00 C 173.82 374.91 178.60 393.44 174.00 408.00
C 170.08 420.39 150.38 415.73 140.00 416.00 C 129.62 416.27 108.20 420.14 107.01 405.99 C 105.82 391.84 107.46 378.05 107.00 364.00 C 106.54 349.95 107.09 334.87 107.00 321.00 C 106.91 307.13 106.76 292.46 107.00 279.00 C 107.24 265.54 106.29 248.63 107.00 236.00 C 107.71 223.37 102.09 206.22 116.00 202.00
C 123.16 199.83 133.03 200.98 141.00 201.00 C 148.97 201.02 158.93 199.76 166.00 202.00 Z"/>
</g>
<g fill="None" fill-opacity="0.0" stroke="#0A65C3" stroke-opacity="0.53" stroke-width="0.3"><path d="
M 311.00 1.00 
C 310.96 1.00 311.00 0.00 311.00 0.00
L 274.00 0.00
C 285.34 1.83 298.83 1.00 311.00 1.00 Z"/>
</g>
<g fill="None" fill-opacity="0.0" stroke="#000000" stroke-opacity="0.00" stroke-width="0.3"><path d="
M 311.00 1.00 
C 341.53 1.00 376.77 4.75 406.00 7.00 C 435.23 9.25 456.47 14.94 477.25 35.75 C 498.02 56.56 503.04 78.99 505.07 107.93 C 507.10 136.86 511.09 171.59 512.00 201.00
L 512.00 0.00
L 311.00 0.00
C 311.00 0.00 310.96 1.00 311.00 1.00 Z"/>
</g>
<g fill="None" fill-opacity="0.0" stroke="#FDFDFE" stroke-opacity="1.00" stroke-width="0.3"><path d="
M 148.00 96.00 
C 113.50 91.07 87.74 126.54 101.03 156.97 C 114.31 187.41 154.34 191.28 174.75 166.75 C 195.15 142.21 179.85 100.55 148.00 96.00 Z"/>
</g>
<g fill="None" fill-opacity="0.0" stroke="#FEFEFE" stroke-opacity="1.00" stroke-width="0.3"><path d="
M 265.00 202.00 
C 256.93 200.55 247.22 202.00 239.00 202.00 C 230.78 202.00 221.07 200.55 213.00 202.00
C 199.51 206.27 206.02 224.73 205.00 237.00 C 203.98 249.27 205.32 265.70 205.00 279.00 C 204.68 292.30 204.87 308.30 205.00 322.00 C 205.13 335.70 204.30 350.19 205.00 364.00 C 205.70 377.81 203.32 393.32 205.01 406.99 C 206.70 420.66 227.81 415.96 238.00 416.00 C 248.19 416.04 268.09 420.38 272.00 408.00
C 275.16 390.38 270.21 370.82 272.00 353.00 C 273.79 335.18 269.95 316.02 273.00 299.00
C 274.39 278.56 284.16 259.54 307.00 257.00 C 329.84 254.46 343.82 273.32 345.00 295.00
C 347.89 312.79 344.23 332.50 346.00 351.00 C 347.77 369.50 342.73 389.73 346.00 408.00
C 352.21 422.78 371.59 413.46 385.00 416.00 C 398.41 418.54 416.70 416.50 415.00 400.00 C 413.30 383.50 415.66 368.66 415.00 353.00 C 414.34 337.34 415.00 321.86 415.00 307.00 C 415.00 292.14 414.53 276.39 411.78 263.22 C 409.03 250.05 406.53 239.92 399.77 229.23 C 393.01 218.54 386.07 212.53 375.23 206.77 C 364.39 201.01 350.63 198.50 338.00 198.00 C 325.37 197.50 309.18 200.44 298.23 205.23 C 287.28 210.02 280.92 218.13 274.00 227.00
C 271.39 218.32 276.45 205.62 265.00 202.00 Z"/>
</g>
<g fill="None" fill-opacity="0.0" stroke="#7AABDE" stroke-opacity="1.00" stroke-width="0.3"><path d="
M 116.00 202.00 
C 123.80 200.68 133.07 201.97 141.00 202.00 C 148.93 202.03 158.22 200.61 166.00 202.00
C 158.93 199.76 148.97 201.02 141.00 201.00 C 133.03 200.98 123.16 199.83 116.00 202.00 Z"/>
</g>
<g fill="None" fill-opacity="0.0" stroke="#6BA2DA" stroke-opacity="1.00" stroke-width="0.3"><path d="
M 213.00 202.00 
C 221.07 200.55 230.78 202.00 239.00 202.00 C 247.22 202.00 256.93 200.55 265.00 202.00
C 257.68 199.69 247.23 200.99 239.00 201.00 C 230.77 201.01 220.39 199.66 213.00 202.00 Z"/>
</g>
<g fill="None" fill-opacity="0.0" stroke="#FEFEFE" stroke-opacity="1.00" stroke-width="0.3"><path d="
M 174.00 408.00 
C 176.84 392.16 172.97 375.17 174.00 359.00 C 175.03 342.83 174.00 325.27 174.00 309.00 C 174.00 292.73 175.11 276.21 174.00 260.00 C 172.89 243.79 176.86 225.96 174.00 210.00
C 172.58 205.51 170.49 203.42 166.00 202.00
C 158.22 200.61 148.93 202.03 141.00 202.00 C 133.07 201.97 123.80 200.68 116.00 202.00
C 102.09 206.22 107.71 223.37 107.00 236.00 C 106.29 248.63 107.24 265.54 107.00 279.00 C 106.76 292.46 106.91 307.13 107.00 321.00 C 107.09 334.87 106.54 349.95 107.00 364.00 C 107.46 378.05 105.82 391.84 107.01 405.99 C 108.20 420.14 129.62 416.27 140.00 416.00 C 150.38 415.73 170.08 420.39 174.00 408.00 Z"/>
</g>
<g fill="None" fill-opacity="0.0" stroke="#8FB8E3" stroke-opacity="1.00" stroke-width="0.3"><path d="
M 174.00 408.00 
C 178.60 393.44 173.82 374.91 175.00 359.00 C 176.18 343.09 175.00 325.10 175.00 309.00 C 175.00 292.90 176.19 274.91 175.00 259.00 C 173.81 243.09 178.62 224.62 174.00 210.00
C 176.86 225.96 172.89 243.79 174.00 260.00 C 175.11 276.21 174.00 292.73 174.00 309.00 C 174.00 325.27 175.03 342.83 174.00 359.00 C 172.97 375.17 176.84 392.16 174.00 408.00 Z"/>
</g>
<g fill="None" fill-opacity="0.0" stroke="#0B65C3" stroke-opacity="0.55" stroke-width="0.3"><path d="
M 0.00 307.00 
C 1.68 298.48 1.65 286.59 0.00 278.00
L 0.00 307.00 Z"/>
</g>
<g fill="None" fill-opacity="0.0" stroke="#6DA3DB" stroke-opacity="1.00" stroke-width="0.3"><path d="
M 346.00 408.00 
C 342.73 389.73 347.77 369.50 346.00 351.00 C 344.23 332.50 347.89 312.79 345.00 295.00
C 346.00 313.42 343.17 333.80 345.00 352.00 C 346.83 370.20 340.67 391.14 346.00 408.00 Z"/>
</g>
<g fill="None" fill-opacity="0.0" stroke="#85B2E1" stroke-opacity="1.00" stroke-width="0.3"><path d="
M 272.00 408.00 
C 277.12 391.79 271.17 371.58 273.00 354.00 C 274.83 336.42 271.79 316.78 273.00 299.00
C 269.95 316.02 273.79 335.18 272.00 353.00 C 270.21 370.82 275.16 390.38 272.00 408.00 Z"/>
</g>
<g fill="None" fill-opacity="0.0" stroke="#000000" stroke-opacity="0.00" stroke-width="0.3"><path d="
M 311.00 512.00 
L 512.00 512.00
L 512.00 311.00
C 502.84 365.65 519.61 433.95 476.75 476.75 C 433.90 519.55 365.63 502.89 311.00 512.00 Z"/>
</g>
<g fill="None" fill-opacity="0.0" stroke="#000000" stroke-opacity="0.00" stroke-width="0.3"><path d="
M 0.00 512.00 
L 201.00 512.00
C 146.46 502.95 78.03 519.41 35.25 476.75 C -7.53 434.09 9.20 366.47 0.00 312.00
L 0.00 512.00 Z"/>
</g>
<g fill="None" fill-opacity="0.0" stroke="#0B65C2" stroke-opacity="0.65" stroke-width="0.3"><path d="
M 273.00 512.00 
L 302.00 512.00
C 293.48 510.32 281.59 510.35 273.00 512.00 Z"/>
</g>
<g fill="#000000" fill-opacity="0.00" stroke="None">
<path d="
M 0.00 200.00 
C 9.18 145.56 -7.48 77.99 35.25 35.25 C 77.98 -7.49 146.41 9.07 201.00 0.00
L 0.00 0.00
L 0.00 200.00 Z"/>
</g>
<g fill="#0B65C2" fill-opacity="1.00" stroke="None">
<path d="
M 0.00 200.00 
L 0.00 278.00
C 1.65 286.59 1.68 298.48 0.00 307.00
L 0.00 312.00
C 9.20 366.47 -7.53 434.09 35.25 476.75 C 78.03 519.41 146.46 502.95 201.00 512.00
L 273.00 512.00
C 281.59 510.35 293.48 510.32 302.00 512.00
L 311.00 512.00
C 365.63 502.89 433.90 519.55 476.75 476.75 C 519.61 433.95 502.84 365.65 512.00 311.00
L 512.00 201.00
C 511.09 171.59 507.10 136.86 505.07 107.93 C 503.04 78.99 498.02 56.56 477.25 35.75 C 456.47 14.94 435.23 9.25 406.00 7.00 C 376.77 4.75 341.53 1.00 311.00 1.00
C 298.83 1.00 285.34 1.83 274.00 0.00
L 201.00 0.00
C 146.41 9.07 77.98 -7.49 35.25 35.25 C -7.48 77.99 9.18 145.56 0.00 200.00
M 148.00 96.00 
C 179.85 100.55 195.15 142.21 174.75 166.75 C 154.34 191.28 114.31 187.41 101.03 156.97 C 87.74 126.54 113.50 91.07 148.00 96.00
M 346.00 408.00 
C 340.67 391.14 346.83 370.20 345.00 352.00 C 343.17 333.80 346.00 313.42 345.00 295.00
C 343.82 273.32 329.84 254.46 307.00 257.00 C 284.16 259.54 274.39 278.56 273.00 299.00
C 271.79 316.78 274.83 336.42 273.00 354.00 C 271.17 371.58 277.12 391.79 272.00 408.00
C 268.09 420.38 248.19 416.04 238.00 416.00 C 227.81 415.96 206.70 420.66 205.01 406.99 C 203.32 393.32 205.70 377.81 205.00 364.00 C 204.30 350.19 205.13 335.70 205.00 322.00 C 204.87 308.30 204.68 292.30 205.00 279.00 C 205.32 265.70 203.98 249.27 205.00 237.00 C 206.02 224.73 199.51 206.27 213.00 202.00
C 220.39 199.66 230.77 201.01 239.00 201.00 C 247.23 200.99 257.68 199.69 265.00 202.00
C 276.45 205.62 271.39 218.32 274.00 227.00
C 280.92 218.13 287.28 210.02 298.23 205.23 C 309.18 200.44 325.37 197.50 338.00 198.00 C 350.63 198.50 364.39 201.01 375.23 206.77 C 386.07 212.53 393.01 218.54 399.77 229.23 C 406.53 239.92 409.03 250.05 411.78 263.22 C 414.53 276.39 415.00 292.14 415.00 307.00 C 415.00 321.86 414.34 337.34 415.00 353.00 C 415.66 368.66 413.30 383.50 415.00 400.00 C 416.70 416.50 398.41 418.54 385.00 416.00 C 371.59 413.46 352.21 422.78 346.00 408.00
M 166.00 202.00 
C 170.49 203.42 172.58 205.51 174.00 210.00
C 178.62 224.62 173.81 243.09 175.00 259.00 C 176.19 274.91 175.00 292.90 175.00 309.00 C 175.00 325.10 176.18 343.09 175.00 359.00 C 173.82 374.91 178.60 393.44 174.00 408.00
C 170.08 420.39 150.38 415.73 140.00 416.00 C 129.62 416.27 108.20 420.14 107.01 405.99 C 105.82 391.84 107.46 378.05 107.00 364.00 C 106.54 349.95 107.09 334.87 107.00 321.00 C 106.91 307.13 106.76 292.46 107.00 279.00 C 107.24 265.54 106.29 248.63 107.00 236.00 C 107.71 223.37 102.09 206.22 116.00 202.00
C 123.16 199.83 133.03 200.98 141.00 201.00 C 148.97 201.02 158.93 199.76 166.00 202.00 Z"/>
</g>
<g fill="#0A65C3" fill-opacity="0.53" stroke="None">
<path d="
M 311.00 1.00 
C 310.96 1.00 311.00 0.00 311.00 0.00
L 274.00 0.00
C 285.34 1.83 298.83 1.00 311.00 1.00 Z"/>
</g>
<g fill="#000000" fill-opacity="0.00" stroke="None">
<path d="
M 311.00 1.00 
C 341.53 1.00 376.77 4.75 406.00 7.00 C 435.23 9.25 456.47 14.94 477.25 35.75 C 498.02 56.56 503.04 78.99 505.07 107.93 C 507.10 136.86 511.09 171.59 512.00 201.00
L 512.00 0.00
L 311.00 0.00
C 311.00 0.00 310.96 1.00 311.00 1.00 Z"/>
</g>
<g fill="#FDFDFE" fill-opacity="1.00" stroke="None">
<path d="
M 148.00 96.00 
C 113.50 91.07 87.74 126.54 101.03 156.97 C 114.31 187.41 154.34 191.28 174.75 166.75 C 195.15 142.21 179.85 100.55 148.00 96.00 Z"/>
</g>
<g fill="#FEFEFE" fill-opacity="1.00" stroke="None">
<path d="
M 265.00 202.00 
C 256.93 200.55 247.22 202.00 239.00 202.00 C 230.78 202.00 221.07 200.55 213.00 202.00
C 199.51 206.27 206.02 224.73 205.00 237.00 C 203.98 249.27 205.32 265.70 205.00 279.00 C 204.68 292.30 204.87 308.30 205.00 322.00 C 205.13 335.70 204.30 350.19 205.00 364.00 C 205.70 377.81 203.32 393.32 205.01 406.99 C 206.70 420.66 227.81 415.96 238.00 416.00 C 248.19 416.04 268.09 420.38 272.00 408.00
C 275.16 390.38 270.21 370.82 272.00 353.00 C 273.79 335.18 269.95 316.02 273.00 299.00
C 274.39 278.56 284.16 259.54 307.00 257.00 C 329.84 254.46 343.82 273.32 345.00 295.00
C 347.89 312.79 344.23 332.50 346.00 351.00 C 347.77 369.50 342.73 389.73 346.00 408.00
C 352.21 422.78 371.59 413.46 385.00 416.00 C 398.41 418.54 416.70 416.50 415.00 400.00 C 413.30 383.50 415.66 368.66 415.00 353.00 C 414.34 337.34 415.00 321.86 415.00 307.00 C 415.00 292.14 414.53 276.39 411.78 263.22 C 409.03 250.05 406.53 239.92 399.77 229.23 C 393.01 218.54 386.07 212.53 375.23 206.77 C 364.39 201.01 350.63 198.50 338.00 198.00 C 325.37 197.50 309.18 200.44 298.23 205.23 C 287.28 210.02 280.92 218.13 274.00 227.00
C 271.39 218.32 276.45 205.62 265.00 202.00 Z"/>
</g>
<g fill="#7AABDE" fill-opacity="1.00" stroke="None">
<path d="
M 116.00 202.00 
C 123.80 200.68 133.07 201.97 141.00 202.00 C 148.93 202.03 158.22 200.61 166.00 202.00
C 158.93 199.76 148.97 201.02 141.00 201.00 C 133.03 200.98 123.16 199.83 116.00 202.00 Z"/>
</g>
<g fill="#6BA2DA" fill-opacity="1.00" stroke="None">
<path d="
M 213.00 202.00 
C 221.07 200.55 230.78 202.00 239.00 202.00 C 247.22 202.00 256.93 200.55 265.00 202.00
C 257.68 199.69 247.23 200.99 239.00 201.00 C 230.77 201.01 220.39 199.66 213.00 202.00 Z"/>
</g>
<g fill="#FEFEFE" fill-opacity="1.00" stroke="None">
<path d="
M 174.00 408.00 
C 176.84 392.16 172.97 375.17 174.00 359.00 C 175.03 342.83 174.00 325.27 174.00 309.00 C 174.00 292.73 175.11 276.21 174.00 260.00 C 172.89 243.79 176.86 225.96 174.00 210.00
C 172.58 205.51 170.49 203.42 166.00 202.00
C 158.22 200.61 148.93 202.03 141.00 202.00 C 133.07 201.97 123.80 200.68 116.00 202.00
C 102.09 206.22 107.71 223.37 107.00 236.00 C 106.29 248.63 107.24 265.54 107.00 279.00 C 106.76 292.46 106.91 307.13 107.00 321.00 C 107.09 334.87 106.54 349.95 107.00 364.00 C 107.46 378.05 105.82 391.84 107.01 405.99 C 108.20 420.14 129.62 416.27 140.00 416.00 C 150.38 415.73 170.08 420.39 174.00 408.00 Z"/>
</g>
<g fill="#8FB8E3" fill-opacity="1.00" stroke="None">
<path d="
M 174.00 408.00 
C 178.60 393.44 173.82 374.91 175.00 359.00 C 176.18 343.09 175.00 325.10 175.00 309.00 C 175.00 292.90 176.19 274.91 175.00 259.00 C 173.81 243.09 178.62 224.62 174.00 210.00
C 176.86 225.96 172.89 243.79 174.00 260.00 C 175.11 276.21 174.00 292.73 174.00 309.00 C 174.00 325.27 175.03 342.83 174.00 359.00 C 172.97 375.17 176.84 392.16 174.00 408.00 Z"/>
</g>
<g fill="#0B65C3" fill-opacity="0.55" stroke="None">
<path d="
M 0.00 307.00 
C 1.68 298.48 1.65 286.59 0.00 278.00
L 0.00 307.00 Z"/>
</g>
<g fill="#6DA3DB" fill-opacity="1.00" stroke="None">
<path d="
M 346.00 408.00 
C 342.73 389.73 347.77 369.50 346.00 351.00 C 344.23 332.50 347.89 312.79 345.00 295.00
C 346.00 313.42 343.17 333.80 345.00 352.00 C 346.83 370.20 340.67 391.14 346.00 408.00 Z"/>
</g>
<g fill="#85B2E1" fill-opacity="1.00" stroke="None">
<path d="
M 272.00 408.00 
C 277.12 391.79 271.17 371.58 273.00 354.00 C 274.83 336.42 271.79 316.78 273.00 299.00
C 269.95 316.02 273.79 335.18 272.00 353.00 C 270.21 370.82 275.16 390.38 272.00 408.00 Z"/>
</g>
<g fill="#000000" fill-opacity="0.00" stroke="None">
<path d="
M 311.00 512.00 
L 512.00 512.00
L 512.00 311.00
C 502.84 365.65 519.61 433.95 476.75 476.75 C 433.90 519.55 365.63 502.89 311.00 512.00 Z"/>
</g>
<g fill="#000000" fill-opacity="0.00" stroke="None">
<path d="
M 0.00 512.00 
L 201.00 512.00
C 146.46 502.95 78.03 519.41 35.25 476.75 C -7.53 434.09 9.20 366.47 0.00 312.00
L 0.00 512.00 Z"/>
</g>
<g fill="#0B65C2" fill-opacity="0.65" stroke="None">
<path d="
M 273.00 512.00 
L 302.00 512.00
C 293.48 510.32 281.59 510.35 273.00 512.00 Z"/>
</g>
</svg>