<svg xmlns="http://www.w3.org/2000/svg" 
viewBox = "0 0 1442 420"
width="1442"
height="420">
<g fill="None" fill-opacity="0.0" stroke="#000000" stroke-opacity="0.00" stroke-width="0.3"><path d="
M 0.00 420.00 
L 1442.00 420.00
L 1442.00 0.00
L 0.00 0.00
L 0.00 420.00
M 314.00 74.00 
C 314.00 63.33 314.00 52.67 314.00 42.00
C 319.67 42.00 325.33 42.00 331.00 42.00
C 329.43 69.01 333.09 99.32 331.00 126.00 C 328.91 152.68 341.68 172.04 369.00 172.00 C 396.32 171.96 409.05 151.46 406.00 125.00 C 402.95 98.54 409.88 67.88 404.00 42.00
C 410.67 42.00 417.33 42.00 424.00 42.00
C 434.75 82.65 452.91 121.72 464.00 162.00
C 475.38 121.26 491.77 82.15 505.00 42.00
C 565.00 42.00 625.00 42.00 685.00 42.00
C 685.00 45.33 685.00 48.67 685.00 52.00
C 716.72 30.07 772.97 37.24 786.00 78.00
C 788.32 66.91 786.34 53.85 787.00 42.00
C 793.67 42.00 800.33 42.00 807.00 42.00
C 831.42 82.14 858.40 121.62 884.00 161.00
C 880.55 122.04 882.52 81.70 882.00 42.00
C 887.67 42.00 893.33 42.00 899.00 42.00
C 899.00 89.67 899.00 137.33 899.00 185.00
C 892.00 185.00 885.00 185.00 878.00 185.00
C 853.77 145.62 827.71 106.37 802.00 68.00
C 803.87 106.61 802.66 146.00 803.00 185.00
C 797.67 185.00 792.33 185.00 787.00 185.00
C 786.33 173.50 788.33 160.68 786.00 150.00
C 772.87 189.28 712.87 200.53 682.77 173.23 C 652.67 145.93 654.03 88.04 679.00 58.00
C 666.00 58.00 653.00 58.00 640.00 58.00
C 640.00 100.33 640.00 142.67 640.00 185.00
C 634.00 185.00 628.00 185.00 622.00 185.00
C 622.00 142.67 622.00 100.33 622.00 58.00
C 589.00 58.00 556.00 58.00 523.00 58.00
C 523.00 73.00 523.00 88.00 523.00 103.00
C 542.67 103.00 562.33 103.00 582.00 103.00
C 582.00 108.00 582.00 113.00 582.00 118.00
C 562.33 118.00 542.67 118.00 523.00 118.00
C 523.00 135.33 523.00 152.67 523.00 170.00
C 544.00 170.00 565.00 170.00 586.00 170.00
C 586.00 175.00 586.00 180.00 586.00 185.00
C 559.33 185.00 532.67 185.00 506.00 185.00
C 505.33 154.83 507.33 123.34 505.00 94.00
C 495.27 124.58 482.99 154.43 473.00 185.00
C 467.00 185.00 461.00 185.00 455.00 185.00
C 445.28 156.60 434.28 128.59 425.00 100.00
C 426.32 129.24 425.01 172.63 392.77 183.77 C 360.53 194.91 323.12 184.11 316.00 150.00
C 302.28 181.37 268.19 192.44 235.93 185.07 C 203.67 177.70 187.49 144.51 189.00 113.00
C 184.52 116.62 179.36 119.23 174.00 121.00
C 185.42 142.85 199.52 163.57 212.00 185.00
C 200.31 187.62 188.45 184.74 184.70 174.30 C 180.94 163.87 174.89 159.58 170.70 150.30 C 166.51 141.03 160.74 135.15 157.00 126.00
C 147.33 126.00 137.67 126.00 128.00 126.00
C 128.00 145.67 128.00 165.33 128.00 185.00
C 122.33 185.00 116.67 185.00 111.00 185.00
C 111.00 142.67 111.00 100.33 111.00 58.00
C 101.33 58.00 91.67 58.00 82.00 58.00
C 82.00 100.33 82.00 142.67 82.00 185.00
C 76.00 185.00 70.00 185.00 64.00 185.00
C 64.00 142.67 64.00 100.33 64.00 58.00
C 49.00 58.00 34.00 58.00 19.00 58.00
C 19.00 52.67 19.00 47.33 19.00 42.00
C 50.66 42.23 91.24 41.69 122.00 42.00 C 152.76 42.31 186.07 36.88 199.00 68.00
C 224.53 28.53 293.76 30.46 314.00 74.00
M 1328.00 42.00 
C 1328.00 62.33 1328.00 82.67 1328.00 103.00
C 1352.67 103.00 1377.33 103.00 1402.00 103.00
C 1402.00 82.67 1402.00 62.33 1402.00 42.00
C 1407.67 42.00 1413.33 42.00 1419.00 42.00
C 1419.00 89.67 1419.00 137.33 1419.00 185.00
C 1413.33 185.00 1407.67 185.00 1402.00 185.00
C 1402.00 163.00 1402.00 141.00 1402.00 119.00
C 1377.33 119.00 1352.67 119.00 1328.00 119.00
C 1328.00 141.00 1328.00 163.00 1328.00 185.00
C 1302.93 183.80 1272.06 192.13 1248.78 181.22 C 1225.50 170.32 1217.76 149.77 1215.00 126.00 C 1212.24 102.23 1216.93 75.82 1234.00 58.00
C 1220.33 58.00 1206.67 58.00 1193.00 58.00
C 1193.00 100.33 1193.00 142.67 1193.00 185.00
C 1187.00 185.00 1181.00 185.00 1175.00 185.00
C 1175.00 142.67 1175.00 100.33 1175.00 58.00
C 1160.00 58.00 1145.00 58.00 1130.00 58.00
C 1130.00 52.67 1130.00 47.33 1130.00 42.00
C 1166.00 42.00 1202.00 42.00 1238.00 42.00
C 1238.00 46.33 1238.00 50.67 1238.00 55.00
C 1250.73 46.03 1261.70 40.72 1278.07 40.07 C 1294.45 39.43 1311.75 44.89 1328.00 42.00
M 987.00 158.00 
C 1000.92 119.11 1017.46 81.01 1031.00 42.00
C 1039.67 42.00 1048.33 42.00 1057.00 42.00
C 1057.67 73.83 1055.67 106.99 1058.00 138.00
C 1069.17 105.67 1083.11 74.15 1095.00 42.00
C 1113.93 36.27 1115.45 56.53 1120.92 69.08 C 1126.40 81.62 1130.66 95.38 1135.93 108.07 C 1141.19 120.77 1145.88 133.25 1150.93 146.07 C 1155.97 158.89 1161.17 172.06 1166.00 185.00
C 1155.11 186.94 1144.81 185.21 1143.22 173.78 C 1141.63 162.34 1135.62 160.87 1133.69 149.31 C 1131.77 137.74 1119.90 139.54 1109.00 140.00 C 1098.10 140.46 1085.10 139.65 1074.00 140.00
C 1068.94 155.19 1062.31 169.87 1057.00 185.00
C 1051.00 185.00 1045.00 185.00 1039.00 185.00
C 1041.26 144.41 1039.43 100.78 1040.00 61.00
C 1025.49 102.66 1007.94 143.42 993.00 185.00
C 988.00 185.00 983.00 185.00 978.00 185.00
C 962.99 144.26 946.23 104.01 932.00 63.00
C 930.92 102.53 932.73 144.39 932.00 185.00
C 926.33 185.00 920.67 185.00 915.00 185.00
C 915.00 137.33 915.00 89.67 915.00 42.00
C 925.68 41.86 941.38 38.98 943.98 50.02 C 946.57 61.07 951.63 67.32 954.77 77.23 C 957.91 87.14 961.26 94.81 964.92 104.08 C 968.59 113.34 971.52 122.68 975.32 131.68 C 979.12 140.68 981.61 151.04 987.00 158.00
M 65.00 220.00 
C 65.88 245.31 63.38 277.77 65.99 302.01 C 68.60 326.25 77.46 339.47 96.75 354.25 C 116.04 369.04 141.46 367.56 167.00 367.00 C 192.54 366.44 223.56 367.67 250.00 367.00 C 276.44 366.33 307.61 368.22 334.00 367.00 C 360.39 365.78 390.70 370.20 415.67 365.67 C 440.65 361.14 423.13 319.78 450.68 317.68 C 478.23 315.58 505.18 317.58 533.00 317.00 C 560.82 316.42 589.14 317.43 617.00 317.00
C 615.67 307.68 623.67 312.48 627.25 316.75 C 630.82 321.02 621.53 326.35 617.00 326.00
C 616.05 316.95 602.44 321.85 594.00 321.00 C 585.56 320.15 574.98 321.36 566.00 321.00 C 557.02 320.64 546.15 321.14 537.00 321.00 C 527.85 320.86 518.07 321.00 509.00 321.00 C 499.93 321.00 489.81 320.87 481.00 321.00 C 472.19 321.13 460.86 320.24 452.99 321.99 C 445.13 323.75 441.19 328.17 437.70 334.70 C 434.20 341.22 436.57 351.04 432.23 357.23 C 427.89 363.42 424.46 368.69 416.32 370.32 C 408.18 371.96 397.99 370.72 389.00 371.00 C 380.01 371.29 369.24 370.87 360.00 371.00 C 350.76 371.13 341.33 370.94 332.00 371.00 C 322.67 371.06 313.41 370.97 304.00 371.00 C 294.59 371.03 284.43 370.99 275.00 371.00 C 265.57 371.01 256.39 370.99 247.00 371.00 C 237.61 371.01 228.39 370.98 219.00 371.00 C 209.61 371.02 199.32 370.97 190.00 371.00 C 180.68 371.03 171.12 370.93 162.00 371.00 C 152.88 371.07 141.68 370.86 133.00 371.00 C 124.32 371.14 116.49 369.49 109.32 366.68 C 102.15 363.86 97.36 360.78 91.75 356.25 C 86.15 351.71 81.12 348.08 76.75 342.25 C 72.38 336.42 68.98 331.82 66.23 324.77 C 63.48 317.72 61.34 310.29 61.00 302.00 C 60.66 293.70 60.86 281.63 61.00 273.00 C 61.14 264.37 60.24 253.40 61.00 245.00 C 61.76 236.60 57.43 222.56 65.00 220.00
M 884.00 321.00 
C 883.29 327.19 880.81 330.72 874.92 333.92 C 869.03 337.11 863.88 335.91 857.25 332.75 C 850.63 329.58 852.40 342.18 852.00 348.00 C 851.60 353.82 853.50 364.64 852.00 371.00 C 850.50 377.36 839.24 375.11 833.00 375.00 C 826.76 374.89 818.25 376.05 811.00 375.00 C 803.75 373.95 810.52 365.09 811.33 360.33 C 812.14 355.56 809.91 349.68 805.25 345.75 C 800.59 341.83 793.75 341.05 787.92 343.92 C 782.10 346.80 780.31 352.33 779.01 358.01 C 777.70 363.69 787.52 369.32 782.74 373.74 C 777.96 378.16 767.17 372.96 761.00 375.00 C 754.83 377.04 744.76 373.07 740.00 373.00
C 731.80 372.88 722.45 377.21 713.00 375.00 C 703.55 372.79 693.18 375.46 699.30 383.70 C 705.42 391.94 698.92 399.53 693.75 404.75 C 688.59 409.97 677.83 409.54 672.25 403.75 C 666.68 397.95 664.64 389.82 669.31 381.31 C 673.97 372.79 657.54 375.28 650.00 375.00 C 642.46 374.72 626.92 378.87 628.00 367.00 C 629.08 355.13 628.04 350.35 628.00 338.00 C 627.96 325.65 639.06 336.49 647.00 335.00 C 654.94 333.51 660.20 326.88 660.00 319.00 C 659.80 311.12 655.12 304.43 646.98 303.02 C 638.83 301.62 628.28 312.43 628.00 300.00 C 627.73 287.57 629.69 283.22 628.00 271.00 C 626.31 258.78 642.65 263.83 650.00 263.00 C 657.35 262.17 674.88 261.46 671.22 269.22 C 667.56 276.99 666.10 284.00 671.75 290.25 C 677.41 296.49 686.09 298.01 692.08 293.08 C 698.06 288.14 704.40 281.92 698.22 272.78 C 692.04 263.63 701.07 262.66 711.00 263.00 C 720.93 263.34 730.60 264.00 740.00 264.00
C 749.63 264.00 757.68 261.24 768.00 263.00 C 778.32 264.76 785.19 261.13 779.23 252.77 C 773.27 244.41 780.73 236.36 786.23 232.23 C 791.73 228.10 803.08 228.50 807.75 235.25 C 812.43 242.00 814.72 247.89 809.69 256.69 C 804.67 265.50 822.44 262.16 829.00 263.00 C 835.56 263.84 852.36 258.40 852.00 269.00 C 851.64 279.61 852.78 287.71 852.00 299.00 C 851.22 310.29 862.55 300.85 870.00 302.00 C 877.45 303.15 884.07 309.90 885.00 317.00
C 891.86 320.66 902.98 315.42 911.00 317.00 C 919.02 318.58 929.47 316.27 938.00 317.00 C 946.53 317.73 956.26 316.65 965.00 317.00 C 973.74 317.35 983.24 316.79 992.00 317.00 C 1000.76 317.21 1009.55 316.86 1018.00 316.00 C 1026.45 315.14 1028.73 311.19 1036.25 307.25 C 1043.77 303.30 1043.33 295.38 1043.00 287.00 C 1042.67 278.62 1042.71 268.52 1043.00 260.00 C 1043.29 251.48 1041.91 241.35 1043.00 233.00 C 1044.09 224.65 1056.40 226.27 1056.99 234.01 C 1057.58 241.74 1058.33 251.85 1058.00 260.00 C 1057.67 268.15 1057.84 277.81 1056.22 285.22 C 1054.60 292.63 1052.52 298.06 1047.00 303.00
C 1050.29 331.85 1061.87 361.60 1093.68 371.32 C 1125.49 381.04 1169.80 374.21 1205.00 376.00 C 1240.20 377.79 1286.15 374.21 1321.00 376.00 C 1355.85 377.79 1387.16 376.20 1406.77 345.77 C 1426.38 315.34 1414.85 276.17 1418.00 241.00
C 1407.42 243.22 1415.86 229.04 1420.03 229.03 C 1424.20 229.03 1432.29 243.29 1422.00 241.00
C 1418.53 276.29 1430.84 317.67 1411.08 348.08 C 1391.32 378.49 1361.39 382.65 1326.00 381.00 C 1290.61 379.35 1243.77 382.66 1208.00 381.00 C 1172.23 379.34 1126.83 385.63 1094.31 376.69 C 1061.79 367.76 1047.41 338.53 1043.00 309.00
C 1021.97 326.21 996.86 320.33 970.00 321.00 C 943.14 321.67 911.31 320.50 884.00 321.00 Z"/>
</g>
<g fill="None" fill-opacity="0.0" stroke="#E51867" stroke-opacity="0.94" stroke-width="0.3"><path d="
M 314.00 74.00 
C 293.76 30.46 224.53 28.53 199.00 68.00
C 186.07 36.88 152.76 42.31 122.00 42.00 C 91.24 41.69 50.66 42.23 19.00 42.00
C 19.00 47.33 19.00 52.67 19.00 58.00
C 34.00 58.00 49.00 58.00 64.00 58.00
C 64.00 100.33 64.00 142.67 64.00 185.00
C 70.00 185.00 76.00 185.00 82.00 185.00
C 82.00 142.67 82.00 100.33 82.00 58.00
C 91.67 58.00 101.33 58.00 111.00 58.00
C 111.00 100.33 111.00 142.67 111.00 185.00
C 116.67 185.00 122.33 185.00 128.00 185.00
C 128.00 165.33 128.00 145.67 128.00 126.00
C 137.67 126.00 147.33 126.00 157.00 126.00
C 160.74 135.15 166.51 141.03 170.70 150.30 C 174.89 159.58 180.94 163.87 184.70 174.30 C 188.45 184.74 200.31 187.62 212.00 185.00
C 199.52 163.57 185.42 142.85 174.00 121.00
C 179.36 119.23 184.52 116.62 189.00 113.00
C 187.49 144.51 203.67 177.70 235.93 185.07 C 268.19 192.44 302.28 181.37 316.00 150.00
C 323.12 184.11 360.53 194.91 392.77 183.77 C 425.01 172.63 426.32 129.24 425.00 100.00
C 434.28 128.59 445.28 156.60 455.00 185.00
C 461.00 185.00 467.00 185.00 473.00 185.00
C 482.99 154.43 495.27 124.58 505.00 94.00
C 507.33 123.34 505.33 154.83 506.00 185.00
C 532.67 185.00 559.33 185.00 586.00 185.00
C 586.00 180.00 586.00 175.00 586.00 170.00
C 565.00 170.00 544.00 170.00 523.00 170.00
C 523.00 152.67 523.00 135.33 523.00 118.00
C 542.67 118.00 562.33 118.00 582.00 118.00
C 582.00 113.00 582.00 108.00 582.00 103.00
C 562.33 103.00 542.67 103.00 523.00 103.00
C 523.00 88.00 523.00 73.00 523.00 58.00
C 556.00 58.00 589.00 58.00 622.00 58.00
C 622.00 100.33 622.00 142.67 622.00 185.00
C 628.00 185.00 634.00 185.00 640.00 185.00
C 640.00 142.67 640.00 100.33 640.00 58.00
C 653.00 58.00 666.00 58.00 679.00 58.00
C 654.03 88.04 652.67 145.93 682.77 173.23 C 712.87 200.53 772.87 189.28 786.00 150.00
C 788.33 160.68 786.33 173.50 787.00 185.00
C 792.33 185.00 797.67 185.00 803.00 185.00
C 802.66 146.00 803.87 106.61 802.00 68.00
C 827.71 106.37 853.77 145.62 878.00 185.00
C 885.00 185.00 892.00 185.00 899.00 185.00
C 899.00 137.33 899.00 89.67 899.00 42.00
C 893.33 42.00 887.67 42.00 882.00 42.00
C 882.52 81.70 880.55 122.04 884.00 161.00
C 858.40 121.62 831.42 82.14 807.00 42.00
C 800.33 42.00 793.67 42.00 787.00 42.00
C 786.34 53.85 788.32 66.91 786.00 78.00
C 772.97 37.24 716.72 30.07 685.00 52.00
C 685.00 48.67 685.00 45.33 685.00 42.00
C 625.00 42.00 565.00 42.00 505.00 42.00
C 491.77 82.15 475.38 121.26 464.00 162.00
C 452.91 121.72 434.75 82.65 424.00 42.00
C 417.33 42.00 410.67 42.00 404.00 42.00
C 409.88 67.88 402.95 98.54 406.00 125.00 C 409.05 151.46 396.32 171.96 369.00 172.00 C 341.68 172.04 328.91 152.68 331.00 126.00 C 333.09 99.32 329.43 69.01 331.00 42.00
C 325.33 42.00 319.67 42.00 314.00 42.00
C 314.00 52.67 314.00 63.33 314.00 74.00
M 264.00 56.00 
C 296.77 60.68 303.18 91.85 302.22 121.22 C 301.26 150.60 280.73 177.09 247.78 171.22 C 214.83 165.35 206.85 136.76 208.00 106.00 C 209.15 75.24 231.17 51.31 264.00 56.00
M 736.00 56.00 
C 768.45 60.64 775.47 93.74 774.00 123.00 C 772.53 152.26 750.44 177.85 717.98 171.02 C 685.52 164.20 678.65 136.46 680.00 106.00 C 681.34 75.54 702.53 51.22 736.00 56.00
M 128.00 111.00 
C 128.00 93.33 128.00 75.67 128.00 58.00
C 149.69 57.08 184.05 54.46 183.98 84.02 C 183.90 113.59 150.09 112.51 128.00 111.00 Z"/>
</g>
<g fill="None" fill-opacity="0.0" stroke="#E51867" stroke-opacity="0.94" stroke-width="0.3"><path d="
M 1328.00 42.00 
C 1311.75 44.89 1294.45 39.43 1278.07 40.07 C 1261.70 40.72 1250.73 46.03 1238.00 55.00
C 1238.00 50.67 1238.00 46.33 1238.00 42.00
C 1202.00 42.00 1166.00 42.00 1130.00 42.00
C 1130.00 47.33 1130.00 52.67 1130.00 58.00
C 1145.00 58.00 1160.00 58.00 1175.00 58.00
C 1175.00 100.33 1175.00 142.67 1175.00 185.00
C 1181.00 185.00 1187.00 185.00 1193.00 185.00
C 1193.00 142.67 1193.00 100.33 1193.00 58.00
C 1206.67 58.00 1220.33 58.00 1234.00 58.00
C 1216.93 75.82 1212.24 102.23 1215.00 126.00 C 1217.76 149.77 1225.50 170.32 1248.78 181.22 C 1272.06 192.13 1302.93 183.80 1328.00 185.00
C 1328.00 163.00 1328.00 141.00 1328.00 119.00
C 1352.67 119.00 1377.33 119.00 1402.00 119.00
C 1402.00 141.00 1402.00 163.00 1402.00 185.00
C 1407.67 185.00 1413.33 185.00 1419.00 185.00
C 1419.00 137.33 1419.00 89.67 1419.00 42.00
C 1413.33 42.00 1407.67 42.00 1402.00 42.00
C 1402.00 62.33 1402.00 82.67 1402.00 103.00
C 1377.33 103.00 1352.67 103.00 1328.00 103.00
C 1328.00 82.67 1328.00 62.33 1328.00 42.00
M 1311.00 168.00 
C 1300.76 170.09 1287.89 172.77 1277.33 171.67 C 1266.77 170.57 1257.53 167.47 1249.75 160.25 C 1241.98 153.02 1238.03 145.84 1235.22 135.78 C 1232.42 125.71 1232.31 110.45 1233.99 99.99 C 1235.67 89.53 1238.83 80.92 1245.75 72.75 C 1252.68 64.58 1258.04 60.76 1269.01 58.01 C 1279.97 55.26 1291.18 55.63 1303.02 58.98 C 1314.87 62.33 1310.72 78.02 1311.00 90.00 C 1311.28 101.98 1310.85 116.53 1311.00 129.00 C 1311.15 141.47 1310.89 155.40 1311.00 168.00 Z"/>
</g>
<g fill="None" fill-opacity="0.0" stroke="#E51867" stroke-opacity="0.93" stroke-width="0.3"><path d="
M 987.00 158.00 
C 981.61 151.04 979.12 140.68 975.32 131.68 C 971.52 122.68 968.59 113.34 964.92 104.08 C 961.26 94.81 957.91 87.14 954.77 77.23 C 951.63 67.32 946.57 61.07 943.98 50.02 C 941.38 38.98 925.68 41.86 915.00 42.00
C 915.00 89.67 915.00 137.33 915.00 185.00
C 920.67 185.00 926.33 185.00 932.00 185.00
C 932.73 144.39 930.92 102.53 932.00 63.00
C 946.23 104.01 962.99 144.26 978.00 185.00
C 983.00 185.00 988.00 185.00 993.00 185.00
C 1007.94 143.42 1025.49 102.66 1040.00 61.00
C 1039.43 100.78 1041.26 144.41 1039.00 185.00
C 1045.00 185.00 1051.00 185.00 1057.00 185.00
C 1062.31 169.87 1068.94 155.19 1074.00 140.00
C 1085.10 139.65 1098.10 140.46 1109.00 140.00 C 1119.90 139.54 1131.77 137.74 1133.69 149.31 C 1135.62 160.87 1141.63 162.34 1143.22 173.78 C 1144.81 185.21 1155.11 186.94 1166.00 185.00
C 1161.17 172.06 1155.97 158.89 1150.93 146.07 C 1145.88 133.25 1141.19 120.77 1135.93 108.07 C 1130.66 95.38 1126.40 81.62 1120.92 69.08 C 1115.45 56.53 1113.93 36.27 1095.00 42.00
C 1083.11 74.15 1069.17 105.67 1058.00 138.00
C 1055.67 106.99 1057.67 73.83 1057.00 42.00
C 1048.33 42.00 1039.67 42.00 1031.00 42.00
C 1017.46 81.01 1000.92 119.11 987.00 158.00
M 1124.00 124.00 
C 1109.67 124.00 1095.33 124.00 1081.00 124.00
C 1087.09 103.44 1097.56 84.16 1102.00 63.00
C 1108.84 83.14 1117.70 103.40 1124.00 124.00 Z"/>
</g>
<g fill="None" fill-opacity="0.0" stroke="#000000" stroke-opacity="0.00" stroke-width="0.3"><path d="
M 264.00 56.00 
C 231.17 51.31 209.15 75.24 208.00 106.00 C 206.85 136.76 214.83 165.35 247.78 171.22 C 280.73 177.09 301.26 150.60 302.22 121.22 C 303.18 91.85 296.77 60.68 264.00 56.00 Z"/>
</g>
<g fill="None" fill-opacity="0.0" stroke="#000000" stroke-opacity="0.00" stroke-width="0.3"><path d="
M 736.00 56.00 
C 702.53 51.22 681.34 75.54 680.00 106.00 C 678.65 136.46 685.52 164.20 717.98 171.02 C 750.44 177.85 772.53 152.26 774.00 123.00 C 775.47 93.74 768.45 60.64 736.00 56.00 Z"/>
</g>
<g fill="None" fill-opacity="0.0" stroke="#000000" stroke-opacity="0.00" stroke-width="0.3"><path d="
M 1311.00 168.00 
C 1310.89 155.40 1311.15 141.47 1311.00 129.00 C 1310.85 116.53 1311.28 101.98 1311.00 90.00 C 1310.72 78.02 1314.87 62.33 1303.02 58.98 C 1291.18 55.63 1279.97 55.26 1269.01 58.01 C 1258.04 60.76 1252.68 64.58 1245.75 72.75 C 1238.83 80.92 1235.67 89.53 1233.99 99.99 C 1232.31 110.45 1232.42 125.71 1235.22 135.78 C 1238.03 145.84 1241.98 153.02 1249.75 160.25 C 1257.53 167.47 1266.77 170.57 1277.33 171.67 C 1287.89 172.77 1300.76 170.09 1311.00 168.00 Z"/>
</g>
<g fill="None" fill-opacity="0.0" stroke="#000000" stroke-opacity="0.00" stroke-width="0.3"><path d="
M 128.00 111.00 
C 150.09 112.51 183.90 113.59 183.98 84.02 C 184.05 54.46 149.69 57.08 128.00 58.00
C 128.00 75.67 128.00 93.33 128.00 111.00 Z"/>
</g>
<g fill="None" fill-opacity="0.0" stroke="#000000" stroke-opacity="0.00" stroke-width="0.3"><path d="
M 1124.00 124.00 
C 1117.70 103.40 1108.84 83.14 1102.00 63.00
C 1097.56 84.16 1087.09 103.44 1081.00 124.00
C 1095.33 124.00 1109.67 124.00 1124.00 124.00 Z"/>
</g>
<g fill="None" fill-opacity="0.0" stroke="#70C91F" stroke-opacity="0.85" stroke-width="0.3"><path d="
M 65.00 220.00 
C 57.43 222.56 61.76 236.60 61.00 245.00 C 60.24 253.40 61.14 264.37 61.00 273.00 C 60.86 281.63 60.66 293.70 61.00 302.00 C 61.34 310.29 63.48 317.72 66.23 324.77 C 68.98 331.82 72.38 336.42 76.75 342.25 C 81.12 348.08 86.15 351.71 91.75 356.25 C 97.36 360.78 102.15 363.86 109.32 366.68 C 116.49 369.49 124.32 371.14 133.00 371.00 C 141.68 370.86 152.88 371.07 162.00 371.00 C 171.12 370.93 180.68 371.03 190.00 371.00 C 199.32 370.97 209.61 371.02 219.00 371.00 C 228.39 370.98 237.61 371.01 247.00 371.00 C 256.39 370.99 265.57 371.01 275.00 371.00 C 284.43 370.99 294.59 371.03 304.00 371.00 C 313.41 370.97 322.67 371.06 332.00 371.00 C 341.33 370.94 350.76 371.13 360.00 371.00 C 369.24 370.87 380.01 371.29 389.00 371.00 C 397.99 370.72 408.18 371.96 416.32 370.32 C 424.46 368.69 427.89 363.42 432.23 357.23 C 436.57 351.04 434.20 341.22 437.70 334.70 C 441.19 328.17 445.13 323.75 452.99 321.99 C 460.86 320.24 472.19 321.13 481.00 321.00 C 489.81 320.87 499.93 321.00 509.00 321.00 C 518.07 321.00 527.85 320.86 537.00 321.00 C 546.15 321.14 557.02 320.64 566.00 321.00 C 574.98 321.36 585.56 320.15 594.00 321.00 C 602.44 321.85 616.05 316.95 617.00 326.00
C 621.53 326.35 630.82 321.02 627.25 316.75 C 623.67 312.48 615.67 307.68 617.00 317.00
C 589.14 317.43 560.82 316.42 533.00 317.00 C 505.18 317.58 478.23 315.58 450.68 317.68 C 423.13 319.78 440.65 361.14 415.67 365.67 C 390.70 370.20 360.39 365.78 334.00 367.00 C 307.61 368.22 276.44 366.33 250.00 367.00 C 223.56 367.67 192.54 366.44 167.00 367.00 C 141.46 367.56 116.04 369.04 96.75 354.25 C 77.46 339.47 68.60 326.25 65.99 302.01 C 63.38 277.77 65.88 245.31 65.00 220.00 Z"/>
</g>
<g fill="None" fill-opacity="0.0" stroke="#70C91E" stroke-opacity="0.78" stroke-width="0.3"><path d="
M 885.00 317.00 
C 885.53 321.08 883.98 318.77 883.00 317.00
C 883.28 318.28 882.24 320.50 884.00 321.00
C 911.31 320.50 943.14 321.67 970.00 321.00 C 996.86 320.33 1021.97 326.21 1043.00 309.00
C 1047.41 338.53 1061.79 367.76 1094.31 376.69 C 1126.83 385.63 1172.23 379.34 1208.00 381.00 C 1243.77 382.66 1290.61 379.35 1326.00 381.00 C 1361.39 382.65 1391.32 378.49 1411.08 348.08 C 1430.84 317.67 1418.53 276.29 1422.00 241.00
C 1432.29 243.29 1424.20 229.03 1420.03 229.03 C 1415.86 229.04 1407.42 243.22 1418.00 241.00
C 1414.85 276.17 1426.38 315.34 1406.77 345.77 C 1387.16 376.20 1355.85 377.79 1321.00 376.00 C 1286.15 374.21 1240.20 377.79 1205.00 376.00 C 1169.80 374.21 1125.49 381.04 1093.68 371.32 C 1061.87 361.60 1050.29 331.85 1047.00 303.00
C 1052.52 298.06 1054.60 292.63 1056.22 285.22 C 1057.84 277.81 1057.67 268.15 1058.00 260.00 C 1058.33 251.85 1057.58 241.74 1056.99 234.01 C 1056.40 226.27 1044.09 224.65 1043.00 233.00 C 1041.91 241.35 1043.29 251.48 1043.00 260.00 C 1042.71 268.52 1042.67 278.62 1043.00 287.00 C 1043.33 295.38 1043.77 303.30 1036.25 307.25 C 1028.73 311.19 1026.45 315.14 1018.00 316.00 C 1009.55 316.86 1000.76 317.21 992.00 317.00 C 983.24 316.79 973.74 317.35 965.00 317.00 C 956.26 316.65 946.53 317.73 938.00 317.00 C 929.47 316.27 919.02 318.58 911.00 317.00 C 902.98 315.42 891.86 320.66 885.00 317.00
M 1049.00 293.00 
C 1046.46 273.59 1048.76 252.55 1048.00 232.00
C 1057.84 235.25 1051.45 252.09 1053.00 262.00 C 1054.55 271.91 1052.01 283.93 1049.00 293.00 Z"/>
</g>
<g fill="None" fill-opacity="0.0" stroke="#71C820" stroke-opacity="0.98" stroke-width="0.3"><path d="
M 740.00 264.00 
C 742.90 268.10 738.67 282.30 740.00 287.00 C 741.33 291.70 737.31 307.98 744.67 305.67 C 752.03 303.35 756.26 300.10 763.08 303.92 C 769.89 307.75 771.82 311.69 772.00 319.00 C 772.18 326.32 768.90 330.06 762.92 333.92 C 756.93 337.78 750.81 334.96 744.92 332.08 C 739.03 329.21 738.65 343.75 740.00 349.00 C 741.35 354.25 737.44 367.83 740.00 373.00
C 744.76 373.07 754.83 377.04 761.00 375.00 C 767.17 372.96 777.96 378.16 782.74 373.74 C 787.52 369.32 777.70 363.69 779.01 358.01 C 780.31 352.33 782.10 346.80 787.92 343.92 C 793.75 341.05 800.59 341.83 805.25 345.75 C 809.91 349.68 812.14 355.56 811.33 360.33 C 810.52 365.09 803.75 373.95 811.00 375.00 C 818.25 376.05 826.76 374.89 833.00 375.00 C 839.24 375.11 850.50 377.36 852.00 371.00 C 853.50 364.64 851.60 353.82 852.00 348.00 C 852.40 342.18 850.63 329.58 857.25 332.75 C 863.88 335.91 869.03 337.11 874.92 333.92 C 880.81 330.72 883.29 327.19 884.00 321.00
C 882.24 320.50 883.28 318.28 883.00 317.00
C 883.98 318.77 885.53 321.08 885.00 317.00
C 884.07 309.90 877.45 303.15 870.00 302.00 C 862.55 300.85 851.22 310.29 852.00 299.00 C 852.78 287.71 851.64 279.61 852.00 269.00 C 852.36 258.40 835.56 263.84 829.00 263.00 C 822.44 262.16 804.67 265.50 809.69 256.69 C 814.72 247.89 812.43 242.00 807.75 235.25 C 803.08 228.50 791.73 228.10 786.23 232.23 C 780.73 236.36 773.27 244.41 779.23 252.77 C 785.19 261.13 778.32 264.76 768.00 263.00 C 757.68 261.24 749.63 264.00 740.00 264.00 Z"/>
</g>
<g fill="None" fill-opacity="0.0" stroke="#000000" stroke-opacity="0.00" stroke-width="0.3"><path d="
M 1049.00 293.00 
C 1052.01 283.93 1054.55 271.91 1053.00 262.00 C 1051.45 252.09 1057.84 235.25 1048.00 232.00
C 1048.76 252.55 1046.46 273.59 1049.00 293.00 Z"/>
</g>
<g fill="None" fill-opacity="0.0" stroke="#E41967" stroke-opacity="0.98" stroke-width="0.3"><path d="
M 740.00 373.00 
C 737.44 367.83 741.35 354.25 740.00 349.00 C 738.65 343.75 739.03 329.21 744.92 332.08 C 750.81 334.96 756.93 337.78 762.92 333.92 C 768.90 330.06 772.18 326.32 772.00 319.00 C 771.82 311.69 769.89 307.75 763.08 303.92 C 756.26 300.10 752.03 303.35 744.67 305.67 C 737.31 307.98 741.33 291.70 740.00 287.00 C 738.67 282.30 742.90 268.10 740.00 264.00
C 730.60 264.00 720.93 263.34 711.00 263.00 C 701.07 262.66 692.04 263.63 698.22 272.78 C 704.40 281.92 698.06 288.14 692.08 293.08 C 686.09 298.01 677.41 296.49 671.75 290.25 C 666.10 284.00 667.56 276.99 671.22 269.22 C 674.88 261.46 657.35 262.17 650.00 263.00 C 642.65 263.83 626.31 258.78 628.00 271.00 C 629.69 283.22 627.73 287.57 628.00 300.00 C 628.28 312.43 638.83 301.62 646.98 303.02 C 655.12 304.43 659.80 311.12 660.00 319.00 C 660.20 326.88 654.94 333.51 647.00 335.00 C 639.06 336.49 627.96 325.65 628.00 338.00 C 628.04 350.35 629.08 355.13 628.00 367.00 C 626.92 378.87 642.46 374.72 650.00 375.00 C 657.54 375.28 673.97 372.79 669.31 381.31 C 664.64 389.82 666.68 397.95 672.25 403.75 C 677.83 409.54 688.59 409.97 693.75 404.75 C 698.92 399.53 705.42 391.94 699.30 383.70 C 693.18 375.46 703.55 372.79 713.00 375.00 C 722.45 377.21 731.80 372.88 740.00 373.00 Z"/>
</g>
<g fill="#000000" fill-opacity="0.00" stroke="None">
<path d="
M 0.00 420.00 
L 1442.00 420.00
L 1442.00 0.00
L 0.00 0.00
L 0.00 420.00
M 314.00 74.00 
C 314.00 63.33 314.00 52.67 314.00 42.00
C 319.67 42.00 325.33 42.00 331.00 42.00
C 329.43 69.01 333.09 99.32 331.00 126.00 C 328.91 152.68 341.68 172.04 369.00 172.00 C 396.32 171.96 409.05 151.46 406.00 125.00 C 402.95 98.54 409.88 67.88 404.00 42.00
C 410.67 42.00 417.33 42.00 424.00 42.00
C 434.75 82.65 452.91 121.72 464.00 162.00
C 475.38 121.26 491.77 82.15 505.00 42.00
C 565.00 42.00 625.00 42.00 685.00 42.00
C 685.00 45.33 685.00 48.67 685.00 52.00
C 716.72 30.07 772.97 37.24 786.00 78.00
C 788.32 66.91 786.34 53.85 787.00 42.00
C 793.67 42.00 800.33 42.00 807.00 42.00
C 831.42 82.14 858.40 121.62 884.00 161.00
C 880.55 122.04 882.52 81.70 882.00 42.00
C 887.67 42.00 893.33 42.00 899.00 42.00
C 899.00 89.67 899.00 137.33 899.00 185.00
C 892.00 185.00 885.00 185.00 878.00 185.00
C 853.77 145.62 827.71 106.37 802.00 68.00
C 803.87 106.61 802.66 146.00 803.00 185.00
C 797.67 185.00 792.33 185.00 787.00 185.00
C 786.33 173.50 788.33 160.68 786.00 150.00
C 772.87 189.28 712.87 200.53 682.77 173.23 C 652.67 145.93 654.03 88.04 679.00 58.00
C 666.00 58.00 653.00 58.00 640.00 58.00
C 640.00 100.33 640.00 142.67 640.00 185.00
C 634.00 185.00 628.00 185.00 622.00 185.00
C 622.00 142.67 622.00 100.33 622.00 58.00
C 589.00 58.00 556.00 58.00 523.00 58.00
C 523.00 73.00 523.00 88.00 523.00 103.00
C 542.67 103.00 562.33 103.00 582.00 103.00
C 582.00 108.00 582.00 113.00 582.00 118.00
C 562.33 118.00 542.67 118.00 523.00 118.00
C 523.00 135.33 523.00 152.67 523.00 170.00
C 544.00 170.00 565.00 170.00 586.00 170.00
C 586.00 175.00 586.00 180.00 586.00 185.00
C 559.33 185.00 532.67 185.00 506.00 185.00
C 505.33 154.83 507.33 123.34 505.00 94.00
C 495.27 124.58 482.99 154.43 473.00 185.00
C 467.00 185.00 461.00 185.00 455.00 185.00
C 445.28 156.60 434.28 128.59 425.00 100.00
C 426.32 129.24 425.01 172.63 392.77 183.77 C 360.53 194.91 323.12 184.11 316.00 150.00
C 302.28 181.37 268.19 192.44 235.93 185.07 C 203.67 177.70 187.49 144.51 189.00 113.00
C 184.52 116.62 179.36 119.23 174.00 121.00
C 185.42 142.85 199.52 163.57 212.00 185.00
C 200.31 187.62 188.45 184.74 184.70 174.30 C 180.94 163.87 174.89 159.58 170.70 150.30 C 166.51 141.03 160.74 135.15 157.00 126.00
C 147.33 126.00 137.67 126.00 128.00 126.00
C 128.00 145.67 128.00 165.33 128.00 185.00
C 122.33 185.00 116.67 185.00 111.00 185.00
C 111.00 142.67 111.00 100.33 111.00 58.00
C 101.33 58.00 91.67 58.00 82.00 58.00
C 82.00 100.33 82.00 142.67 82.00 185.00
C 76.00 185.00 70.00 185.00 64.00 185.00
C 64.00 142.67 64.00 100.33 64.00 58.00
C 49.00 58.00 34.00 58.00 19.00 58.00
C 19.00 52.67 19.00 47.33 19.00 42.00
C 50.66 42.23 91.24 41.69 122.00 42.00 C 152.76 42.31 186.07 36.88 199.00 68.00
C 224.53 28.53 293.76 30.46 314.00 74.00
M 1328.00 42.00 
C 1328.00 62.33 1328.00 82.67 1328.00 103.00
C 1352.67 103.00 1377.33 103.00 1402.00 103.00
C 1402.00 82.67 1402.00 62.33 1402.00 42.00
C 1407.67 42.00 1413.33 42.00 1419.00 42.00
C 1419.00 89.67 1419.00 137.33 1419.00 185.00
C 1413.33 185.00 1407.67 185.00 1402.00 185.00
C 1402.00 163.00 1402.00 141.00 1402.00 119.00
C 1377.33 119.00 1352.67 119.00 1328.00 119.00
C 1328.00 141.00 1328.00 163.00 1328.00 185.00
C 1302.93 183.80 1272.06 192.13 1248.78 181.22 C 1225.50 170.32 1217.76 149.77 1215.00 126.00 C 1212.24 102.23 1216.93 75.82 1234.00 58.00
C 1220.33 58.00 1206.67 58.00 1193.00 58.00
C 1193.00 100.33 1193.00 142.67 1193.00 185.00
C 1187.00 185.00 1181.00 185.00 1175.00 185.00
C 1175.00 142.67 1175.00 100.33 1175.00 58.00
C 1160.00 58.00 1145.00 58.00 1130.00 58.00
C 1130.00 52.67 1130.00 47.33 1130.00 42.00
C 1166.00 42.00 1202.00 42.00 1238.00 42.00
C 1238.00 46.33 1238.00 50.67 1238.00 55.00
C 1250.73 46.03 1261.70 40.72 1278.07 40.07 C 1294.45 39.43 1311.75 44.89 1328.00 42.00
M 987.00 158.00 
C 1000.92 119.11 1017.46 81.01 1031.00 42.00
C 1039.67 42.00 1048.33 42.00 1057.00 42.00
C 1057.67 73.83 1055.67 106.99 1058.00 138.00
C 1069.17 105.67 1083.11 74.15 1095.00 42.00
C 1113.93 36.27 1115.45 56.53 1120.92 69.08 C 1126.40 81.62 1130.66 95.38 1135.93 108.07 C 1141.19 120.77 1145.88 133.25 1150.93 146.07 C 1155.97 158.89 1161.17 172.06 1166.00 185.00
C 1155.11 186.94 1144.81 185.21 1143.22 173.78 C 1141.63 162.34 1135.62 160.87 1133.69 149.31 C 1131.77 137.74 1119.90 139.54 1109.00 140.00 C 1098.10 140.46 1085.10 139.65 1074.00 140.00
C 1068.94 155.19 1062.31 169.87 1057.00 185.00
C 1051.00 185.00 1045.00 185.00 1039.00 185.00
C 1041.26 144.41 1039.43 100.78 1040.00 61.00
C 1025.49 102.66 1007.94 143.42 993.00 185.00
C 988.00 185.00 983.00 185.00 978.00 185.00
C 962.99 144.26 946.23 104.01 932.00 63.00
C 930.92 102.53 932.73 144.39 932.00 185.00
C 926.33 185.00 920.67 185.00 915.00 185.00
C 915.00 137.33 915.00 89.67 915.00 42.00
C 925.68 41.86 941.38 38.98 943.98 50.02 C 946.57 61.07 951.63 67.32 954.77 77.23 C 957.91 87.14 961.26 94.81 964.92 104.08 C 968.59 113.34 971.52 122.68 975.32 131.68 C 979.12 140.68 981.61 151.04 987.00 158.00
M 65.00 220.00 
C 65.88 245.31 63.38 277.77 65.99 302.01 C 68.60 326.25 77.46 339.47 96.75 354.25 C 116.04 369.04 141.46 367.56 167.00 367.00 C 192.54 366.44 223.56 367.67 250.00 367.00 C 276.44 366.33 307.61 368.22 334.00 367.00 C 360.39 365.78 390.70 370.20 415.67 365.67 C 440.65 361.14 423.13 319.78 450.68 317.68 C 478.23 315.58 505.18 317.58 533.00 317.00 C 560.82 316.42 589.14 317.43 617.00 317.00
C 615.67 307.68 623.67 312.48 627.25 316.75 C 630.82 321.02 621.53 326.35 617.00 326.00
C 616.05 316.95 602.44 321.85 594.00 321.00 C 585.56 320.15 574.98 321.36 566.00 321.00 C 557.02 320.64 546.15 321.14 537.00 321.00 C 527.85 320.86 518.07 321.00 509.00 321.00 C 499.93 321.00 489.81 320.87 481.00 321.00 C 472.19 321.13 460.86 320.24 452.99 321.99 C 445.13 323.75 441.19 328.17 437.70 334.70 C 434.20 341.22 436.57 351.04 432.23 357.23 C 427.89 363.42 424.46 368.69 416.32 370.32 C 408.18 371.96 397.99 370.72 389.00 371.00 C 380.01 371.29 369.24 370.87 360.00 371.00 C 350.76 371.13 341.33 370.94 332.00 371.00 C 322.67 371.06 313.41 370.97 304.00 371.00 C 294.59 371.03 284.43 370.99 275.00 371.00 C 265.57 371.01 256.39 370.99 247.00 371.00 C 237.61 371.01 228.39 370.98 219.00 371.00 C 209.61 371.02 199.32 370.97 190.00 371.00 C 180.68 371.03 171.12 370.93 162.00 371.00 C 152.88 371.07 141.68 370.86 133.00 371.00 C 124.32 371.14 116.49 369.49 109.32 366.68 C 102.15 363.86 97.36 360.78 91.75 356.25 C 86.15 351.71 81.12 348.08 76.75 342.25 C 72.38 336.42 68.98 331.82 66.23 324.77 C 63.48 317.72 61.34 310.29 61.00 302.00 C 60.66 293.70 60.86 281.63 61.00 273.00 C 61.14 264.37 60.24 253.40 61.00 245.00 C 61.76 236.60 57.43 222.56 65.00 220.00
M 884.00 321.00 
C 883.29 327.19 880.81 330.72 874.92 333.92 C 869.03 337.11 863.88 335.91 857.25 332.75 C 850.63 329.58 852.40 342.18 852.00 348.00 C 851.60 353.82 853.50 364.64 852.00 371.00 C 850.50 377.36 839.24 375.11 833.00 375.00 C 826.76 374.89 818.25 376.05 811.00 375.00 C 803.75 373.95 810.52 365.09 811.33 360.33 C 812.14 355.56 809.91 349.68 805.25 345.75 C 800.59 341.83 793.75 341.05 787.92 343.92 C 782.10 346.80 780.31 352.33 779.01 358.01 C 777.70 363.69 787.52 369.32 782.74 373.74 C 777.96 378.16 767.17 372.96 761.00 375.00 C 754.83 377.04 744.76 373.07 740.00 373.00
C 731.80 372.88 722.45 377.21 713.00 375.00 C 703.55 372.79 693.18 375.46 699.30 383.70 C 705.42 391.94 698.92 399.53 693.75 404.75 C 688.59 409.97 677.83 409.54 672.25 403.75 C 666.68 397.95 664.64 389.82 669.31 381.31 C 673.97 372.79 657.54 375.28 650.00 375.00 C 642.46 374.72 626.92 378.87 628.00 367.00 C 629.08 355.13 628.04 350.35 628.00 338.00 C 627.96 325.65 639.06 336.49 647.00 335.00 C 654.94 333.51 660.20 326.88 660.00 319.00 C 659.80 311.12 655.12 304.43 646.98 303.02 C 638.83 301.62 628.28 312.43 628.00 300.00 C 627.73 287.57 629.69 283.22 628.00 271.00 C 626.31 258.78 642.65 263.83 650.00 263.00 C 657.35 262.17 674.88 261.46 671.22 269.22 C 667.56 276.99 666.10 284.00 671.75 290.25 C 677.41 296.49 686.09 298.01 692.08 293.08 C 698.06 288.14 704.40 281.92 698.22 272.78 C 692.04 263.63 701.07 262.66 711.00 263.00 C 720.93 263.34 730.60 264.00 740.00 264.00
C 749.63 264.00 757.68 261.24 768.00 263.00 C 778.32 264.76 785.19 261.13 779.23 252.77 C 773.27 244.41 780.73 236.36 786.23 232.23 C 791.73 228.10 803.08 228.50 807.75 235.25 C 812.43 242.00 814.72 247.89 809.69 256.69 C 804.67 265.50 822.44 262.16 829.00 263.00 C 835.56 263.84 852.36 258.40 852.00 269.00 C 851.64 279.61 852.78 287.71 852.00 299.00 C 851.22 310.29 862.55 300.85 870.00 302.00 C 877.45 303.15 884.07 309.90 885.00 317.00
C 891.86 320.66 902.98 315.42 911.00 317.00 C 919.02 318.58 929.47 316.27 938.00 317.00 C 946.53 317.73 956.26 316.65 965.00 317.00 C 973.74 317.35 983.24 316.79 992.00 317.00 C 1000.76 317.21 1009.55 316.86 1018.00 316.00 C 1026.45 315.14 1028.73 311.19 1036.25 307.25 C 1043.77 303.30 1043.33 295.38 1043.00 287.00 C 1042.67 278.62 1042.71 268.52 1043.00 260.00 C 1043.29 251.48 1041.91 241.35 1043.00 233.00 C 1044.09 224.65 1056.40 226.27 1056.99 234.01 C 1057.58 241.74 1058.33 251.85 1058.00 260.00 C 1057.67 268.15 1057.84 277.81 1056.22 285.22 C 1054.60 292.63 1052.52 298.06 1047.00 303.00
C 1050.29 331.85 1061.87 361.60 1093.68 371.32 C 1125.49 381.04 1169.80 374.21 1205.00 376.00 C 1240.20 377.79 1286.15 374.21 1321.00 376.00 C 1355.85 377.79 1387.16 376.20 1406.77 345.77 C 1426.38 315.34 1414.85 276.17 1418.00 241.00
C 1407.42 243.22 1415.86 229.04 1420.03 229.03 C 1424.20 229.03 1432.29 243.29 1422.00 241.00
C 1418.53 276.29 1430.84 317.67 1411.08 348.08 C 1391.32 378.49 1361.39 382.65 1326.00 381.00 C 1290.61 379.35 1243.77 382.66 1208.00 381.00 C 1172.23 379.34 1126.83 385.63 1094.31 376.69 C 1061.79 367.76 1047.41 338.53 1043.00 309.00
C 1021.97 326.21 996.86 320.33 970.00 321.00 C 943.14 321.67 911.31 320.50 884.00 321.00 Z"/>
</g>
<g fill="#E51867" fill-opacity="0.94" stroke="None">
<path d="
M 314.00 74.00 
C 293.76 30.46 224.53 28.53 199.00 68.00
C 186.07 36.88 152.76 42.31 122.00 42.00 C 91.24 41.69 50.66 42.23 19.00 42.00
C 19.00 47.33 19.00 52.67 19.00 58.00
C 34.00 58.00 49.00 58.00 64.00 58.00
C 64.00 100.33 64.00 142.67 64.00 185.00
C 70.00 185.00 76.00 185.00 82.00 185.00
C 82.00 142.67 82.00 100.33 82.00 58.00
C 91.67 58.00 101.33 58.00 111.00 58.00
C 111.00 100.33 111.00 142.67 111.00 185.00
C 116.67 185.00 122.33 185.00 128.00 185.00
C 128.00 165.33 128.00 145.67 128.00 126.00
C 137.67 126.00 147.33 126.00 157.00 126.00
C 160.74 135.15 166.51 141.03 170.70 150.30 C 174.89 159.58 180.94 163.87 184.70 174.30 C 188.45 184.74 200.31 187.62 212.00 185.00
C 199.52 163.57 185.42 142.85 174.00 121.00
C 179.36 119.23 184.52 116.62 189.00 113.00
C 187.49 144.51 203.67 177.70 235.93 185.07 C 268.19 192.44 302.28 181.37 316.00 150.00
C 323.12 184.11 360.53 194.91 392.77 183.77 C 425.01 172.63 426.32 129.24 425.00 100.00
C 434.28 128.59 445.28 156.60 455.00 185.00
C 461.00 185.00 467.00 185.00 473.00 185.00
C 482.99 154.43 495.27 124.58 505.00 94.00
C 507.33 123.34 505.33 154.83 506.00 185.00
C 532.67 185.00 559.33 185.00 586.00 185.00
C 586.00 180.00 586.00 175.00 586.00 170.00
C 565.00 170.00 544.00 170.00 523.00 170.00
C 523.00 152.67 523.00 135.33 523.00 118.00
C 542.67 118.00 562.33 118.00 582.00 118.00
C 582.00 113.00 582.00 108.00 582.00 103.00
C 562.33 103.00 542.67 103.00 523.00 103.00
C 523.00 88.00 523.00 73.00 523.00 58.00
C 556.00 58.00 589.00 58.00 622.00 58.00
C 622.00 100.33 622.00 142.67 622.00 185.00
C 628.00 185.00 634.00 185.00 640.00 185.00
C 640.00 142.67 640.00 100.33 640.00 58.00
C 653.00 58.00 666.00 58.00 679.00 58.00
C 654.03 88.04 652.67 145.93 682.77 173.23 C 712.87 200.53 772.87 189.28 786.00 150.00
C 788.33 160.68 786.33 173.50 787.00 185.00
C 792.33 185.00 797.67 185.00 803.00 185.00
C 802.66 146.00 803.87 106.61 802.00 68.00
C 827.71 106.37 853.77 145.62 878.00 185.00
C 885.00 185.00 892.00 185.00 899.00 185.00
C 899.00 137.33 899.00 89.67 899.00 42.00
C 893.33 42.00 887.67 42.00 882.00 42.00
C 882.52 81.70 880.55 122.04 884.00 161.00
C 858.40 121.62 831.42 82.14 807.00 42.00
C 800.33 42.00 793.67 42.00 787.00 42.00
C 786.34 53.85 788.32 66.91 786.00 78.00
C 772.97 37.24 716.72 30.07 685.00 52.00
C 685.00 48.67 685.00 45.33 685.00 42.00
C 625.00 42.00 565.00 42.00 505.00 42.00
C 491.77 82.15 475.38 121.26 464.00 162.00
C 452.91 121.72 434.75 82.65 424.00 42.00
C 417.33 42.00 410.67 42.00 404.00 42.00
C 409.88 67.88 402.95 98.54 406.00 125.00 C 409.05 151.46 396.32 171.96 369.00 172.00 C 341.68 172.04 328.91 152.68 331.00 126.00 C 333.09 99.32 329.43 69.01 331.00 42.00
C 325.33 42.00 319.67 42.00 314.00 42.00
C 314.00 52.67 314.00 63.33 314.00 74.00
M 264.00 56.00 
C 296.77 60.68 303.18 91.85 302.22 121.22 C 301.26 150.60 280.73 177.09 247.78 171.22 C 214.83 165.35 206.85 136.76 208.00 106.00 C 209.15 75.24 231.17 51.31 264.00 56.00
M 736.00 56.00 
C 768.45 60.64 775.47 93.74 774.00 123.00 C 772.53 152.26 750.44 177.85 717.98 171.02 C 685.52 164.20 678.65 136.46 680.00 106.00 C 681.34 75.54 702.53 51.22 736.00 56.00
M 128.00 111.00 
C 128.00 93.33 128.00 75.67 128.00 58.00
C 149.69 57.08 184.05 54.46 183.98 84.02 C 183.90 113.59 150.09 112.51 128.00 111.00 Z"/>
</g>
<g fill="#E51867" fill-opacity="0.94" stroke="None">
<path d="
M 1328.00 42.00 
C 1311.75 44.89 1294.45 39.43 1278.07 40.07 C 1261.70 40.72 1250.73 46.03 1238.00 55.00
C 1238.00 50.67 1238.00 46.33 1238.00 42.00
C 1202.00 42.00 1166.00 42.00 1130.00 42.00
C 1130.00 47.33 1130.00 52.67 1130.00 58.00
C 1145.00 58.00 1160.00 58.00 1175.00 58.00
C 1175.00 100.33 1175.00 142.67 1175.00 185.00
C 1181.00 185.00 1187.00 185.00 1193.00 185.00
C 1193.00 142.67 1193.00 100.33 1193.00 58.00
C 1206.67 58.00 1220.33 58.00 1234.00 58.00
C 1216.93 75.82 1212.24 102.23 1215.00 126.00 C 1217.76 149.77 1225.50 170.32 1248.78 181.22 C 1272.06 192.13 1302.93 183.80 1328.00 185.00
C 1328.00 163.00 1328.00 141.00 1328.00 119.00
C 1352.67 119.00 1377.33 119.00 1402.00 119.00
C 1402.00 141.00 1402.00 163.00 1402.00 185.00
C 1407.67 185.00 1413.33 185.00 1419.00 185.00
C 1419.00 137.33 1419.00 89.67 1419.00 42.00
C 1413.33 42.00 1407.67 42.00 1402.00 42.00
C 1402.00 62.33 1402.00 82.67 1402.00 103.00
C 1377.33 103.00 1352.67 103.00 1328.00 103.00
C 1328.00 82.67 1328.00 62.33 1328.00 42.00
M 1311.00 168.00 
C 1300.76 170.09 1287.89 172.77 1277.33 171.67 C 1266.77 170.57 1257.53 167.47 1249.75 160.25 C 1241.98 153.02 1238.03 145.84 1235.22 135.78 C 1232.42 125.71 1232.31 110.45 1233.99 99.99 C 1235.67 89.53 1238.83 80.92 1245.75 72.75 C 1252.68 64.58 1258.04 60.76 1269.01 58.01 C 1279.97 55.26 1291.18 55.63 1303.02 58.98 C 1314.87 62.33 1310.72 78.02 1311.00 90.00 C 1311.28 101.98 1310.85 116.53 1311.00 129.00 C 1311.15 141.47 1310.89 155.40 1311.00 168.00 Z"/>
</g>
<g fill="#E51867" fill-opacity="0.93" stroke="None">
<path d="
M 987.00 158.00 
C 981.61 151.04 979.12 140.68 975.32 131.68 C 971.52 122.68 968.59 113.34 964.92 104.08 C 961.26 94.81 957.91 87.14 954.77 77.23 C 951.63 67.32 946.57 61.07 943.98 50.02 C 941.38 38.98 925.68 41.86 915.00 42.00
C 915.00 89.67 915.00 137.33 915.00 185.00
C 920.67 185.00 926.33 185.00 932.00 185.00
C 932.73 144.39 930.92 102.53 932.00 63.00
C 946.23 104.01 962.99 144.26 978.00 185.00
C 983.00 185.00 988.00 185.00 993.00 185.00
C 1007.94 143.42 1025.49 102.66 1040.00 61.00
C 1039.43 100.78 1041.26 144.41 1039.00 185.00
C 1045.00 185.00 1051.00 185.00 1057.00 185.00
C 1062.31 169.87 1068.94 155.19 1074.00 140.00
C 1085.10 139.65 1098.10 140.46 1109.00 140.00 C 1119.90 139.54 1131.77 137.74 1133.69 149.31 C 1135.62 160.87 1141.63 162.34 1143.22 173.78 C 1144.81 185.21 1155.11 186.94 1166.00 185.00
C 1161.17 172.06 1155.97 158.89 1150.93 146.07 C 1145.88 133.25 1141.19 120.77 1135.93 108.07 C 1130.66 95.38 1126.40 81.62 1120.92 69.08 C 1115.45 56.53 1113.93 36.27 1095.00 42.00
C 1083.11 74.15 1069.17 105.67 1058.00 138.00
C 1055.67 106.99 1057.67 73.83 1057.00 42.00
C 1048.33 42.00 1039.67 42.00 1031.00 42.00
C 1017.46 81.01 1000.92 119.11 987.00 158.00
M 1124.00 124.00 
C 1109.67 124.00 1095.33 124.00 1081.00 124.00
C 1087.09 103.44 1097.56 84.16 1102.00 63.00
C 1108.84 83.14 1117.70 103.40 1124.00 124.00 Z"/>
</g>
<g fill="#000000" fill-opacity="0.00" stroke="None">
<path d="
M 264.00 56.00 
C 231.17 51.31 209.15 75.24 208.00 106.00 C 206.85 136.76 214.83 165.35 247.78 171.22 C 280.73 177.09 301.26 150.60 302.22 121.22 C 303.18 91.85 296.77 60.68 264.00 56.00 Z"/>
</g>
<g fill="#000000" fill-opacity="0.00" stroke="None">
<path d="
M 736.00 56.00 
C 702.53 51.22 681.34 75.54 680.00 106.00 C 678.65 136.46 685.52 164.20 717.98 171.02 C 750.44 177.85 772.53 152.26 774.00 123.00 C 775.47 93.74 768.45 60.64 736.00 56.00 Z"/>
</g>
<g fill="#000000" fill-opacity="0.00" stroke="None">
<path d="
M 1311.00 168.00 
C 1310.89 155.40 1311.15 141.47 1311.00 129.00 C 1310.85 116.53 1311.28 101.98 1311.00 90.00 C 1310.72 78.02 1314.87 62.33 1303.02 58.98 C 1291.18 55.63 1279.97 55.26 1269.01 58.01 C 1258.04 60.76 1252.68 64.58 1245.75 72.75 C 1238.83 80.92 1235.67 89.53 1233.99 99.99 C 1232.31 110.45 1232.42 125.71 1235.22 135.78 C 1238.03 145.84 1241.98 153.02 1249.75 160.25 C 1257.53 167.47 1266.77 170.57 1277.33 171.67 C 1287.89 172.77 1300.76 170.09 1311.00 168.00 Z"/>
</g>
<g fill="#000000" fill-opacity="0.00" stroke="None">
<path d="
M 128.00 111.00 
C 150.09 112.51 183.90 113.59 183.98 84.02 C 184.05 54.46 149.69 57.08 128.00 58.00
C 128.00 75.67 128.00 93.33 128.00 111.00 Z"/>
</g>
<g fill="#000000" fill-opacity="0.00" stroke="None">
<path d="
M 1124.00 124.00 
C 1117.70 103.40 1108.84 83.14 1102.00 63.00
C 1097.56 84.16 1087.09 103.44 1081.00 124.00
C 1095.33 124.00 1109.67 124.00 1124.00 124.00 Z"/>
</g>
<g fill="#70C91F" fill-opacity="0.85" stroke="None">
<path d="
M 65.00 220.00 
C 57.43 222.56 61.76 236.60 61.00 245.00 C 60.24 253.40 61.14 264.37 61.00 273.00 C 60.86 281.63 60.66 293.70 61.00 302.00 C 61.34 310.29 63.48 317.72 66.23 324.77 C 68.98 331.82 72.38 336.42 76.75 342.25 C 81.12 348.08 86.15 351.71 91.75 356.25 C 97.36 360.78 102.15 363.86 109.32 366.68 C 116.49 369.49 124.32 371.14 133.00 371.00 C 141.68 370.86 152.88 371.07 162.00 371.00 C 171.12 370.93 180.68 371.03 190.00 371.00 C 199.32 370.97 209.61 371.02 219.00 371.00 C 228.39 370.98 237.61 371.01 247.00 371.00 C 256.39 370.99 265.57 371.01 275.00 371.00 C 284.43 370.99 294.59 371.03 304.00 371.00 C 313.41 370.97 322.67 371.06 332.00 371.00 C 341.33 370.94 350.76 371.13 360.00 371.00 C 369.24 370.87 380.01 371.29 389.00 371.00 C 397.99 370.72 408.18 371.96 416.32 370.32 C 424.46 368.69 427.89 363.42 432.23 357.23 C 436.57 351.04 434.20 341.22 437.70 334.70 C 441.19 328.17 445.13 323.75 452.99 321.99 C 460.86 320.24 472.19 321.13 481.00 321.00 C 489.81 320.87 499.93 321.00 509.00 321.00 C 518.07 321.00 527.85 320.86 537.00 321.00 C 546.15 321.14 557.02 320.64 566.00 321.00 C 574.98 321.36 585.56 320.15 594.00 321.00 C 602.44 321.85 616.05 316.95 617.00 326.00
C 621.53 326.35 630.82 321.02 627.25 316.75 C 623.67 312.48 615.67 307.68 617.00 317.00
C 589.14 317.43 560.82 316.42 533.00 317.00 C 505.18 317.58 478.23 315.58 450.68 317.68 C 423.13 319.78 440.65 361.14 415.67 365.67 C 390.70 370.20 360.39 365.78 334.00 367.00 C 307.61 368.22 276.44 366.33 250.00 367.00 C 223.56 367.67 192.54 366.44 167.00 367.00 C 141.46 367.56 116.04 369.04 96.75 354.25 C 77.46 339.47 68.60 326.25 65.99 302.01 C 63.38 277.77 65.88 245.31 65.00 220.00 Z"/>
</g>
<g fill="#70C91E" fill-opacity="0.78" stroke="None">
<path d="
M 885.00 317.00 
C 885.53 321.08 883.98 318.77 883.00 317.00
C 883.28 318.28 882.24 320.50 884.00 321.00
C 911.31 320.50 943.14 321.67 970.00 321.00 C 996.86 320.33 1021.97 326.21 1043.00 309.00
C 1047.41 338.53 1061.79 367.76 1094.31 376.69 C 1126.83 385.63 1172.23 379.34 1208.00 381.00 C 1243.77 382.66 1290.61 379.35 1326.00 381.00 C 1361.39 382.65 1391.32 378.49 1411.08 348.08 C 1430.84 317.67 1418.53 276.29 1422.00 241.00
C 1432.29 243.29 1424.20 229.03 1420.03 229.03 C 1415.86 229.04 1407.42 243.22 1418.00 241.00
C 1414.85 276.17 1426.38 315.34 1406.77 345.77 C 1387.16 376.20 1355.85 377.79 1321.00 376.00 C 1286.15 374.21 1240.20 377.79 1205.00 376.00 C 1169.80 374.21 1125.49 381.04 1093.68 371.32 C 1061.87 361.60 1050.29 331.85 1047.00 303.00
C 1052.52 298.06 1054.60 292.63 1056.22 285.22 C 1057.84 277.81 1057.67 268.15 1058.00 260.00 C 1058.33 251.85 1057.58 241.74 1056.99 234.01 C 1056.40 226.27 1044.09 224.65 1043.00 233.00 C 1041.91 241.35 1043.29 251.48 1043.00 260.00 C 1042.71 268.52 1042.67 278.62 1043.00 287.00 C 1043.33 295.38 1043.77 303.30 1036.25 307.25 C 1028.73 311.19 1026.45 315.14 1018.00 316.00 C 1009.55 316.86 1000.76 317.21 992.00 317.00 C 983.24 316.79 973.74 317.35 965.00 317.00 C 956.26 316.65 946.53 317.73 938.00 317.00 C 929.47 316.27 919.02 318.58 911.00 317.00 C 902.98 315.42 891.86 320.66 885.00 317.00
M 1049.00 293.00 
C 1046.46 273.59 1048.76 252.55 1048.00 232.00
C 1057.84 235.25 1051.45 252.09 1053.00 262.00 C 1054.55 271.91 1052.01 283.93 1049.00 293.00 Z"/>
</g>
<g fill="#71C820" fill-opacity="0.98" stroke="None">
<path d="
M 740.00 264.00 
C 742.90 268.10 738.67 282.30 740.00 287.00 C 741.33 291.70 737.31 307.98 744.67 305.67 C 752.03 303.35 756.26 300.10 763.08 303.92 C 769.89 307.75 771.82 311.69 772.00 319.00 C 772.18 326.32 768.90 330.06 762.92 333.92 C 756.93 337.78 750.81 334.96 744.92 332.08 C 739.03 329.21 738.65 343.75 740.00 349.00 C 741.35 354.25 737.44 367.83 740.00 373.00
C 744.76 373.07 754.83 377.04 761.00 375.00 C 767.17 372.96 777.96 378.16 782.74 373.74 C 787.52 369.32 777.70 363.69 779.01 358.01 C 780.31 352.33 782.10 346.80 787.92 343.92 C 793.75 341.05 800.59 341.83 805.25 345.75 C 809.91 349.68 812.14 355.56 811.33 360.33 C 810.52 365.09 803.75 373.95 811.00 375.00 C 818.25 376.05 826.76 374.89 833.00 375.00 C 839.24 375.11 850.50 377.36 852.00 371.00 C 853.50 364.64 851.60 353.82 852.00 348.00 C 852.40 342.18 850.63 329.58 857.25 332.75 C 863.88 335.91 869.03 337.11 874.92 333.92 C 880.81 330.72 883.29 327.19 884.00 321.00
C 882.24 320.50 883.28 318.28 883.00 317.00
C 883.98 318.77 885.53 321.08 885.00 317.00
C 884.07 309.90 877.45 303.15 870.00 302.00 C 862.55 300.85 851.22 310.29 852.00 299.00 C 852.78 287.71 851.64 279.61 852.00 269.00 C 852.36 258.40 835.56 263.84 829.00 263.00 C 822.44 262.16 804.67 265.50 809.69 256.69 C 814.72 247.89 812.43 242.00 807.75 235.25 C 803.08 228.50 791.73 228.10 786.23 232.23 C 780.73 236.36 773.27 244.41 779.23 252.77 C 785.19 261.13 778.32 264.76 768.00 263.00 C 757.68 261.24 749.63 264.00 740.00 264.00 Z"/>
</g>
<g fill="#000000" fill-opacity="0.00" stroke="None">
<path d="
M 1049.00 293.00 
C 1052.01 283.93 1054.55 271.91 1053.00 262.00 C 1051.45 252.09 1057.84 235.25 1048.00 232.00
C 1048.76 252.55 1046.46 273.59 1049.00 293.00 Z"/>
</g>
<g fill="#E41967" fill-opacity="0.98" stroke="None">
<path d="
M 740.00 373.00 
C 737.44 367.83 741.35 354.25 740.00 349.00 C 738.65 343.75 739.03 329.21 744.92 332.08 C 750.81 334.96 756.93 337.78 762.92 333.92 C 768.90 330.06 772.18 326.32 772.00 319.00 C 771.82 311.69 769.89 307.75 763.08 303.92 C 756.26 300.10 752.03 303.35 744.67 305.67 C 737.31 307.98 741.33 291.70 740.00 287.00 C 738.67 282.30 742.90 268.10 740.00 264.00
C 730.60 264.00 720.93 263.34 711.00 263.00 C 701.07 262.66 692.04 263.63 698.22 272.78 C 704.40 281.92 698.06 288.14 692.08 293.08 C 686.09 298.01 677.41 296.49 671.75 290.25 C 666.10 284.00 667.56 276.99 671.22 269.22 C 674.88 261.46 657.35 262.17 650.00 263.00 C 642.65 263.83 626.31 258.78 628.00 271.00 C 629.69 283.22 627.73 287.57 628.00 300.00 C 628.28 312.43 638.83 301.62 646.98 303.02 C 655.12 304.43 659.80 311.12 660.00 319.00 C 660.20 326.88 654.94 333.51 647.00 335.00 C 639.06 336.49 627.96 325.65 628.00 338.00 C 628.04 350.35 629.08 355.13 628.00 367.00 C 626.92 378.87 642.46 374.72 650.00 375.00 C 657.54 375.28 673.97 372.79 669.31 381.31 C 664.64 389.82 666.68 397.95 672.25 403.75 C 677.83 409.54 688.59 409.97 693.75 404.75 C 698.92 399.53 705.42 391.94 699.30 383.70 C 693.18 375.46 703.55 372.79 713.00 375.00 C 722.45 377.21 731.80 372.88 740.00 373.00 Z"/>
</g>
</svg>