<?xml version="1.0" encoding="UTF-8"?>
<svg version="1.1" xmlns="http://www.w3.org/2000/svg" width="594" height="420">
<path d="M0 0 C2.4375 2.1875 2.4375 2.1875 4 4 C4.33 2.02 4.66 0.04 5 -2 C6.98 -2 8.96 -2 11 -2 C11.01458252 -1.08710205 11.02916504 -0.1742041 11.04418945 0.76635742 C11.10540795 4.16798611 11.17958873 7.56882681 11.26245117 10.9699707 C11.29561259 12.43926422 11.32367178 13.90868244 11.34643555 15.37817383 C11.38014519 17.49614368 11.43246433 19.61297995 11.48828125 21.73046875 C11.51446533 23.00301514 11.54064941 24.27556152 11.56762695 25.58666992 C12.02615612 29.20648713 12.75800726 31.14502177 15 34 C19.89318896 35.63106299 24.23086885 35.75282177 28.9375 33.75 C31.36869925 31.68716427 31.50066358 31.07811009 32 28 C32.08197613 25.68351312 32.10747793 23.36479111 32.09765625 21.046875 C32.0962413 20.38665344 32.09482635 19.72643188 32.09336853 19.04620361 C32.08779245 16.94742206 32.07524447 14.84874905 32.0625 12.75 C32.0574819 11.32291821 32.05291954 9.89583475 32.04882812 8.46875 C32.03783088 4.97913168 32.0205828 1.48957644 32 -2 C34.31 -2 36.62 -2 39 -2 C40.40829952 1.91351001 41.81406827 5.82791705 43.2175293 9.74316406 C43.69502941 11.07414097 44.17321244 12.40487309 44.65209961 13.73535156 C45.34149259 15.65104795 46.02840091 17.56761983 46.71484375 19.484375 C47.12855225 20.63647461 47.54226074 21.78857422 47.96850586 22.97558594 C48.76636209 25.31495706 49.45996816 27.59181972 50 30 C53.18013224 21.90895558 56.17852732 13.77396807 59.03173828 5.56274414 C60.90254557 0.19490887 60.90254557 0.19490887 62 -2 C81.33333333 -2 100.66666667 -2 120 -2 C120.99 -2.33 121.98 -2.66 123 -3 C130.14845186 -3.70445164 136.06916826 -3.30276028 142 1 C144 3.25 144 3.25 145 5 C145.33 2.69 145.66 0.38 146 -2 C149.0625 -2.6875 149.0625 -2.6875 153 -2 C155.8656645 1.33470824 157.83633802 5.18695115 160 9 C161.35757964 11.0740079 162.73256611 13.13672963 164.125 15.1875 C167.19291162 19.73844774 170.08540191 24.33664305 173 29 C173.33 18.77 173.66 8.54 174 -2 C175.98 -2 177.96 -2 180 -2 C180 12.19 180 26.38 180 41 C173 41 173 41 171.13671875 39.375 C170.65847656 38.59125 170.18023437 37.8075 169.6875 37 C169.11773437 36.09765625 168.54796875 35.1953125 167.9609375 34.265625 C167.31382812 33.18796875 166.66671875 32.1103125 166 31 C165.16176631 29.65963274 164.32043911 28.32119674 163.4765625 26.984375 C161.38436576 23.66563892 159.31478217 20.3338374 157.26098633 16.99121094 C155.55472262 14.29686693 153.76903498 11.65355247 152 9 C151.67 19.56 151.34 30.12 151 41 C149.35 41 147.7 41 146 41 C145.67 38.69 145.34 36.38 145 34 C144.51789063 34.42152344 144.03578125 34.84304687 143.5390625 35.27734375 C142.90742188 35.82519531 142.27578125 36.37304688 141.625 36.9375 C140.99851562 37.48277344 140.37203125 38.02804688 139.7265625 38.58984375 C136.14803883 41.51257462 132.68359677 41.25290865 128.25 41.3125 C127.54617188 41.34150391 126.84234375 41.37050781 126.1171875 41.40039062 C120.94944373 41.46282619 118.11165545 40.37131272 114 37 C109.20590621 31.14055204 107.55489764 24.68324892 107.734375 17.16015625 C108.22676413 13.15587404 109.05508166 6.94491834 112 4 C109.03 3.67 106.06 3.34 103 3 C103 15.54 103 28.08 103 41 C101.02 41 99.04 41 97 41 C97 28.46 97 15.92 97 3 C87.43 3 77.86 3 68 3 C68 7.29 68 11.58 68 16 C73.94 16 79.88 16 86 16 C86 17.65 86 19.3 86 21 C80.06 21 74.12 21 68 21 C68 25.95 68 30.9 68 36 C74.27 36 80.54 36 87 36 C87 37.65 87 39.3 87 41 C78.75 41 70.5 41 62 41 C61.67 34.07 61.34 27.14 61 20 C60.50628906 21.43214844 60.01257813 22.86429688 59.50390625 24.33984375 C58.85692269 26.20578183 58.20977902 28.07166439 57.5625 29.9375 C57.23701172 30.88302734 56.91152344 31.82855469 56.57617188 32.80273438 C56.26357422 33.70185547 55.95097656 34.60097656 55.62890625 35.52734375 C55.34088135 36.35999756 55.05285645 37.19265137 54.75610352 38.05053711 C54 40 54 40 53 41 C51.02 41 49.04 41 47 41 C44.69 34.73 42.38 28.46 40 22 C39.443125 25.0628125 39.443125 25.0628125 38.875 28.1875 C37.19298788 35.5835246 37.19298788 35.5835246 33.9375 38.25 C27.62081709 42.01313025 21.17646119 41.81823668 14 41 C10.99207881 39.50065278 8.86827116 37.80604151 7 35 C7 34.34 7 33.68 7 33 C6.37351562 33.49371094 5.74703125 33.98742187 5.1015625 34.49609375 C4.28429687 35.13675781 3.46703125 35.77742188 2.625 36.4375 C1.81289062 37.07558594 1.00078125 37.71367187 0.1640625 38.37109375 C-3.8007872 41.35546618 -7.07210967 41.15050207 -11.875 41.125 C-12.59558594 41.12886719 -13.31617188 41.13273437 -14.05859375 41.13671875 C-17.50815011 41.13036598 -20.70440191 41.08702974 -24 40 C-24 40.33 -24 40.66 -24 41 C-27.1875 41.5 -27.1875 41.5 -31 41 C-33.20804536 38.63819104 -34.51564807 35.85266333 -36 33 C-36.92663658 31.53473995 -37.86374535 30.07603652 -38.8125 28.625 C-41 25.24615385 -41 25.24615385 -41 23 C-43.64 23 -46.28 23 -49 23 C-49 28.94 -49 34.88 -49 41 C-50.98 41 -52.96 41 -55 41 C-55 28.46 -55 15.92 -55 3 C-57.64 3 -60.28 3 -63 3 C-63 15.54 -63 28.08 -63 41 C-64.98 41 -66.96 41 -69 41 C-69 28.46 -69 15.92 -69 3 C-73.29 3 -77.58 3 -82 3 C-82 1.35 -82 -0.3 -82 -2 C-75.55883383 -2.07622102 -69.1177845 -2.12867158 -62.67626953 -2.16479492 C-60.48612115 -2.17985806 -58.29600281 -2.20031259 -56.10595703 -2.22631836 C-52.95337497 -2.26280989 -49.80119263 -2.27975139 -46.6484375 -2.29296875 C-45.67321136 -2.30845261 -44.69798523 -2.32393646 -43.69320679 -2.33988953 C-38.41552346 -2.34118869 -34.48811525 -2.1254068 -30 1 C-29.505 2.485 -29.505 2.485 -29 4 C-27.700625 2.824375 -27.700625 2.824375 -26.375 1.625 C-18.67174191 -4.69883745 -8.5062714 -4.76351199 0 0 Z M-49 3 C-49 7.95 -49 12.9 -49 18 C-47.2675 18.061875 -45.535 18.12375 -43.75 18.1875 C-42.77546875 18.22230469 -41.8009375 18.25710937 -40.796875 18.29296875 C-37.58488898 17.9565177 -36.30132971 17.22179066 -34 15 C-32.8986085 12.0105088 -32.89702737 10.40252937 -33.6875 7.3125 C-35.2432462 4.57142336 -36.10015596 4.11454875 -39 3 C-41.59154919 2.75970041 -41.59154919 2.75970041 -44.25 2.875 C-46.60125 2.936875 -46.60125 2.936875 -49 3 Z M-22 6 C-25.89721362 12.18178711 -25.68841089 18.8680632 -25 26 C-23.64789712 29.73437938 -22.13242026 32.5201673 -19 35 C-14.05724228 36.64758591 -9.08774822 36.78870488 -4.1875 34.9375 C-0.09008834 31.30836396 1.71676628 28.27159169 2.38671875 22.8984375 C2.61443362 16.06699141 2.25150088 11.43247334 -2 6 C-5.95698914 2.36060001 -9.19184533 2.55024452 -14.37109375 2.72265625 C-17.74500069 3.07859591 -19.54337571 3.62014522 -22 6 Z M117 8 C114.58970699 11.65297002 114.66796506 15.06990064 114.625 19.375 C114.59664062 20.66148437 114.56828125 21.94796875 114.5390625 23.2734375 C115.17704932 28.43139873 117.27834986 31.52429988 121.1875 34.875 C125.18208283 36.47283313 128.75378127 36.57130943 133 36 C136.72210861 34.38169191 138.89930441 32.46614772 141 29 C142.8486688 23.09453022 143.03929844 15.87482134 140.8125 10.0625 C138.73956109 6.55994805 137.62876342 4.88998095 134 3 C126.67931159 1.81527791 121.97062457 2.39211587 117 8 Z M-33 20 C-33.99 21.485 -33.99 21.485 -35 23 C-34.03114628 24.68496298 -33.03013277 26.35178756 -32 28 C-31.67 28 -31.34 28 -31 28 C-31 25.69 -31 23.38 -31 21 C-31.66 20.67 -32.32 20.34 -33 20 Z " fill="#D52567" transform="translate(168,165)"/>
<path d="M0 0 C2.0625 0.4375 2.0625 0.4375 4 1 C4.05420701 3.56278699 4.09377007 6.12441483 4.125 8.6875 C4.14175781 9.40873047 4.15851563 10.12996094 4.17578125 10.87304688 C4.21450971 15.11381376 3.69900857 18.14713017 2 22 C1.47769121 28.06095822 3.39724543 32.38664609 6.94140625 37.17578125 C15.11388964 44.41781113 24.29954488 43.58807899 34.5625 43.53125 C36.28068257 43.53394848 37.99886364 43.53783386 39.71704102 43.54284668 C43.30792869 43.54872502 46.8984168 43.54023286 50.48925781 43.52148438 C55.0757071 43.49869558 59.6612199 43.51182765 64.24763489 43.53577423 C67.79259201 43.5502775 71.33732971 43.54560557 74.8822937 43.53526306 C76.5726635 43.53260826 78.26305369 43.53582133 79.95339966 43.54518127 C92.09222367 43.77958529 92.09222367 43.77958529 103 39 C107.55929123 34.32072742 109.25802892 29.81515481 109.23046875 23.33203125 C109.22853516 22.27435547 109.22660156 21.21667969 109.22460938 20.12695312 C109.21236328 19.03318359 109.20011719 17.93941406 109.1875 16.8125 C109.18685547 15.70712891 109.18621094 14.60175781 109.18554688 13.46289062 C109.40680287 8.06131069 109.40680287 8.06131069 108 3 C108.66 2.01 109.32 1.02 110 0 C111.98 0.99 111.98 0.99 114 2 C113.67 2.99 113.34 3.98 113 5 C112.90805183 6.88636303 112.86835826 8.77548122 112.859375 10.6640625 C112.84003906 11.78683594 112.82070313 12.90960938 112.80078125 14.06640625 C112.76726394 16.41519618 112.74872424 18.76425366 112.74609375 21.11328125 C112.58756741 28.43052348 111.75164379 34.20996976 107 40 C101.05732066 44.71254196 95.97729826 46.14904574 88.44262695 46.17700195 C87.67475357 46.18357315 86.90688019 46.19014435 86.11573792 46.19691467 C83.57325133 46.21663173 81.03082385 46.22830817 78.48828125 46.23828125 C77.61841269 46.24235678 76.74854412 46.2464323 75.8523159 46.25063133 C71.24602878 46.27148767 66.63977139 46.28578993 62.03344727 46.29516602 C57.28666218 46.30621519 52.54034784 46.34059894 47.79372883 46.38033772 C44.13473163 46.40654641 40.47584573 46.41486173 36.81676292 46.41844749 C35.0677492 46.42330434 33.31874014 46.43489254 31.5698185 46.45348549 C29.1142874 46.47796284 26.6599627 46.47689646 24.2043457 46.4699707 C23.48976196 46.48278076 22.77517822 46.49559082 22.03894043 46.50878906 C15.69195606 46.44395723 10.63754493 44.22207325 5.79296875 40.140625 C1.95446967 35.62034871 -0.27361962 31.68690009 -2 26 C-2.99 26.66 -3.98 27.32 -5 28 C-6.99320984 28.24050903 -6.99320984 28.24050903 -9.2878418 28.22705078 C-10.57884041 28.22682419 -10.57884041 28.22682419 -11.8959198 28.22659302 C-12.82100845 28.21627045 -13.74609711 28.20594788 -14.69921875 28.1953125 C-15.64940384 28.1924826 -16.59958893 28.18965271 -17.5785675 28.18673706 C-20.61500615 28.17553715 -23.65115042 28.15043288 -26.6875 28.125 C-28.74543845 28.11496996 -30.80338152 28.10584415 -32.86132812 28.09765625 C-37.9076656 28.07559842 -42.95378288 28.04106982 -48 28 C-48.33 29.32 -48.66 30.64 -49 32 C-54.75 33.125 -54.75 33.125 -57 32 C-57 35.96 -57 39.92 -57 44 C-61.62 44 -66.24 44 -71 44 C-71 41.69 -71 39.38 -71 37 C-72.06645115 35.70366379 -72.06645115 35.70366379 -74.5625 35.9375 C-75.366875 35.958125 -76.17125 35.97875 -77 36 C-78.08174162 39.36541838 -77.92538169 40.29847322 -77 44 C-85.58 44 -94.16 44 -103 44 C-102.67 46.31 -102.34 48.62 -102 51 C-102.66 51.99 -103.32 52.98 -104 54 C-107.12606798 54.39907251 -109.14511207 54.46880951 -111.9375 52.9375 C-113.61676907 49.87530347 -112.68621125 47.30629059 -112 44 C-115.96 44 -119.92 44 -124 44 C-124 39.71 -124 35.42 -124 31 C-122.02 31 -120.04 31 -118 31 C-117.34 30.67 -116.68 30.34 -116 30 C-116 28.35 -116 26.7 -116 25 C-118.76264289 24.40267181 -121.16032769 24 -124 24 C-124 19.38 -124 14.76 -124 10 C-119.71 10 -115.42 10 -111 10 C-111 12.97 -111 15.94 -111 19 C-108.69 19 -106.38 19 -104 19 C-104 16.03 -104 13.06 -104 10 C-95.75 10 -87.5 10 -79 10 C-79.495 7.03 -79.495 7.03 -80 4 C-79.34 3.01 -78.68 2.02 -78 1 C-74.5 0.6875 -74.5 0.6875 -71 1 C-69 3 -69 3 -68.875 6.125 C-68.91625 7.07375 -68.9575 8.0225 -69 9 C-68.21753906 9.06058594 -67.43507813 9.12117187 -66.62890625 9.18359375 C-65.61699219 9.26738281 -64.60507812 9.35117188 -63.5625 9.4375 C-62.04849609 9.55931641 -62.04849609 9.55931641 -60.50390625 9.68359375 C-58 10 -58 10 -57 11 C-56.76636119 12.84891946 -56.58696365 14.70488031 -56.4375 16.5625 C-56.35371094 17.57441406 -56.26992188 18.58632812 -56.18359375 19.62890625 C-56.12300781 20.41136719 -56.06242187 21.19382813 -56 22 C-54.02 22 -52.04 22 -50 22 C-49.01 23.98 -49.01 23.98 -48 26 C-42.09137952 25.93114471 -36.18346816 25.84318803 -30.27539062 25.73754883 C-28.26570501 25.70430274 -26.25592609 25.67626981 -24.24609375 25.65356445 C-21.35636653 25.62001278 -18.46749407 25.56769663 -15.578125 25.51171875 C-14.68007141 25.50532883 -13.78201782 25.4989389 -12.85675049 25.49235535 C-9.30076495 25.40861718 -6.67025778 25.32136872 -3.43725586 23.77124023 C-1.56689273 21.46624881 -1.47597614 20.10078426 -1.42578125 17.1484375 C-1.39806641 16.21515625 -1.37035156 15.281875 -1.34179688 14.3203125 C-1.33212891 13.34835938 -1.32246094 12.37640625 -1.3125 11.375 C-1.27060366 9.44522918 -1.22522371 7.51552973 -1.17578125 5.5859375 C-1.16458252 4.7304834 -1.15338379 3.8750293 -1.1418457 2.99365234 C-1 1 -1 1 0 0 Z M1 2 C1 6.95 1 11.9 1 17 C1.33 17 1.66 17 2 17 C2 12.05 2 7.1 2 2 C1.67 2 1.34 2 1 2 Z " fill="#73C722" transform="translate(391,218)"/>
<path d="M0 0 C2.97 0 5.94 0 9 0 C17.72551414 22.80127986 17.72551414 22.80127986 21 32 C26.05379563 21.62514069 29.95969948 10.7975277 34 0 C36.97 0 39.94 0 43 0 C43.33 7.26 43.66 14.52 44 22 C46.97 14.74 49.94 7.48 53 0 C54.98 0 56.96 0 59 0 C59.4846875 1.21171875 59.969375 2.4234375 60.46875 3.671875 C60.78908203 4.47246338 61.10941406 5.27305176 61.43945312 6.09790039 C62.15236488 7.88067211 62.86459356 9.66371712 63.57617188 11.44702148 C65.47247286 16.19652226 67.38007669 20.94085118 69.3125 25.67578125 C69.67923828 26.5790918 70.04597656 27.48240234 70.42382812 28.41308594 C71.13191459 30.15631513 71.84404712 31.89790723 72.56054688 33.63769531 C72.88087891 34.42885742 73.20121094 35.22001953 73.53125 36.03515625 C73.95760742 37.07748413 73.95760742 37.07748413 74.39257812 38.14086914 C75 40 75 40 75 43 C73.02 43 71.04 43 69 43 C67.35 39.04 65.7 35.08 64 31 C58.72 31 53.44 31 48 31 C46.35 34.96 44.7 38.92 43 43 C41.02 43 39.04 43 37 43 C36.67 32.77 36.34 22.54 36 12 C33.54638549 18.4603223 33.54638549 18.4603223 31.09472656 24.92138672 C28.7926507 30.97346639 26.4250398 36.99614979 24 43 C22.35 43 20.7 43 19 43 C15.48812054 36.36287001 12.83653009 29.54228489 10.25 22.5 C8.8475 18.705 7.445 14.91 6 11 C6 21.56 6 32.12 6 43 C4.02 43 2.04 43 0 43 C0 28.81 0 14.62 0 0 Z M56 9 C53.74138003 13.93387858 51.59890486 18.80355921 50 24 C53.96 24 57.92 24 62 24 C60.35 19.05 58.7 14.1 57 9 C56.67 9 56.34 9 56 9 Z " fill="#D92B6E" transform="translate(352,163)"/>
<path d="M0 0 C0 5.94 0 11.88 0 18 C7.26 18 14.52 18 22 18 C22 12.06 22 6.12 22 0 C23.65 0 25.3 0 27 0 C27 14.19 27 28.38 27 43 C25.35 43 23.7 43 22 43 C22 36.4 22 29.8 22 23 C14.74 23 7.48 23 0 23 C0 29.6 0 36.2 0 43 C-3.52166873 43.10845173 -7.03996233 43.18753575 -10.5625 43.25 C-11.55314453 43.28351563 -12.54378906 43.31703125 -13.56445312 43.3515625 C-19.97939939 43.43681096 -23.80167268 42.84856191 -29 39 C-34.87986018 31.57280819 -34.60536136 24.20354468 -34 15 C-33.23570517 11.80684183 -32.38822265 8.38822265 -30 6 C-33.3 5.67 -36.6 5.34 -40 5 C-40 17.54 -40 30.08 -40 43 C-41.98 43 -43.96 43 -46 43 C-46 30.46 -46 17.92 -46 5 C-50.29 5 -54.58 5 -59 5 C-59 3.35 -59 1.7 -59 0 C-48.11 0 -37.22 0 -26 0 C-26 0.66 -26 1.32 -26 2 C-24.88625 1.505 -23.7725 1.01 -22.625 0.5 C-15.10043904 -2.31838679 -7.8344518 -0.97930647 0 0 Z M-24 8 C-28.03644371 13.62218946 -28.6399749 19.23455101 -28 26 C-26.7933195 30.54279719 -24.66692564 34.02062291 -21 37 C-18.05173237 37.98275588 -16.07347496 38.13414725 -13 38.125 C-11.700625 38.12886719 -11.700625 38.12886719 -10.375 38.1328125 C-7.84988305 38.09594205 -7.84988305 38.09594205 -5 37 C-5 26.77 -5 16.54 -5 6 C-11.07304198 3.97565267 -19.02524152 3.49162513 -24 8 Z " fill="#D32969" transform="translate(475,163)"/>
<path d="M0 0 C4.29 0 8.58 0 13 0 C13 2.97 13 5.94 13 9 C15.31 9 17.62 9 20 9 C20 6.03 20 3.06 20 0 C24.62 0 29.24 0 34 0 C34 3.96 34 7.92 34 12 C36.31 12 38.62 12 41 12 C41 12.66 41 13.32 41 14 C41.66 14 42.32 14 43 14 C43.125 16.875 43.125 16.875 43 20 C41 22 41 22 39.0546875 22.1953125 C37.03645833 22.13020833 35.01822917 22.06510417 33 22 C33 25.96 33 29.92 33 34 C29.04 34 25.08 34 21 34 C21.20625 35.093125 21.4125 36.18625 21.625 37.3125 C22 41 22 41 20 44 C16.87393202 44.39907251 14.85488793 44.46880951 12.0625 42.9375 C10.38323093 39.87530347 11.31378875 37.30629059 12 34 C8.04 34 4.08 34 0 34 C0 29.71 0 25.42 0 21 C1.98 21 3.96 21 6 21 C6.66 20.67 7.32 20.34 8 20 C8 18.35 8 16.7 8 15 C5.23735711 14.40267181 2.83967231 14 0 14 C0 9.38 0 4.76 0 0 Z " fill="#E31A67" transform="translate(267,228)"/>
<path d="M0 0 C2.0625 0.4375 2.0625 0.4375 4 1 C4.05420701 3.56278699 4.09377007 6.12441483 4.125 8.6875 C4.14175781 9.40873047 4.15851563 10.12996094 4.17578125 10.87304688 C4.21450971 15.11381376 3.69900857 18.14713017 2 22 C1.47769121 28.06095822 3.39724543 32.38664609 6.94140625 37.17578125 C15.11388964 44.41781113 24.29954488 43.58807899 34.5625 43.53125 C36.28068257 43.53394848 37.99886364 43.53783386 39.71704102 43.54284668 C43.30792869 43.54872502 46.8984168 43.54023286 50.48925781 43.52148438 C55.0757071 43.49869558 59.6612199 43.51182765 64.24763489 43.53577423 C67.79259201 43.5502775 71.33732971 43.54560557 74.8822937 43.53526306 C76.5726635 43.53260826 78.26305369 43.53582133 79.95339966 43.54518127 C92.09222367 43.77958529 92.09222367 43.77958529 103 39 C107.55929123 34.32072742 109.25802892 29.81515481 109.23046875 23.33203125 C109.22853516 22.27435547 109.22660156 21.21667969 109.22460938 20.12695312 C109.21236328 19.03318359 109.20011719 17.93941406 109.1875 16.8125 C109.18685547 15.70712891 109.18621094 14.60175781 109.18554688 13.46289062 C109.40680287 8.06131069 109.40680287 8.06131069 108 3 C108.66 2.01 109.32 1.02 110 0 C111.98 0.99 111.98 0.99 114 2 C113.67 2.99 113.34 3.98 113 5 C112.90805183 6.88636303 112.86835826 8.77548122 112.859375 10.6640625 C112.84003906 11.78683594 112.82070313 12.90960938 112.80078125 14.06640625 C112.76726394 16.41519618 112.74872424 18.76425366 112.74609375 21.11328125 C112.58756741 28.43052348 111.75164379 34.20996976 107 40 C101.05732066 44.71254196 95.97729826 46.14904574 88.44262695 46.17700195 C87.67475357 46.18357315 86.90688019 46.19014435 86.11573792 46.19691467 C83.57325133 46.21663173 81.03082385 46.22830817 78.48828125 46.23828125 C77.61841269 46.24235678 76.74854412 46.2464323 75.8523159 46.25063133 C71.24602878 46.27148767 66.63977139 46.28578993 62.03344727 46.29516602 C57.28666218 46.30621519 52.54034784 46.34059894 47.79372883 46.38033772 C44.13473163 46.40654641 40.47584573 46.41486173 36.81676292 46.41844749 C35.0677492 46.42330434 33.31874014 46.43489254 31.5698185 46.45348549 C29.1142874 46.47796284 26.6599627 46.47689646 24.2043457 46.4699707 C23.48976196 46.48278076 22.77517822 46.49559082 22.03894043 46.50878906 C15.69195606 46.44395723 10.63754493 44.22207325 5.79296875 40.140625 C1.95446967 35.62034871 -0.27361962 31.68690009 -2 26 C-2.99 26.66 -3.98 27.32 -5 28 C-6.99320984 28.24050903 -6.99320984 28.24050903 -9.2878418 28.22705078 C-10.57884041 28.22682419 -10.57884041 28.22682419 -11.8959198 28.22659302 C-12.82100845 28.21627045 -13.74609711 28.20594788 -14.69921875 28.1953125 C-15.64940384 28.1924826 -16.59958893 28.18965271 -17.5785675 28.18673706 C-20.61500615 28.17553715 -23.65115042 28.15043288 -26.6875 28.125 C-28.74543845 28.11496996 -30.80338152 28.10584415 -32.86132812 28.09765625 C-37.9076656 28.07559842 -42.95378288 28.04106982 -48 28 C-48.33 29.32 -48.66 30.64 -49 32 C-54.75 33.125 -54.75 33.125 -57 32 C-57 35.96 -57 39.92 -57 44 C-61.62 44 -66.24 44 -71 44 C-71 41.69 -71 39.38 -71 37 C-72.12534105 35.64381501 -72.12534105 35.64381501 -75.0625 35.9375 C-76.031875 35.958125 -77.00125 35.97875 -78 36 C-78 35.01 -78 34.02 -78 33 C-77.06027344 33.14308594 -77.06027344 33.14308594 -76.1015625 33.2890625 C-75.28429687 33.39992187 -74.46703125 33.51078125 -73.625 33.625 C-72.81289063 33.74101562 -72.00078125 33.85703125 -71.1640625 33.9765625 C-70.44992187 33.98429687 -69.73578125 33.99203125 -69 34 C-68.34 33.34 -67.68 32.68 -67 32 C-65.7922442 35.62326739 -66.45688872 36.64146369 -68 40 C-65.03 40.33 -62.06 40.66 -59 41 C-58.67 37.37 -58.34 33.74 -58 30 C-55.69 30.33 -53.38 30.66 -51 31 C-50.01 27.535 -50.01 27.535 -49 24 C-48.67 24.66 -48.34 25.32 -48 26 C-42.09137952 25.93114471 -36.18346816 25.84318803 -30.27539062 25.73754883 C-28.26570501 25.70430274 -26.25592609 25.67626981 -24.24609375 25.65356445 C-21.35636653 25.62001278 -18.46749407 25.56769663 -15.578125 25.51171875 C-14.68007141 25.50532883 -13.78201782 25.4989389 -12.85675049 25.49235535 C-9.30076495 25.40861718 -6.67025778 25.32136872 -3.43725586 23.77124023 C-1.56689273 21.46624881 -1.47597614 20.10078426 -1.42578125 17.1484375 C-1.39806641 16.21515625 -1.37035156 15.281875 -1.34179688 14.3203125 C-1.33212891 13.34835938 -1.32246094 12.37640625 -1.3125 11.375 C-1.27060366 9.44522918 -1.22522371 7.51552973 -1.17578125 5.5859375 C-1.16458252 4.7304834 -1.15338379 3.8750293 -1.1418457 2.99365234 C-1 1 -1 1 0 0 Z M1 2 C1 6.95 1 11.9 1 17 C1.33 17 1.66 17 2 17 C2 12.05 2 7.1 2 2 C1.67 2 1.34 2 1 2 Z " fill="#81B24A" transform="translate(391,218)"/>
<path d="M0 0 C17.82 0 35.64 0 54 0 C54 0.66 54 1.32 54 2 C44.1 2.495 44.1 2.495 34 3 C34 3.66 34 4.32 34 5 C24.76 5 15.52 5 6 5 C6 9.29 6 13.58 6 18 C11.94 18 17.88 18 24 18 C24 19.65 24 21.3 24 23 C18.06 23 12.12 23 6 23 C6 27.95 6 32.9 6 38 C12.27 38 18.54 38 25 38 C25 39.65 25 41.3 25 43 C16.75 43 8.5 43 0 43 C0.0625 30.6875 0.0625 30.6875 0.09008789 26.81518555 C0.09258545 25.8075415 0.09508301 24.79989746 0.09765625 23.76171875 C0.10289307 22.73006592 0.10812988 21.69841309 0.11352539 20.63549805 C0.11635 17.89053726 0.11635 17.89053726 -1 15 C-0.34 15 0.32 15 1 15 C0.34 14.01 -0.32 13.02 -1 12 C-1.23046875 9.58984375 -1.23046875 9.58984375 -1.1875 6.9375 C-1.18105469 6.05964844 -1.17460937 5.18179688 -1.16796875 4.27734375 C-1 2 -1 2 0 0 Z " fill="#DA2067" transform="translate(230,163)"/>
<path d="M0 0 C1.65 0 3.3 0 5 0 C5 14.19 5 28.38 5 43 C3.35 43 1.7 43 0 43 C0 36.4 0 29.8 0 23 C-7.59 23 -15.18 23 -23 23 C-23 26.3 -23 29.6 -23 33 C-23.22491746 36.02835299 -23.61108733 38.98592677 -24 42 C-27.63 42 -31.26 42 -35 42 C-34.67 41.01 -34.34 40.02 -34 39 C-30.535 38.505 -30.535 38.505 -27 38 C-26.97527641 33.49764405 -26.95712881 28.99532764 -26.94506836 24.49291992 C-26.9400404 22.9613374 -26.93321716 21.42975967 -26.92456055 19.89819336 C-26.91242771 17.69643978 -26.90675633 15.49474967 -26.90234375 13.29296875 C-26.89718246 12.60849167 -26.89202118 11.92401459 -26.88670349 11.21879578 C-26.8863464 8.19093758 -27.03383381 5.89849858 -28 3 C-26.68 2.67 -25.36 2.34 -24 2 C-21.83463826 6.33072349 -22.32272751 12.29739913 -22 17 C-14.74 17.33 -7.48 17.66 0 18 C0 12.06 0 6.12 0 0 Z " fill="#D62065" transform="translate(497,163)"/>
<path d="M0 0 C0.66 0 1.32 0 2 0 C2.00410889 0.73524902 2.00821777 1.47049805 2.01245117 2.22802734 C2.04567093 5.61112729 2.11634695 8.99249354 2.1875 12.375 C2.19330078 13.53128906 2.19910156 14.68757812 2.20507812 15.87890625 C2.41334014 24.07054555 3.56232224 31.78160294 9.76879883 37.68139648 C15.25633343 41.76438783 19.77620062 42.15200169 26.37109375 42.16113281 C27.22502716 42.16609772 28.07896057 42.17106262 28.95877075 42.17617798 C31.785022 42.19078991 34.61121718 42.19759885 37.4375 42.203125 C39.39900718 42.20887582 41.36051434 42.21463357 43.32202148 42.22039795 C47.43441022 42.23090419 51.54677942 42.2367498 55.65917969 42.24023438 C60.93547122 42.24572818 66.21150587 42.26977668 71.48771667 42.29820633 C75.5385413 42.31680107 79.58930353 42.32203654 83.64016724 42.32357025 C85.58588063 42.32660284 87.53159277 42.33465167 89.4772644 42.34775543 C92.19467949 42.36475514 94.91146 42.36295106 97.62890625 42.35644531 C98.43627228 42.3656601 99.24363831 42.37487488 100.07546997 42.3843689 C104.25151018 42.38453006 104.25151018 42.38453006 107.96850586 40.69256592 C109.22616352 38.81531652 109.22616352 38.81531652 109.875 35.5625 C111.25660159 31.18742829 112.03460367 30.2815321 116 28 C119.92374681 27.35381353 123.82235546 27.3233761 127.79296875 27.28515625 C128.935345 27.26150497 130.07772125 27.2378537 131.25471497 27.21348572 C133.6643616 27.1682802 136.07420635 27.13274042 138.48413086 27.10620117 C142.18503902 27.06252904 145.88382543 26.9817347 149.58398438 26.89648438 C151.92444305 26.85716332 154.26493883 26.81997993 156.60546875 26.78515625 C158.27261177 26.74794212 158.27261177 26.74794212 159.97343445 26.7099762 C160.99822403 26.70263962 162.02301361 26.69530304 163.07885742 26.68774414 C163.98310959 26.67538223 164.88736176 26.66302032 165.8190155 26.65028381 C166.53874039 26.76569016 167.25846527 26.8810965 168 27 C168.99 28.485 168.99 28.485 170 30 C167.525 30.99 167.525 30.99 165 32 C165 31.34 165 30.68 165 30 C158.37946382 30.09231915 151.75929253 30.19963152 145.13916016 30.31738281 C142.88693764 30.35567157 140.634654 30.39052461 138.38232422 30.421875 C135.14528553 30.46752737 131.90866764 30.52552215 128.671875 30.5859375 C127.16074127 30.60326431 127.16074127 30.60326431 125.61907959 30.62094116 C124.20806976 30.6507457 124.20806976 30.6507457 122.76855469 30.68115234 C121.52945343 30.70113785 121.52945343 30.70113785 120.26531982 30.7215271 C117.75898881 31.0296272 116.13149491 31.6578505 114 33 C112.9834809 35.06621384 112.9834809 35.06621384 112.4375 37.4375 C111.53228711 40.85032128 110.74884072 42.73878366 108 45 C105.04471996 45.30676588 102.29856373 45.43027809 99.34106445 45.41992188 C98.45614822 45.42839142 97.57123199 45.43686096 96.65950012 45.44558716 C93.72728176 45.46902841 90.79558633 45.46997725 87.86328125 45.46875 C85.82406911 45.47584986 83.78485897 45.4835486 81.74565125 45.49182129 C77.46587581 45.50528433 73.18628485 45.50682782 68.90649414 45.50097656 C63.43315695 45.4950942 57.960711 45.52560307 52.48754597 45.56609344 C48.27263149 45.5920063 44.05793015 45.5948443 39.84294701 45.59120178 C37.82599851 45.59289124 35.80903998 45.60251697 33.79216957 45.62034607 C30.96281982 45.64259482 28.13525425 45.63280231 25.3059082 45.61523438 C24.4791156 45.62849762 23.652323 45.64176086 22.80047607 45.65542603 C15.75251448 45.55424411 11.19922181 42.80395116 5.9765625 38.2265625 C5.53054687 37.69804687 5.08453125 37.16953125 4.625 36.625 C4.16351563 36.10164063 3.70203125 35.57828125 3.2265625 35.0390625 C-0.96373968 28.07301875 -0.23649229 20.42270663 -0.125 12.5625 C-0.11597656 11.35400391 -0.10695313 10.14550781 -0.09765625 8.90039062 C-0.07420168 5.93338722 -0.04137794 2.96679857 0 0 Z " fill="#83A65B" transform="translate(98,216)"/>
<path d="M0 0 C0.33 0 0.66 0 1 0 C1.22786458 1.98567708 1.45572917 3.97135417 1.68359375 5.95703125 C1.97170735 8.19396393 1.97170735 8.19396393 3 11 C2.34 11 1.68 11 1 11 C1.99 12.485 1.99 12.485 3 14 C3.22705078 15.99291992 3.22705078 15.99291992 3.1953125 18.23046875 C3.18886719 19.03291016 3.18242187 19.83535156 3.17578125 20.66210938 C3.15902344 21.49548828 3.14226562 22.32886719 3.125 23.1875 C3.11597656 24.03248047 3.10695312 24.87746094 3.09765625 25.74804688 C3.07410703 27.83215243 3.03823647 29.91611217 3 32 C2.67 32 2.34 32 2 32 C1.67 27.38 1.34 22.76 1 18 C0.50628906 19.43214844 0.01257813 20.86429688 -0.49609375 22.33984375 C-1.14307731 24.20578183 -1.79022098 26.07166439 -2.4375 27.9375 C-2.76298828 28.88302734 -3.08847656 29.82855469 -3.42382812 30.80273438 C-3.73642578 31.70185547 -4.04902344 32.60097656 -4.37109375 33.52734375 C-4.65911865 34.35999756 -4.94714355 35.19265137 -5.24389648 36.05053711 C-6 38 -6 38 -7 39 C-8.98 39 -10.96 39 -13 39 C-15.31 32.73 -17.62 26.46 -20 20 C-20.33 21.65 -20.66 23.3 -21 25 C-21.33 25 -21.66 25 -22 25 C-22 21.7 -22 18.4 -22 15 C-21.01 14.67 -20.02 14.34 -19 14 C-18.79503906 14.71027344 -18.59007812 15.42054688 -18.37890625 16.15234375 C-18.10949219 17.07144531 -17.84007812 17.99054688 -17.5625 18.9375 C-17.16224609 20.31228516 -17.16224609 20.31228516 -16.75390625 21.71484375 C-16.20973949 23.9402493 -16.20973949 23.9402493 -15 25 C-14.95936168 26.66617115 -14.957279 28.33388095 -15 30 C-14.34 30 -13.68 30 -13 30 C-13.42880217 26.42664862 -13.92424773 23.21463142 -15.125 19.8125 C-16 17 -16 17 -15 13 C-13.35 17.95 -11.7 22.9 -10 28 C-6.36157554 18.74800636 -3.07210952 9.45163907 0 0 Z " fill="#DA407B" transform="translate(228,167)"/>
<path d="M0 0 C1.98 0 3.96 0 6 0 C8.64 6.6 11.28 13.2 14 20 C13.34 20.33 12.68 20.66 12 21 C11.34 20.67 10.68 20.34 10 20 C10 21.32 10 22.64 10 24 C10.99 23.67 11.98 23.34 13 23 C13.33 23.99 13.66 24.98 14 26 C8.39 25.67 2.78 25.34 -3 25 C-3.33 25.99 -3.66 26.98 -4 28 C-5.43088528 25.13822943 -4.59991697 23.06624227 -4 20 C-4.66 20 -5.32 20 -6 20 C-5.67 20.99 -5.34 21.98 -5 23 C-7.05233685 25.2477975 -8.00667261 26.0022242 -11 27 C-11 22.05 -11 17.1 -11 12 C-10.67 12 -10.34 12 -10 12 C-9.67 15.3 -9.34 18.6 -9 22 C-6.03 14.74 -3.06 7.48 0 0 Z M3 9 C0.74138003 13.93387858 -1.40109514 18.80355921 -3 24 C0.96 24 4.92 24 9 24 C7.35 19.05 5.7 14.1 4 9 C3.67 9 3.34 9 3 9 Z " fill="#DC3475" transform="translate(405,163)"/>
<path d="M0 0 C1.98 0 3.96 0 6 0 C6 14.19 6 28.38 6 43 C3.69 43 1.38 43 -1 43 C-1.33 40.69 -1.66 38.38 -2 36 C-0.68 36 0.64 36 2 36 C1.67402832 35.15743652 1.34805664 34.31487305 1.01220703 33.44677734 C-0.08043486 29.72610242 -0.22839322 26.72200648 -0.1953125 22.8515625 C-0.1924826 22.19417084 -0.18965271 21.53677917 -0.18673706 20.85946655 C-0.17563447 18.78111767 -0.15054986 16.70321634 -0.125 14.625 C-0.11495731 13.20703752 -0.10583373 11.78906821 -0.09765625 10.37109375 C-0.07572805 6.91391963 -0.04126818 3.45700358 0 0 Z " fill="#D61D63" transform="translate(342,163)"/>
<path d="M0 0 C3.0625 -0.6875 3.0625 -0.6875 7 0 C9.8656645 3.33470824 11.83633802 7.18695115 14 11 C15.35757964 13.0740079 16.73256611 15.13672963 18.125 17.1875 C21.17547296 21.73947035 24.12827889 26.33345319 27 31 C27.66 30.67 28.32 30.34 29 30 C29.33 31.98 29.66 33.96 30 36 C28.68 36 27.36 36 26 36 C26.66 37.98 27.32 39.96 28 42 C23.72254081 40.57418027 22.50924197 37.38862886 20.3125 33.6875 C16.5925442 27.49033793 16.5925442 27.49033793 12.53125 21.515625 C11.7990625 20.49984375 11.066875 19.4840625 10.3125 18.4375 C9.31669922 17.10525391 9.31669922 17.10525391 8.30078125 15.74609375 C6.58807066 12.1303714 7.25654712 9.8614492 8 6 C7.67 5.01 7.34 4.02 7 3 C4.03 2.505 4.03 2.505 1 2 C1 4.64 1 7.28 1 10 C0.01 10 -0.98 10 -2 10 C-1.34 6.7 -0.68 3.4 0 0 Z " fill="#D43370" transform="translate(314,163)"/>
<path d="M0 0 C0.99 0 1.98 0 3 0 C3.0246985 3.95099928 3.04285923 7.90196874 3.05493164 11.85302734 C3.06244036 13.85906551 3.0751447 15.86508202 3.08789062 17.87109375 C3.09111328 19.12792969 3.09433594 20.38476562 3.09765625 21.6796875 C3.10289307 22.84226074 3.10812988 24.00483398 3.11352539 25.20263672 C3 28 3 28 2 30 C1.34 30 0.68 30 0 30 C0 30.99 0 31.98 0 33 C-1.95703125 32.421875 -1.95703125 32.421875 -4 31 C-4.57421875 27.953125 -4.57421875 27.953125 -4.6875 24.25 C-4.82129105 20.65675469 -4.95914935 17.23698972 -5.5703125 13.69140625 C-6.0582187 10.63533922 -5.76028678 9.50146017 -4 7 C-3.34 6.67 -2.68 6.34 -2 6 C-1.27306096 4.02111039 -0.60183749 2.02045442 0 0 Z " fill="#E11C67" transform="translate(175,164)"/>
<path d="M0 0 C0.33 0.66 0.66 1.32 1 2 C13.87 2 26.74 2 40 2 C40 2.66 40 3.32 40 4 C27.13 4 14.26 4 1 4 C0.67 5.32 0.34 6.64 0 8 C-5.75 9.125 -5.75 9.125 -8 8 C-8 11.96 -8 15.92 -8 20 C-12.62 20 -17.24 20 -22 20 C-22 17.69 -22 15.38 -22 13 C-23.12534105 11.64381501 -23.12534105 11.64381501 -26.0625 11.9375 C-27.031875 11.958125 -28.00125 11.97875 -29 12 C-29 11.01 -29 10.02 -29 9 C-28.06027344 9.14308594 -28.06027344 9.14308594 -27.1015625 9.2890625 C-25.87566406 9.45535156 -25.87566406 9.45535156 -24.625 9.625 C-23.81289063 9.74101562 -23.00078125 9.85703125 -22.1640625 9.9765625 C-21.44992187 9.98429688 -20.73578125 9.99203125 -20 10 C-19.34 9.34 -18.68 8.68 -18 8 C-16.7922442 11.62326739 -17.45688872 12.64146369 -19 16 C-16.03 16.33 -13.06 16.66 -10 17 C-9.67 13.37 -9.34 9.74 -9 6 C-6.69 6.33 -4.38 6.66 -2 7 C-1.34 4.69 -0.68 2.38 0 0 Z " fill="#7AB742" transform="translate(342,242)"/>
<path d="M0 0 C0.99 0.99 1.98 1.98 3 3 C3.99 3.66 4.98 4.32 6 5 C6.19548119 7.70297348 6.20734463 10.16015527 6.07421875 12.8515625 C6.04777786 13.62559418 6.02133698 14.39962585 5.99409485 15.19711304 C5.90619217 17.67384806 5.79709593 20.14913915 5.6875 22.625 C5.62425548 24.30203128 5.56238894 25.97911515 5.50195312 27.65625 C5.35062967 31.77161428 5.18029195 35.88580712 5 40 C6.32 40 7.64 40 9 40 C9.33 38.02 9.66 36.04 10 34 C10.66 34 11.32 34 12 34 C11.34 36.31 10.68 38.62 10 41 C8.02 41 6.04 41 4 41 C3.67 30.77 3.34 20.54 3 10 C0.36 16.93 -2.28 23.86 -5 31 C-5.33 31 -5.66 31 -6 31 C-6.19622241 26.78121808 -5.80230168 23.82989106 -4 20 C-4.66 20 -5.32 20 -6 20 C-6.33 21.65 -6.66 23.3 -7 25 C-7.66 24.67 -8.32 24.34 -9 24 C-6.03 16.08 -3.06 8.16 0 0 Z " fill="#CC3772" transform="translate(385,165)"/>
<path d="M0 0 C17.82 0 35.64 0 54 0 C54 0.66 54 1.32 54 2 C44.1 2.495 44.1 2.495 34 3 C34 3.66 34 4.32 34 5 C24.76 5 15.52 5 6 5 C6 4.67 6 4.34 6 4 C7.65 3.67 9.3 3.34 11 3 C7.7 2.67 4.4 2.34 1 2 C0.67 2.99 0.34 3.98 0 5 C-0.33 4.01 -0.66 3.02 -1 2 C-0.67 1.34 -0.34 0.68 0 0 Z " fill="#CE2363" transform="translate(230,163)"/>
<path d="M0 0 C1.32 0.66 2.64 1.32 4 2 C4 4.31 4 6.62 4 9 C4.66 9 5.32 9 6 9 C9.12896926 12.91121158 9.75946609 17.08244804 10.5703125 21.890625 C10.79334973 23.97726162 10.79334973 23.97726162 12 25 C12.04092937 27.33297433 12.04241723 29.66705225 12 32 C11.34 32 10.68 32 10 32 C9.80664062 31.33613281 9.61328125 30.67226562 9.4140625 29.98828125 C7.47248648 23.40210691 7.47248648 23.40210691 5 17 C4.34 17.33 3.68 17.66 3 18 C2.5316735 20.58605332 2.5316735 20.58605332 2.375 23.5625 C2.30023438 24.57441406 2.22546875 25.58632812 2.1484375 26.62890625 C2.09945312 27.41136719 2.05046875 28.19382813 2 29 C1.01 29 0.02 29 -1 29 C-1.02911003 25.10418244 -1.04683587 21.208393 -1.0625 17.3125 C-1.07087891 16.20970703 -1.07925781 15.10691406 -1.08789062 13.97070312 C-1.09111328 12.90400391 -1.09433594 11.83730469 -1.09765625 10.73828125 C-1.10289307 9.75899658 -1.10812988 8.77971191 -1.11352539 7.77075195 C-1.00308543 5.07530428 -0.60534166 2.62454361 0 0 Z " fill="#E21A67" transform="translate(203,165)"/>
<path d="M0 0 C1.55859375 1.16796875 1.55859375 1.16796875 3.55859375 4.16796875 C1.57859375 5.15796875 1.57859375 5.15796875 -0.44140625 6.16796875 C0.54859375 7.65296875 0.54859375 7.65296875 1.55859375 9.16796875 C1.68359375 11.85546875 1.68359375 11.85546875 1.55859375 14.16796875 C1.31109375 13.61109375 1.06359375 13.05421875 0.80859375 12.48046875 C-1.00380399 9.12753294 -2.97255117 5.90239629 -6.44140625 4.16796875 C-11.60532082 3.65326485 -16.68308405 3.15078006 -21.12890625 6.16796875 C-21.89203125 6.82796875 -22.65515625 7.48796875 -23.44140625 8.16796875 C-23.44140625 5.16796875 -23.44140625 2.16796875 -23.44140625 -0.83203125 C-15.60151243 -4.22225561 -7.4731401 -4.05507186 0 0 Z " fill="#D1326E" transform="translate(308.44140625,164.83203125)"/>
<path d="M0 0 C0.66 0 1.32 0 2 0 C2.391875 0.928125 2.78375 1.85625 3.1875 2.8125 C5.247471 6.43520761 6.20377992 7.3845872 10 9 C13.31256352 9.8078184 16.63650373 10.44485984 20 11 C20 11.33 20 11.66 20 12 C16.37 12 12.74 12 9 12 C9 11.34 9 10.68 9 10 C7.02463255 10.34786708 7.02463255 10.34786708 5 11 C4.67 11.66 4.34 12.32 4 13 C3.01 13.495 3.01 13.495 2 14 C2 14.33 2 14.66 2 15 C-1.1875 15.5 -1.1875 15.5 -5 15 C-7.95067001 11.79534827 -9.63369882 8.09890353 -11 4 C-10.34 4 -9.68 4 -9 4 C-8.67 4.66 -8.34 5.32 -8 6 C-7.01 5.67 -6.02 5.34 -5 5 C-5.33 4.01 -5.66 3.02 -6 2 C-5.01 1.67 -4.02 1.34 -3 1 C-2.67 1.66 -2.34 2.32 -2 3 C-1.34 2.01 -0.68 1.02 0 0 Z " fill="#D8437D" transform="translate(142,191)"/>
<path d="M0 0 C2 0 4 0 6 0 C7.42861738 8.73043952 6.65454448 17.22910399 6 26 C7.32 26.33 8.64 26.66 10 27 C10 29.31 10 31.62 10 34 C9.34 34 8.68 34 8 34 C7.67 35.98 7.34 37.96 7 40 C5.68 40 4.36 40 3 40 C3 28.45 3 16.9 3 5 C1.68 4.34 0.36 3.68 -1 3 C-0.67 2.01 -0.34 1.02 0 0 Z " fill="#E11B66" transform="translate(387,165)"/>
<path d="M0 0 C0.99 0 1.98 0 3 0 C4.84087181 3.68174362 4.46968405 8.06824181 4.71875 12.12890625 C4.68299798 14.89459821 4.68299798 14.89459821 6 16 C6.04063832 17.66617115 6.042721 19.33388095 6 21 C5.34 21 4.68 21 4 21 C4.01160156 21.61746094 4.02320313 22.23492187 4.03515625 22.87109375 C4.09699663 28.67525544 3.74278956 34.24338088 3 40 C-0.63 40 -4.26 40 -8 40 C-7.67 39.01 -7.34 38.02 -7 37 C-3.535 36.505 -3.535 36.505 0 36 C0.02472359 31.49764405 0.04287119 26.99532764 0.05493164 22.49291992 C0.0599596 20.9613374 0.06678284 19.42975967 0.07543945 17.89819336 C0.08757229 15.69643978 0.09324367 13.49474967 0.09765625 11.29296875 C0.10281754 10.60849167 0.10797882 9.92401459 0.11329651 9.21879578 C0.1136536 6.19093758 -0.03383381 3.89849858 -1 1 C-0.67 0.67 -0.34 0.34 0 0 Z " fill="#E31A65" transform="translate(470,165)"/>
<path d="M0 0 C1.98 0 3.96 0 6 0 C6.53012738 1.28788008 7.0488329 2.58046678 7.5625 3.875 C7.99755859 4.95394531 7.99755859 4.95394531 8.44140625 6.0546875 C9 8 9 8 8 10 C7.34 10 6.68 10 6 10 C5.34 10.66 4.68 11.32 4 12 C3.67 11.34 3.34 10.68 3 10 C1.68 13.3 0.36 16.6 -1 20 C-1.99 19.67 -2.98 19.34 -4 19 C-6.12899756 11.79416211 -3.10678152 6.54681642 0 0 Z " fill="#D63E7A" transform="translate(405,163)"/>
<path d="M0 0 C1.32 0.66 2.64 1.32 4 2 C3.67 2.99 3.34 3.98 3 5 C2.90805183 6.88636303 2.86835826 8.77548122 2.859375 10.6640625 C2.84003906 11.78683594 2.82070313 12.90960938 2.80078125 14.06640625 C2.76726394 16.41519618 2.74872424 18.76425366 2.74609375 21.11328125 C2.58723781 28.44573682 1.73248889 34.18502956 -3 40 C-6.93961543 43.22439324 -10.83727001 45.51599406 -16 46 C-16.33 45.34 -16.66 44.68 -17 44 C-16.32453125 43.69707031 -15.6490625 43.39414062 -14.953125 43.08203125 C-8.87621609 40.22799166 -4.85951006 37.9659173 -1.9206543 31.69799805 C-0.91145049 28.74050369 -0.75627749 26.44978241 -0.76953125 23.33203125 C-0.77243164 21.74551758 -0.77243164 21.74551758 -0.77539062 20.12695312 C-0.78763672 19.03318359 -0.79988281 17.93941406 -0.8125 16.8125 C-0.8134668 15.15444336 -0.8134668 15.15444336 -0.81445312 13.46289062 C-0.59319713 8.06131069 -0.59319713 8.06131069 -2 3 C-1.34 2.01 -0.68 1.02 0 0 Z " fill="#9DBD76" transform="translate(501,218)"/>
<path d="M0 0 C0 0.99 0 1.98 0 3 C-1.32 3.33 -2.64 3.66 -4 4 C-4 3.34 -4 2.68 -4 2 C-19.84 2 -35.68 2 -52 2 C-52 1.34 -52 0.68 -52 0 C-45.23747296 -0.16834474 -38.47478368 -0.32821289 -31.71191406 -0.48217773 C-29.41108661 -0.53556083 -27.1103034 -0.59088728 -24.80957031 -0.64819336 C-21.50335224 -0.73020697 -18.19703829 -0.80524013 -14.890625 -0.87890625 C-13.86132874 -0.90594131 -12.83203247 -0.93297638 -11.77154541 -0.96083069 C-10.81085144 -0.98092697 -9.85015747 -1.00102325 -8.86035156 -1.02172852 C-8.01651917 -1.04171402 -7.17268677 -1.06169952 -6.30328369 -1.08229065 C-4.05506619 -1.00196738 -2.15226226 -0.63270284 0 0 Z " fill="#7AAB4F" transform="translate(267,244)"/>
<path d="M0 0 C0.66 0 1.32 0 2 0 C2.00410889 0.73524902 2.00821777 1.47049805 2.01245117 2.22802734 C2.04567093 5.61112729 2.11634695 8.99249354 2.1875 12.375 C2.19330078 13.53128906 2.19910156 14.68757812 2.20507812 15.87890625 C2.41334014 24.07054555 3.56232224 31.78160294 9.76879883 37.68139648 C12.39591005 39.63609439 14.89431357 40.96477119 18 42 C18 42.99 18 43.98 18 45 C11.09820094 43.44709521 6.18257348 38.95703503 2.0625 33.375 C0.06824437 28.91725212 -0.12149178 24.66283117 -0.09765625 19.82421875 C-0.09443359 18.66728516 -0.09121094 17.51035156 -0.08789062 16.31835938 C-0.07951172 15.12017578 -0.07113281 13.92199219 -0.0625 12.6875 C-0.05798828 11.46998047 -0.05347656 10.25246094 -0.04882812 8.99804688 C-0.03706578 5.99864774 -0.02062826 2.99934911 0 0 Z " fill="#9EC473" transform="translate(98,216)"/>
<path d="M0 0 C0.33 0 0.66 0 1 0 C1 3.96 1 7.92 1 12 C6.94 12 12.88 12 19 12 C19 13.65 19 15.3 19 17 C13.06 17 7.12 17 1 17 C1.33 16.01 1.66 15.02 2 14 C1.34 14 0.68 14 0 14 C-1.03115279 10.73086376 -0.9638984 8.13958652 -0.5625 4.75 C-0.46066406 3.85796875 -0.35882813 2.9659375 -0.25390625 2.046875 C-0.17011719 1.37140625 -0.08632812 0.6959375 0 0 Z " fill="#CE2D6A" transform="translate(235,169)"/>
<path d="M0 0 C0.99 0 1.98 0 3 0 C3.81555938 3.16029261 4.02256094 6.01201366 3.9375 9.25 C3.86498242 14.04421782 4.77759861 18.38325189 6 23 C1.25 22.25 1.25 22.25 -1 20 C-1.24291992 18.04467773 -1.24291992 18.04467773 -1.23046875 15.68359375 C-1.22853516 14.83732422 -1.22660156 13.99105469 -1.22460938 13.11914062 C-1.21236328 12.23419922 -1.20011719 11.34925781 -1.1875 10.4375 C-1.18685547 9.54869141 -1.18621094 8.65988281 -1.18554688 7.74414062 C-1.14021097 1.14021097 -1.14021097 1.14021097 0 0 Z " fill="#E41965" transform="translate(444,175)"/>
<path d="M0 0 C0.66 0 1.32 0 2 0 C2 13.2 2 26.4 2 40 C1.34 39.67 0.68 39.34 0 39 C0.01160156 37.78441406 0.02320313 36.56882813 0.03515625 35.31640625 C0.04453278 33.73177236 0.05363313 32.14713682 0.0625 30.5625 C0.07087891 29.76005859 0.07925781 28.95761719 0.08789062 28.13085938 C0.0965143 26.08704779 0.0522815 24.04316098 0 22 C-0.33 21.67 -0.66 21.34 -1 21 C-1.09880797 19.52347336 -1.13079245 18.04232764 -1.1328125 16.5625 C-1.13410156 15.66789063 -1.13539063 14.77328125 -1.13671875 13.8515625 C-1.13091797 12.44003906 -1.13091797 12.44003906 -1.125 11 C-1.12886719 10.05898437 -1.13273437 9.11796875 -1.13671875 8.1484375 C-1.13542969 7.25382813 -1.13414062 6.35921875 -1.1328125 5.4375 C-1.13112061 4.19806641 -1.13112061 4.19806641 -1.12939453 2.93359375 C-1 1 -1 1 0 0 Z " fill="#E51965" transform="translate(499,165)"/>
<path d="M0 0 C0.66 0 1.32 0 2 0 C1.85433594 0.7115625 1.70867187 1.423125 1.55859375 2.15625 C0.83253529 5.85254764 0.21860482 9.56599471 -0.40234375 13.28125 C-1.00375674 16.01708947 -1.88881687 18.43358541 -3 21 C-4.65 21 -6.3 21 -8 21 C-8 18.36 -8 15.72 -8 13 C-7.34 12.67 -6.68 12.34 -6 12 C-5.505 10.845 -5.01 9.69 -4.5 8.5 C-3 5 -3 5 -1 4 C-0.34786708 1.97536745 -0.34786708 1.97536745 0 0 Z " fill="#DA2469" transform="translate(379,185)"/>
<path d="M0 0 C1.65 0 3.3 0 5 0 C5 14.19 5 28.38 5 43 C3.35 43 1.7 43 0 43 C0 37.06 0 31.12 0 25 C0.33 25 0.66 25 1 25 C1 30.61 1 36.22 1 42 C1.99 42 2.98 42 4 42 C4 28.8 4 15.6 4 2 C3.01 2.495 3.01 2.495 2 3 C1.68758629 5.54941373 1.48696579 8.00361513 1.375 10.5625 C1.33632813 11.27341797 1.29765625 11.98433594 1.2578125 12.71679688 C1.16328217 14.47742425 1.08054183 16.23867728 1 18 C0.67 18 0.34 18 0 18 C0 12.06 0 6.12 0 0 Z " fill="#C72661" transform="translate(497,163)"/>
<path d="M0 0 C1.96630396 2.94945594 3.25740853 5.73697474 4.625 9 C5.07101562 10.051875 5.51703125 11.10375 5.9765625 12.1875 C7 15 7 15 7 18 C5.02 18 3.04 18 1 18 C0.3291288 16.3767313 -0.33657029 14.75132422 -1 13.125 C-1.37125 12.22007812 -1.7425 11.31515625 -2.125 10.3828125 C-3 8 -3 8 -3 6 C-2.01 5.67 -1.02 5.34 0 5 C0 3.35 0 1.7 0 0 Z " fill="#CE3970" transform="translate(420,188)"/>
<path d="M0 0 C1.33320679 -0.02777514 2.66659713 -0.04673341 4 -0.0625 C4.7425 -0.07410156 5.485 -0.08570313 6.25 -0.09765625 C9.84969573 0.03017385 13.42585009 0.55323126 17 1 C17 6.61 17 12.22 17 18 C16.67 18 16.34 18 16 18 C15.67 13.05 15.34 8.1 15 3 C14.01 3.66 13.02 4.32 12 5 C12 5.66 12 6.32 12 7 C9.03 6.505 9.03 6.505 6 6 C6 5.34 6 4.68 6 4 C4.35 3.67 2.7 3.34 1 3 C0.67 2.01 0.34 1.02 0 0 Z " fill="#D42464" transform="translate(458,162)"/>
<path d="M0 0 C1.97909398 -0.02686553 3.95828971 -0.04633375 5.9375 -0.0625 C7.03964844 -0.07410156 8.14179688 -0.08570313 9.27734375 -0.09765625 C12 0 12 0 13 1 C13.23363881 2.84891946 13.41303635 4.70488031 13.5625 6.5625 C13.64628906 7.57441406 13.73007812 8.58632812 13.81640625 9.62890625 C13.87699219 10.41136719 13.93757813 11.19382813 14 12 C15.98 12 17.96 12 20 12 C20.33 12.99 20.66 13.98 21 15 C20.2575 15.144375 19.515 15.28875 18.75 15.4375 C17.8425 15.623125 16.935 15.80875 16 16 C15.2575 16.144375 14.515 16.28875 13.75 16.4375 C13.1725 16.623125 12.595 16.80875 12 17 C11.67 17.66 11.34 18.32 11 19 C10.34 19 9.68 19 9 19 C9.21462891 18.20335937 9.21462891 18.20335937 9.43359375 17.390625 C10.1120936 14.52688769 10.58893639 11.65452348 11.0625 8.75 C11.371875 6.8525 11.68125 4.955 12 3 C8.04 2.67 4.08 2.34 0 2 C0 1.34 0 0.68 0 0 Z " fill="#75C430" transform="translate(321,228)"/>
<path d="M0 0 C2.0625 0.4375 2.0625 0.4375 4 1 C5.60633173 5.01582932 4.52181826 8.08675304 3 12 C0.13043478 14 0.13043478 14 -2 14 C-1.67 10.7 -1.34 7.4 -1 4 C-4.3 3.67 -7.6 3.34 -11 3 C-11 2.67 -11 2.34 -11 2 C-10.28972656 1.93941406 -9.57945312 1.87882813 -8.84765625 1.81640625 C-7.46900391 1.69072266 -7.46900391 1.69072266 -6.0625 1.5625 C-5.14597656 1.48128906 -4.22945313 1.40007812 -3.28515625 1.31640625 C-1.03840268 1.23955024 -1.03840268 1.23955024 0 0 Z " fill="#DB2268" transform="translate(281,165)"/>
<path d="M0 0 C0.66 0 1.32 0 2 0 C2 3.96 2 7.92 2 12 C4.31 12 6.62 12 9 12 C9 12.66 9 13.32 9 14 C9.66 14 10.32 14 11 14 C11.125 16.875 11.125 16.875 11 20 C9 22 9 22 7.0546875 22.1953125 C5.03645833 22.13020833 3.01822917 22.06510417 1 22 C1 21.67 1 21.34 1 21 C4.465 20.505 4.465 20.505 8 20 C8.33 18.35 8.66 16.7 9 15 C6.03 15 3.06 15 0 15 C0 10.05 0 5.1 0 0 Z " fill="#BC5B54" transform="translate(299,228)"/>
<path d="M0 0 C0.66 0 1.32 0 2 0 C2.66 1.32 3.32 2.64 4 4 C5.32 4 6.64 4 8 4 C8.33 2.68 8.66 1.36 9 0 C10.25 6.625 10.25 6.625 8 10 C4.87393202 10.39907251 2.85488793 10.46880951 0.0625 8.9375 C-1.61676907 5.87530347 -0.68621125 3.30629059 0 0 Z " fill="#D92C6E" transform="translate(279,262)"/>
<path d="M0 0 C0.33 1.32 0.66 2.64 1 4 C1.99 3.67 2.98 3.34 4 3 C4.33 7.62 4.66 12.24 5 17 C4.01 17.66 3.02 18.32 2 19 C2 18.01 2 17.02 2 16 C1.34 16 0.68 16 0 16 C-1.125 9.25 -1.125 9.25 0 7 C-0.66 7 -1.32 7 -2 7 C-2 5.35 -2 3.7 -2 2 C-1.34 2 -0.68 2 0 2 C0 1.34 0 0.68 0 0 Z " fill="#DC206B" transform="translate(137,176)"/>
<path d="M0 0 C2.64 0 5.28 0 8 0 C8 0.66 8 1.32 8 2 C6.35 2.33 4.7 2.66 3 3 C2.67 5.64 2.34 8.28 2 11 C4.97 11 7.94 11 11 11 C10.34 9.68 9.68 8.36 9 7 C8.67 6.01 8.34 5.02 8 4 C9.65 4 11.3 4 13 4 C13.33 6.64 13.66 9.28 14 12 C9.38 12 4.76 12 0 12 C0 8.04 0 4.08 0 0 Z " fill="#8DB83C" transform="translate(300,250)"/>
<path d="M0 0 C0.33 0 0.66 0 1 0 C1.33 3.3 1.66 6.6 2 10 C3.32 7.03 4.64 4.06 6 1 C6.33 1 6.66 1 7 1 C7 2.98 7 4.96 7 7 C7.66 7 8.32 7 9 7 C8.67 8.65 8.34 10.3 8 12 C11.63 12 15.26 12 19 12 C19 12.33 19 12.66 19 13 C15.37 13 11.74 13 8 13 C7.67 13.99 7.34 14.98 7 16 C5.56911472 13.13822943 6.40008303 11.06624227 7 8 C6.34 8 5.68 8 5 8 C5.33 8.99 5.66 9.98 6 11 C3.94766315 13.2477975 2.99332739 14.0022242 0 15 C0 10.05 0 5.1 0 0 Z " fill="#D8457E" transform="translate(394,175)"/>
<path d="M0 0 C0.66 0 1.32 0 2 0 C2.29132813 0.66386719 2.58265625 1.32773438 2.8828125 2.01171875 C6.91115984 10.68913361 11.04296082 14.59632511 20 18 C20 18.66 20 19.32 20 20 C12.56847 19.29223524 7.88922607 15.53843774 3.2578125 9.94921875 C1.20782233 6.77237064 0.64959143 3.70267113 0 0 Z " fill="#9DBF72" transform="translate(390,244)"/>
<path d="M0 0 C4.47126798 0.51991488 7.18481165 1.71088699 11 4 C14.19395026 4.71401232 14.19395026 4.71401232 17 5 C17 5.33 17 5.66 17 6 C14.69 6 12.38 6 10 6 C9.67 7.32 9.34 8.64 9 10 C3.125 8.125 3.125 8.125 2 7 C1.95936168 5.33382885 1.957279 3.66611905 2 2 C1.34 2 0.68 2 0 2 C0 1.34 0 0.68 0 0 Z " fill="#DD3876" transform="translate(281,196)"/>
<path d="M0 0 C1.32 0.33 2.64 0.66 4 1 C4.38909985 2.45463481 4.76088029 3.91391207 5.125 5.375 C5.43824219 6.59316406 5.43824219 6.59316406 5.7578125 7.8359375 C5.83773438 8.55007812 5.91765625 9.26421875 6 10 C5.34 10.66 4.68 11.32 4 12 C3.34 11.67 2.68 11.34 2 11 C2 10.01 2 9.02 2 8 C-2.29 8 -6.58 8 -11 8 C-10.67 7.34 -10.34 6.68 -10 6 C-7.05859375 5.5859375 -7.05859375 5.5859375 -3.4375 5.375 C-2.23996094 5.30023438 -1.04242188 5.22546875 0.19140625 5.1484375 C1.58166016 5.07496094 1.58166016 5.07496094 3 5 C2.01 4.67 1.02 4.34 0 4 C0 2.68 0 1.36 0 0 Z " fill="#E31867" transform="translate(415,183)"/>
<path d="M0 0 C0 0.99 0 1.98 0 3 C1.65 3.33 3.3 3.66 5 4 C5 4.33 5 4.66 5 5 C3.98679687 5.16435547 3.98679687 5.16435547 2.953125 5.33203125 C1.61507813 5.56986328 1.61507813 5.56986328 0.25 5.8125 C-1.07257813 6.03873047 -1.07257813 6.03873047 -2.421875 6.26953125 C-5.1910911 7.05414248 -6.8259401 8.14595359 -9 10 C-9 7 -9 4 -9 1 C-3.375 -1.125 -3.375 -1.125 0 0 Z " fill="#DC3D7C" transform="translate(294,163)"/>
<path d="M0 0 C0.66 0 1.32 0 2 0 C2.99 2.31 3.98 4.62 5 7 C4.01 7.495 4.01 7.495 3 8 C3 7.34 3 6.68 3 6 C2.34 6 1.68 6 1 6 C1 5.34 1 4.68 1 4 C0.34 4 -0.32 4 -1 4 C-1.66 5.32 -2.32 6.64 -3 8 C-3.99 7.34 -4.98 6.68 -6 6 C-6 3 -6 3 -5 1 C-4.34 1 -3.68 1 -3 1 C-2.67 1.66 -2.34 2.32 -2 3 C-1.34 2.01 -0.68 1.02 0 0 Z M-11 4 C-9 4 -9 4 -7.5 5.125 C-5.55040585 7.56199269 -4.85962458 10.02437647 -4 13 C-4.99 13 -5.98 13 -7 13 C-8.32 10.03 -9.64 7.06 -11 4 Z " fill="#E0447F" transform="translate(142,191)"/>
<path d="M0 0 C1.13598633 0.00483398 1.13598633 0.00483398 2.29492188 0.00976562 C3.47344727 0.02233398 3.47344727 0.02233398 4.67578125 0.03515625 C5.47306641 0.03966797 6.27035156 0.04417969 7.09179688 0.04882812 C9.05732382 0.06059775 11.0228121 0.07853277 12.98828125 0.09765625 C12.98828125 1.08765625 12.98828125 2.07765625 12.98828125 3.09765625 C6.05828125 3.09765625 -0.87171875 3.09765625 -8.01171875 3.09765625 C-6.3127245 -0.30033224 -3.42071751 -0.02571968 0 0 Z " fill="#DF1C64" transform="translate(241.01171875,201.90234375)"/>
<path d="M0 0 C3.3 0.66 6.6 1.32 10 2 C10 2.33 10 2.66 10 3 C7.69 3.33 5.38 3.66 3 4 C4.66342837 5.66342837 6.7825709 5.36048097 9.0625 5.5625 C9.98160156 5.64628906 10.90070313 5.73007813 11.84765625 5.81640625 C12.91306641 5.90728516 12.91306641 5.90728516 14 6 C14 5.34 14 4.68 14 4 C15.65 4 17.3 4 19 4 C15.41985241 7.42528116 12.40521993 7.46160381 7.5625 7.5 C5.61537109 7.54640625 5.61537109 7.54640625 3.62890625 7.59375 C-0.78080906 6.87224653 -2.21226099 5.39470338 -5 2 C-2.525 2.495 -2.525 2.495 0 3 C0 2.01 0 1.02 0 0 Z " fill="#D23874" transform="translate(182,199)"/>
<path d="M0 0 C0.99 0.99 1.98 1.98 3 3 C5.10332891 3.71447643 5.10332891 3.71447643 7 4 C7 4.66 7 5.32 7 6 C3.37 6.66 -0.26 7.32 -4 8 C-4 6.68 -4 5.36 -4 4 C-5.65 4 -7.3 4 -9 4 C-8.67 3.01 -8.34 2.02 -8 1 C-8 1.66 -8 2.32 -8 3 C-5.36 2.01 -2.72 1.02 0 0 Z " fill="#D93C78" transform="translate(457,162)"/>
<path d="M0 0 C4.29 0 8.58 0 13 0 C13 2.97 13 5.94 13 9 C13.66 9.33 14.32 9.66 15 10 C13.68 10.33 12.36 10.66 11 11 C11 7.7 11 4.4 11 1 C7.7 1 4.4 1 1 1 C1 4.63 1 8.26 1 12 C2.98 12 4.96 12 7 12 C4.35261084 13.4606285 3.10551666 14 0 14 C0 9.38 0 4.76 0 0 Z " fill="#C9396E" transform="translate(267,228)"/>
<path d="M0 0 C1 4 1 4 0 7 C0.66 7 1.32 7 2 7 C2.33 6.34 2.66 5.68 3 5 C4 7 4 7 3.00390625 10.0390625 C2.52824219 11.22242188 2.05257813 12.40578125 1.5625 13.625 C1.08941406 14.81351563 0.61632812 16.00203125 0.12890625 17.2265625 C-0.24363281 18.14179688 -0.61617188 19.05703125 -1 20 C-1.33 20 -1.66 20 -2 20 C-2.19622241 15.78121808 -1.80230168 12.82989106 0 9 C-0.66 9 -1.32 9 -2 9 C-2.33 10.65 -2.66 12.3 -3 14 C-3.66 13.67 -4.32 13.34 -5 13 C-3.35 8.71 -1.7 4.42 0 0 Z " fill="#D34179" transform="translate(381,176)"/>
<path d="M0 0 C2.00720923 0.28674418 4.0085944 0.61866701 6 1 C5.67 3.64 5.34 6.28 5 9 C3.02 9 1.04 9 -1 9 C-1.09765625 2.84765625 -1.09765625 2.84765625 -1 1 C-0.67 0.67 -0.34 0.34 0 0 Z " fill="#D62163" transform="translate(216,197)"/>
<path d="M0 0 C0.33 0 0.66 0 1 0 C1.03738281 0.97582031 1.07476562 1.95164063 1.11328125 2.95703125 C1.21189453 4.86548828 1.21189453 4.86548828 1.3125 6.8125 C1.39951172 8.70935547 1.39951172 8.70935547 1.48828125 10.64453125 C1.7113494 13.96603693 1.7113494 13.96603693 3.54296875 15.94921875 C4.02378906 16.29597656 4.50460938 16.64273438 5 17 C1.50872818 19.11970075 1.50872818 19.11970075 -1.125 18.5 C-1.74375 18.335 -2.3625 18.17 -3 18 C-3.66 18.66 -4.32 19.32 -5 20 C-7.125 19.625 -7.125 19.625 -9 19 C-8.236875 18.62875 -7.47375 18.2575 -6.6875 17.875 C-3.29462245 15.50787613 -2.41429124 13.88930092 -1 10 C-0.48781964 6.673314 -0.19253221 3.35935503 0 0 Z " fill="#D93B78" transform="translate(170,181)"/>
<path d="M0 0 C2.97 0 5.94 0 9 0 C9.12867289 8.06350113 8.79681084 15.97497656 8 24 C7.67 24 7.34 24 7 24 C7 16.74 7 9.48 7 2 C6.01 2 5.02 2 4 2 C3.67 2.66 3.34 3.32 3 4 C2.01 4 1.02 4 0 4 C0 2.68 0 1.36 0 0 Z " fill="#C82A65" transform="translate(386,163)"/>
<path d="M0 0 C0.99 0.99 1.98 1.98 3 3 C3.66 2.67 4.32 2.34 5 2 C5.33 3.98 5.66 5.96 6 8 C4.68 8 3.36 8 2 8 C2.66 9.98 3.32 11.96 4 14 C0.50892621 12.83630874 0.14777237 12.11026462 -1.6875 9.0625 C-2.12449219 8.35222656 -2.56148438 7.64195312 -3.01171875 6.91015625 C-4 5 -4 5 -4 3 C-1 4 -1 4 1 6 C0.67 4.02 0.34 2.04 0 0 Z " fill="#DC407F" transform="translate(338,191)"/>
<path d="M0 0 C2.52588702 2.36292656 3.88820837 3.66462511 5 7 C3.0625 9.6875 3.0625 9.6875 1 12 C-1.475 8.04 -1.475 8.04 -4 4 C-3.34 4 -2.68 4 -2 4 C-2 3.34 -2 2.68 -2 2 C-1.34 2 -0.68 2 0 2 C0 1.34 0 0.68 0 0 Z " fill="#DB3071" transform="translate(329,177)"/>
<path d="M0 0 C-0.66 0.66 -1.32 1.32 -2 2 C-3.32 2 -4.64 2 -6 2 C-6 2.66 -6 3.32 -6 4 C-2.37 4 1.26 4 5 4 C5 4.33 5 4.66 5 5 C3.39658445 5.33692785 1.79223445 5.66941093 0.1875 6 C-0.70582031 6.185625 -1.59914062 6.37125 -2.51953125 6.5625 C-5 7 -5 7 -8 7 C-8.33 6.34 -8.66 5.68 -9 5 C-10.32 5.33 -11.64 5.66 -13 6 C-9.62962367 1.07406537 -6.09602472 -2.03200824 0 0 Z " fill="#D03E76" transform="translate(154,163)"/>
<path d="M0 0 C1.32 0.66 2.64 1.32 4 2 C3.67 2.99 3.34 3.98 3 5 C2.85013589 6.9906444 2.75171962 8.98535391 2.68359375 10.98046875 C2.64169922 12.14384766 2.59980469 13.30722656 2.55664062 14.50585938 C2.51732422 15.72080078 2.47800781 16.93574219 2.4375 18.1875 C2.39431641 19.41404297 2.35113281 20.64058594 2.30664062 21.90429688 C2.2004691 24.93608381 2.09842048 27.96795315 2 31 C1.67 31 1.34 31 1 31 C0.98018066 30.25838623 0.96036133 29.51677246 0.93994141 28.75268555 C0.84477072 25.39726166 0.73505906 22.04246714 0.625 18.6875 C0.5940625 17.52025391 0.563125 16.35300781 0.53125 15.15039062 C0.49257813 14.03212891 0.45390625 12.91386719 0.4140625 11.76171875 C0.3826416 10.73006592 0.3512207 9.69841309 0.31884766 8.63549805 C0.17325371 5.77156764 0.17325371 5.77156764 -2 3 C-1.34 2.01 -0.68 1.02 0 0 Z " fill="#A3C676" transform="translate(501,218)"/>
<path d="M0 0 C1.90318884 2.85478326 2.4619099 4.41941308 3.125 7.6875 C3.29257812 8.49574219 3.46015625 9.30398437 3.6328125 10.13671875 C3.75398438 10.75160156 3.87515625 11.36648437 4 12 C3.34 12 2.68 12 2 12 C2 14.31 2 16.62 2 19 C-0.34914492 16.65085508 -0.73140357 15.04320554 -1.625 11.875 C-1.88539063 10.96492187 -2.14578125 10.05484375 -2.4140625 9.1171875 C-2.60742188 8.41851562 -2.80078125 7.71984375 -3 7 C-2.34 7 -1.68 7 -1 7 C-0.67 7.66 -0.34 8.32 0 9 C1.53445094 5.93109813 0.54984289 3.29905734 0 0 Z " fill="#D53A76" transform="translate(369,186)"/>
<path d="M0 0 C0 0.99 0 1.98 0 3 C-1.65 3 -3.3 3 -5 3 C-5 3.66 -5 4.32 -5 5 C-6.62418745 5.08090971 -8.24951745 5.13914995 -9.875 5.1875 C-10.77992188 5.22230469 -11.68484375 5.25710937 -12.6171875 5.29296875 C-13.79667969 5.14794922 -13.79667969 5.14794922 -15 5 C-15.66 4.01 -16.32 3.02 -17 2 C-13.7 1.67 -10.4 1.34 -7 1 C-7 1.66 -7 2.32 -7 3 C-6.67 2.34 -6.34 1.68 -6 1 C-3.911361 0.32624548 -2.19636905 0 0 0 Z " fill="#DB1E64" transform="translate(201,200)"/>
<path d="M0 0 C0 1.65 0 3.3 0 5 C-0.66 5 -1.32 5 -2 5 C-2.33 5.99 -2.66 6.98 -3 8 C-4.65 8 -6.3 8 -8 8 C-7.75 5.125 -7.75 5.125 -7 2 C-4.45285085 0.13209062 -3.19131 0 0 0 Z " fill="#E11B66" transform="translate(453,166)"/>
<path d="M0 0 C0.99 0.495 0.99 0.495 2 1 C2 2.32 2 3.64 2 5 C1.34 5 0.68 5 0 5 C0 3.35 0 1.7 0 0 Z M-3 5 C0 7 0 7 0.6875 10.125 C0.790625 11.07375 0.89375 12.0225 1 13 C0.01 13 -0.98 13 -2 13 C-2.33 13.99 -2.66 14.98 -3 16 C-4.89885096 14.10114904 -4.12367506 11.42752097 -4.1328125 8.91015625 C-4 7 -4 7 -3 5 Z " fill="#DE1C6A" transform="translate(225,181)"/>
<path d="M0 0 C2.4375 0.6875 2.4375 0.6875 5 2 C5.8125 4.625 5.8125 4.625 6 7 C5.34 7 4.68 7 4 7 C4 7.66 4 8.32 4 9 C2.0625 8.3125 2.0625 8.3125 0 7 C-0.93580311 4.12060581 -1.37245106 2.74490212 0 0 Z " fill="#D72969" transform="translate(323,172)"/>
<path d="M0 0 C2.60649468 2.60649468 3.44024981 5.53134321 4.625 8.9375 C4.85445313 9.57107422 5.08390625 10.20464844 5.3203125 10.85742188 C6.32801716 13.70958596 7 15.95183307 7 19 C6.34 19 5.68 19 5 19 C5 18.34 5 17.68 5 17 C4.01 17 3.02 17 2 17 C1.67 17.66 1.34 18.32 1 19 C1 18.01 1 17.02 1 16 C1.99 16 2.98 16 4 16 C3.43379244 14.05742619 2.84634522 12.12103469 2.25 10.1875 C1.92515625 9.10855469 1.6003125 8.02960938 1.265625 6.91796875 C-0.07894501 3.8179879 -1.14374555 2.71015235 -4 1 C-2.125 0.375 -2.125 0.375 0 0 Z " fill="#D23B74" transform="translate(360,163)"/>
<path d="M0 0 C0.66 0.99 1.32 1.98 2 3 C1.05833984 3.35578125 1.05833984 3.35578125 0.09765625 3.71875 C-2.59136982 5.36120912 -2.78803302 6.49954931 -3.5625 9.5 C-4.68348624 13.78899083 -4.68348624 13.78899083 -8 16 C-8.66 15.34 -9.32 14.68 -10 14 C-9.54625 13.649375 -9.0925 13.29875 -8.625 12.9375 C-6.72406131 10.95547093 -6.72406131 10.95547093 -6.125 7.5625 C-4.84170102 3.49871991 -3.49658195 2.30038286 0 0 Z " fill="#97B76B" transform="translate(214,244)"/>
<path d="M0 0 C2.31 0 4.62 0 7 0 C7.86343731 2.28855702 8.7159811 4.5801928 9.5625 6.875 C9.80935547 7.52597656 10.05621094 8.17695313 10.31054688 8.84765625 C10.93173115 10.54497665 11.47152252 12.27156776 12 14 C11.67 14.66 11.34 15.32 11 16 C10.34 15.34 9.68 14.68 9 14 C9 13.01 9 12.02 9 11 C8.34 11 7.68 11 7 11 C6.67 8.69 6.34 6.38 6 4 C4.02 3.34 2.04 2.68 0 2 C0 1.34 0 0.68 0 0 Z " fill="#CB3B71" transform="translate(200,163)"/>
<path d="M0 0 C1.32 0 2.64 0 4 0 C4 2.64 4 5.28 4 8 C3.34 8 2.68 8 2 8 C2 9.65 2 11.3 2 13 C1.34 13 0.68 13 0 13 C0 8.71 0 4.42 0 0 Z " fill="#CC2C6A" transform="translate(267,249)"/>
<path d="M0 0 C2.375 0.5625 2.375 0.5625 5 2 C6.3125 5.625 6.3125 5.625 7 9 C4.36 9.33 1.72 9.66 -1 10 C-1 9.34 -1 8.68 -1 8 C-0.34 7.67 0.32 7.34 1 7 C1.15149298 3.37114676 1.15149298 3.37114676 0 0 Z " fill="#DC296C" transform="translate(274,241)"/>
<path d="M0 0 C2.31 0.66 4.62 1.32 7 2 C7.33 1.34 7.66 0.68 8 0 C8.99 0.99 9.98 1.98 11 3 C10.67 3.66 10.34 4.32 10 5 C8.02 4.34 6.04 3.68 4 3 C4 3.66 4 4.32 4 5 C5.175625 5.4640625 5.175625 5.4640625 6.375 5.9375 C9 7 9 7 11 8 C10.67 8.66 10.34 9.32 10 10 C2.19748654 5.87791741 2.19748654 5.87791741 0 2 C0 1.34 0 0.68 0 0 Z " fill="#D85285" transform="translate(443,196)"/>
<path d="M0 0 C1.97909398 -0.02686553 3.95828971 -0.04633375 5.9375 -0.0625 C7.03964844 -0.07410156 8.14179688 -0.08570313 9.27734375 -0.09765625 C12 0 12 0 13 1 C13.07226502 2.85287502 13.0838122 4.70833878 13.0625 6.5625 C13.05347656 7.57441406 13.04445313 8.58632812 13.03515625 9.62890625 C13.02355469 10.41136719 13.01195312 11.19382813 13 12 C12.67 12 12.34 12 12 12 C12 9.03 12 6.06 12 3 C8.04 2.67 4.08 2.34 0 2 C0 1.34 0 0.68 0 0 Z " fill="#76BC38" transform="translate(321,228)"/>
<path d="M0 0 C2.6015625 -0.29296875 2.6015625 -0.29296875 5.625 -0.1875 C7.12933594 -0.14689453 7.12933594 -0.14689453 8.6640625 -0.10546875 C9.43492187 -0.07066406 10.20578125 -0.03585938 11 0 C11.33 0.99 11.66 1.98 12 3 C7.38 3 2.76 3 -2 3 C-1.34 2.01 -0.68 1.02 0 0 Z " fill="#DF1C64" transform="translate(241,182)"/>
<path d="M0 0 C0.33 0 0.66 0 1 0 C2 6 3 12 4 18 C1.71542106 16.34368027 0.441221 15.3684401 -1 13 C-1.58151274 8.70670385 -1.97469091 3.94938182 0 0 Z " fill="#CC316D" transform="translate(446,180)"/>
<path d="M0 0 C0.33 0.99 0.66 1.98 1 3 C0 4 0 4 -3.5625 4.0625 C-4.696875 4.041875 -5.83125 4.02125 -7 4 C-7 8.29 -7 12.58 -7 17 C-7.33 17 -7.66 17 -8 17 C-8 12.05 -8 7.1 -8 2 C-4.535 1.505 -4.535 1.505 -1 1 C-0.67 0.67 -0.34 0.34 0 0 Z " fill="#CD285A" transform="translate(307,245)"/>
<path d="M0 0 C1.65 0 3.3 0 5 0 C5 0.66 5 1.32 5 2 C8.63 2 12.26 2 16 2 C14 4 14 4 11.7578125 4.23046875 C10.88898438 4.21628906 10.02015625 4.20210937 9.125 4.1875 C7.82949219 4.17783203 7.82949219 4.17783203 6.5078125 4.16796875 C4.20807774 4.01393667 2.20716511 3.64161776 0 3 C0 2.01 0 1.02 0 0 Z " fill="#DF1B65" transform="translate(146,201)"/>
<path d="M0 0 C0.33 0 0.66 0 1 0 C1.33 1.65 1.66 3.3 2 5 C2.99 5 3.98 5 5 5 C3.25 8.875 3.25 8.875 1 10 C1 9.01 1 8.02 1 7 C-0.98 7.33 -2.96 7.66 -5 8 C-5.33 8.99 -5.66 9.98 -6 11 C-6.33 10.34 -6.66 9.68 -7 9 C-6 7 -6 7 -3.5 5.625 C-0.84694477 4.25389904 -0.84694477 4.25389904 -0.1875 1.8125 C-0.125625 1.214375 -0.06375 0.61625 0 0 Z " fill="#D33472" transform="translate(200,193)"/>
<path d="M0 0 C2.97 0.495 2.97 0.495 6 1 C5.67 2.98 5.34 4.96 5 7 C3.02 6.34 1.04 5.68 -1 5 C-0.67 3.35 -0.34 1.7 0 0 Z " fill="#E21D6B" transform="translate(406,164)"/>
<path d="M0 0 C0.99 0 1.98 0 3 0 C3 0.66 3 1.32 3 2 C3.99 2 4.98 2 6 2 C6.33 2.99 6.66 3.98 7 5 C4 7 4 7 1 7 C0.67 4.69 0.34 2.38 0 0 Z " fill="#D93070" transform="translate(362,180)"/>
<path d="M0 0 C2.4375 0.8125 2.4375 0.8125 5 2 C5.33 2.99 5.66 3.98 6 5 C6.66 5.33 7.32 5.66 8 6 C7.071875 6.12375 7.071875 6.12375 6.125 6.25 C3.81562433 6.81258459 3.81562433 6.81258459 2.75 9.0625 C2.5025 9.701875 2.255 10.34125 2 11 C0.77036367 7.31109101 0.44329599 3.86300794 0 0 Z " fill="#DB3B7B" transform="translate(133,164)"/>
<path d="M0 0 C4.55737263 0.43820891 7.57653445 0.85041169 11 4 C7.18243176 5.37432457 3.92744671 4.67975039 0 4 C0 2.68 0 1.36 0 0 Z " fill="#DE1C64" transform="translate(293,162)"/>
<path d="M0 0 C2.97 0.33 5.94 0.66 9 1 C9 2.65 9 4.3 9 6 C5.59687262 4.94124926 2.98646769 3.99097846 0 2 C0 1.34 0 0.68 0 0 Z " fill="#DF1B66" transform="translate(447,199)"/>
<path d="M0 0 C2.99324263 1.0975223 3.84610901 1.67682892 5.25 4.625 C5.4975 5.40875 5.745 6.1925 6 7 C4.68 7.33 3.36 7.66 2 8 C1.67 7.01 1.34 6.02 1 5 C0.34 5 -0.32 5 -1 5 C-0.67 3.35 -0.34 1.7 0 0 Z " fill="#DC1D64" transform="translate(132,190)"/>
<path d="M0 0 C1.98 0 3.96 0 6 0 C5.67 0.66 5.34 1.32 5 2 C3.68 1.67 2.36 1.34 1 1 C0.67 2.65 0.34 4.3 0 6 C1.32 6.66 2.64 7.32 4 8 C2.125 9.0625 2.125 9.0625 0 10 C-0.66 9.67 -1.32 9.34 -2 9 C-1.125 2.25 -1.125 2.25 0 0 Z " fill="#CE306D" transform="translate(405,163)"/>
<path d="M0 0 C1.32 0.33 2.64 0.66 4 1 C4.33 3.31 4.66 5.62 5 8 C3.68 8 2.36 8 1 8 C0.67 5.36 0.34 2.72 0 0 Z " fill="#DB1E64" transform="translate(136,198)"/>
<path d="M0 0 C1.32 0.33 2.64 0.66 4 1 C4 2.98 4 4.96 4 7 C2.68 7 1.36 7 0 7 C0 4.69 0 2.38 0 0 Z " fill="#E11B65" transform="translate(371,198)"/>
<path d="M0 0 C1.32 0.33 2.64 0.66 4 1 C4.38909985 2.45463481 4.76088029 3.91391207 5.125 5.375 C5.43824219 6.59316406 5.43824219 6.59316406 5.7578125 7.8359375 C5.83773438 8.55007812 5.91765625 9.26421875 6 10 C5.34 10.66 4.68 11.32 4 12 C3.34 11.34 2.68 10.68 2 10 C2.375 7.375 2.375 7.375 3 5 C2.01 4.67 1.02 4.34 0 4 C0 2.68 0 1.36 0 0 Z " fill="#DA1C63" transform="translate(415,183)"/>
<path d="M0 0 C0.74886475 0.00523682 1.49772949 0.01047363 2.26928711 0.01586914 C3.07817383 0.0190918 3.88706055 0.02231445 4.72045898 0.02563477 C5.5705957 0.03401367 6.42073242 0.04239258 7.29663086 0.05102539 C8.15063477 0.05553711 9.00463867 0.06004883 9.88452148 0.06469727 C12.00108749 0.07652166 14.11761771 0.0944577 16.23413086 0.11352539 C16.23413086 0.44352539 16.23413086 0.77352539 16.23413086 1.11352539 C14.55383789 1.15219727 14.55383789 1.15219727 12.83959961 1.19165039 C11.3669044 1.24793174 9.89424966 1.30527908 8.42163086 1.36352539 C7.31464844 1.38479492 7.31464844 1.38479492 6.18530273 1.40649414 C1.70975668 1.57861586 1.70975668 1.57861586 -1.77758789 4.16040039 C-2.1037207 4.80493164 -2.42985352 5.44946289 -2.76586914 6.11352539 C-2.80859014 4.44740634 -2.80650746 2.77969654 -2.76586914 1.11352539 C-1.76586914 0.11352539 -1.76586914 0.11352539 0 0 Z " fill="#C44372" transform="translate(399.765869140625,191.886474609375)"/>
<path d="M0 0 C0.33 0 0.66 0 1 0 C1.33 3.96 1.66 7.92 2 12 C1.01 12.66 0.02 13.32 -1 14 C-1.02694851 12.04174127 -1.04637218 10.08337774 -1.0625 8.125 C-1.07410156 7.03445312 -1.08570313 5.94390625 -1.09765625 4.8203125 C-1 2 -1 2 0 0 Z " fill="#E31865" transform="translate(140,181)"/>
<path d="M0 0 C0 0.66 0 1.32 0 2 C-3.82989106 3.80230168 -6.78121808 4.19622241 -11 4 C-11 3.34 -11 2.68 -11 2 C-7.17679443 0.57741188 -4.08718695 -0.24042276 0 0 Z " fill="#E11A66" transform="translate(159,163)"/>
<path d="M0 0 C-3.65333143 2.63379708 -6.48521602 4.46884894 -11 5 C-11.33 4.34 -11.66 3.68 -12 3 C-10.5682384 2.30062798 -9.12932968 1.61587282 -7.6875 0.9375 C-6.48673828 0.36322266 -6.48673828 0.36322266 -5.26171875 -0.22265625 C-3 -1 -3 -1 0 0 Z " fill="#90B662" transform="translate(496,259)"/>
<path d="M0 0 C0.33 0 0.66 0 1 0 C1.125 5.75 1.125 5.75 0 8 C-5.44927536 9.27536232 -5.44927536 9.27536232 -8 8 C-8 7.34 -8 6.68 -8 6 C-5.03 6.495 -5.03 6.495 -2 7 C-1.34 4.69 -0.68 2.38 0 0 Z " fill="#8DC758" transform="translate(342,242)"/>
<path d="M0 0 C2.97 0.495 2.97 0.495 6 1 C5.67 2.65 5.34 4.3 5 6 C3 5 1 4 -1 3 C-0.67 2.01 -0.34 1.02 0 0 Z " fill="#E41A68" transform="translate(216,197)"/>
<path d="M0 0 C0.33 0.99 0.66 1.98 1 3 C1.99 3.66 2.98 4.32 4 5 C-1.61 4.67 -7.22 4.34 -13 4 C-13 3.67 -13 3.34 -13 3 C-11.96939453 2.92652344 -11.96939453 2.92652344 -10.91796875 2.8515625 C-9.56638672 2.73941406 -9.56638672 2.73941406 -8.1875 2.625 C-7.29417969 2.55539063 -6.40085937 2.48578125 -5.48046875 2.4140625 C-2.75601501 2.13354964 -2.75601501 2.13354964 0 0 Z " fill="#C52963" transform="translate(133,180)"/>
<path d="M0 0 C-1.32 0.99 -2.64 1.98 -4 3 C-3.01 4.485 -3.01 4.485 -2 6 C-1.875 8.6875 -1.875 8.6875 -2 11 C-2.2475 10.46375 -2.495 9.9275 -2.75 9.375 C-4.29696975 6.43575748 -6.13014369 3.74245592 -8 1 C-3.375 -1.125 -3.375 -1.125 0 0 Z " fill="#D23E75" transform="translate(312,168)"/>
<path d="M0 0 C3.71888239 0.50712033 6.73454239 1.11608215 10 3 C10 3.66 10 4.32 10 5 C6.28111761 4.49287967 3.26545761 3.88391785 0 2 C0 1.34 0 0.68 0 0 Z " fill="#97BE5A" transform="translate(400,259)"/>
<path d="M0 0 C1.76462683 3.08809695 2 4.23312136 2 8 C2.66 8.33 3.32 8.66 4 9 C2.68 9 1.36 9 0 9 C-2 4.25 -2 4.25 -2 2 C-1.34 2 -0.68 2 0 2 C0 1.34 0 0.68 0 0 Z " fill="#DE1D65" transform="translate(421,194)"/>
<path d="M0 0 C2 0 2 0 3.5 1.125 C5.44959415 3.56199269 6.14037542 6.02437647 7 9 C6.01 9 5.02 9 4 9 C2.68 6.03 1.36 3.06 0 0 Z M5 2 C7 3 7 3 7 3 Z " fill="#D53B74" transform="translate(131,195)"/>
<path d="M0 0 C0.99 0 1.98 0 3 0 C3 2.31 3 4.62 3 7 C1.68 7.33 0.36 7.66 -1 8 C-0.67 5.36 -0.34 2.72 0 0 Z " fill="#D82066" transform="translate(382,175)"/>
<path d="M0 0 C0.66 0.66 1.32 1.32 2 2 C1.625 5.625 1.625 5.625 1 9 C0.01 9 -0.98 9 -2 9 C-1.34 6.03 -0.68 3.06 0 0 Z " fill="#D93D76" transform="translate(287,262)"/>
<path d="M0 0 C3.96 0.33 7.92 0.66 12 1 C12 1.33 12 1.66 12 2 C10.39658445 2.33692785 8.79223445 2.66941093 7.1875 3 C6.29417969 3.185625 5.40085938 3.37125 4.48046875 3.5625 C2 4 2 4 -1 4 C-0.67 2.68 -0.34 1.36 0 0 Z " fill="#E24D87" transform="translate(147,166)"/>
<path d="M0 0 C2 3 2 3 3 6 C2.34 6 1.68 6 1 6 C1 6.66 1 7.32 1 8 C0.34 8 -0.32 8 -1 8 C-0.67 8.99 -0.34 9.98 0 11 C-0.99 11.495 -0.99 11.495 -2 12 C-2.33 10.02 -2.66 8.04 -3 6 C-2.01 5.67 -1.02 5.34 0 5 C0 3.35 0 1.7 0 0 Z " fill="#DB457C" transform="translate(420,188)"/>
<path d="M0 0 C0.99 0 1.98 0 3 0 C2.67 2.64 2.34 5.28 2 8 C1.34 8 0.68 8 0 8 C-0.38063221 5.6739143 -0.71269945 3.33944736 -1 1 C-0.67 0.67 -0.34 0.34 0 0 Z " fill="#E0226A" transform="translate(401,174)"/>
<path d="M0 0 C1.32 1.32 2.64 2.64 4 4 C3.01 4.495 3.01 4.495 2 5 C1.34786708 7.02463255 1.34786708 7.02463255 1 9 C0.01 8.67 -0.98 8.34 -2 8 C-2.33 7.01 -2.66 6.02 -3 5 C-1.68 5.33 -0.36 5.66 1 6 C0.67 4.02 0.34 2.04 0 0 Z " fill="#DA407A" transform="translate(169,166)"/>
<path d="M0 0 C0.66 0 1.32 0 2 0 C2 0.66 2 1.32 2 2 C3.32 2.33 4.64 2.66 6 3 C6 3.66 6 4.32 6 5 C4.68 5.33 3.36 5.66 2 6 C2 5.34 2 4.68 2 4 C1.01 4 0.02 4 -1 4 C-0.67 2.68 -0.34 1.36 0 0 Z " fill="#DD1B64" transform="translate(141,195)"/>
<path d="M0 0 C1.5 1.375 1.5 1.375 3 3 C3 3.66 3 4.32 3 5 C3.66 5 4.32 5 5 5 C5 5.99 5 6.98 5 8 C3.35 7.67 1.7 7.34 0 7 C0 4.69 0 2.38 0 0 Z " fill="#E01C66" transform="translate(177,194)"/>
<path d="M0 0 C0.33 0 0.66 0 1 0 C0.67 3.3 0.34 6.6 0 10 C-0.99 10 -1.98 10 -3 10 C-2.01 6.7 -1.02 3.4 0 0 Z " fill="#D74179" transform="translate(225,176)"/>
<path d="M0 0 C0.99 0.33 1.98 0.66 3 1 C3 1.99 3 2.98 3 4 C2.34 4 1.68 4 1 4 C1.33 4.99 1.66 5.98 2 7 C1.01 6.67 0.02 6.34 -1 6 C-1.042721 4.33388095 -1.04063832 2.66617115 -1 1 C-0.67 0.67 -0.34 0.34 0 0 Z " fill="#D22566" transform="translate(411,172)"/>
<path d="M0 0 C0.66 0 1.32 0 2 0 C2.66 2.31 3.32 4.62 4 7 C3.01 7 2.02 7 1 7 C0.67 4.69 0.34 2.38 0 0 Z " fill="#A3C57B" transform="translate(99,242)"/>
<path d="M0 0 C1.2077558 3.62326739 0.54311128 4.64146369 -1 8 C-2.65 8 -4.3 8 -6 8 C-4.68 7.67 -3.36 7.34 -2 7 C-2 5.02 -2 3.04 -2 1 C-1.34 0.67 -0.68 0.34 0 0 Z " fill="#D2376E" transform="translate(377,198)"/>
<path d="M0 0 C0.66 0 1.32 0 2 0 C2.66 1.98 3.32 3.96 4 6 C3.01 6 2.02 6 1 6 C-0.6875 4 -0.6875 4 -2 2 C-1.34 2 -0.68 2 0 2 C0 1.34 0 0.68 0 0 Z " fill="#DF1C63" transform="translate(336,191)"/>
<path d="M0 0 C0.99 0.99 1.98 1.98 3 3 C2.01 4.98 1.02 6.96 0 9 C-0.99 8.34 -1.98 7.68 -3 7 C-3 6.34 -3 5.68 -3 5 C-1.68 4.67 -0.36 4.34 1 4 C0.67 2.68 0.34 1.36 0 0 Z " fill="#DA4C83" transform="translate(331,180)"/>
<path d="M0 0 C1.32 0.33 2.64 0.66 4 1 C4 1.99 4 2.98 4 4 C2.68 4.33 1.36 4.66 0 5 C0 3.35 0 1.7 0 0 Z " fill="#95B065" transform="translate(263,243)"/>
<path d="M0 0 C3 2 3 2 3.8125 4 C3.874375 4.66 3.93625 5.32 4 6 C3.34 6.66 2.68 7.32 2 8 C-0.1519437 4.77208445 -0.20086443 3.71599191 0 0 Z " fill="#E11B66" transform="translate(367,188)"/>
<path d="M0 0 C0.66 0.33 1.32 0.66 2 1 C1.67 2.32 1.34 3.64 1 5 C-1.66666667 4.33333333 -4.33333333 3.66666667 -7 3 C-4.69631264 1.93347808 -2.35981813 0.93578995 0 0 Z " fill="#DA1D62" transform="translate(145,167)"/>
<path d="M0 0 C0.33 0 0.66 0 1 0 C1 1.65 1 3.3 1 5 C0.34 5 -0.32 5 -1 5 C-1.33 5.99 -1.66 6.98 -2 8 C-2.33 7.34 -2.66 6.68 -3 6 C-3.66 5.67 -4.32 5.34 -5 5 C-4.01 5 -3.02 5 -2 5 C-1.34 3.35 -0.68 1.7 0 0 Z " fill="#DB286B" transform="translate(452,166)"/>
<path d="M0 0 C0.33 0 0.66 0 1 0 C1.33 3.3 1.66 6.6 2 10 C0.68 9.67 -0.64 9.34 -2 9 C-1.34 6.03 -0.68 3.06 0 0 Z " fill="#88BA2F" transform="translate(310,242)"/>
<path d="M0 0 C1.98 0.66 3.96 1.32 6 2 C5.01 2.33 4.02 2.66 3 3 C3 3.66 3 4.32 3 5 C2.01 5 1.02 5 0 5 C0 3.35 0 1.7 0 0 Z " fill="#D82569" transform="translate(456,200)"/>
<path d="M0 0 C2.475 0.99 2.475 0.99 5 2 C2.33333333 3.33333333 -0.33333333 4.66666667 -3 6 C-3 4.68 -3 3.36 -3 2 C-2.01 2 -1.02 2 0 2 C0 1.34 0 0.68 0 0 Z " fill="#DB3E7A" transform="translate(147,198)"/>
</svg>
