<svg xmlns="http://www.w3.org/2000/svg"
viewBox = "0 0 512 512"
width="512"
height="512">
<g fill="None" fill-opacity="0.0" stroke="#000000" stroke-opacity="0.00" stroke-width="0.3"><path d="
M 0.00 512.00 
L 180.00 512.00
C 150.00 507.35 128.80 501.53 106.25 487.74 C 83.69 473.94 58.03 445.50 47.29 423.70 C 36.54 401.90 29.36 368.77 32.92 337.92 C 36.49 307.08 42.93 288.60 59.57 264.23 C 76.21 239.86 103.10 219.11 125.75 209.61 C 148.41 200.11 183.26 190.57 216.00 197.00
C 216.00 225.33 216.00 253.67 216.00 282.00
C 196.68 274.05 174.06 278.82 159.23 285.58 C 144.40 292.33 127.36 309.20 121.29 324.30 C 115.22 339.41 114.91 367.61 121.35 382.70 C 127.79 397.79 145.92 415.80 160.77 422.58 C 175.62 429.35 200.94 431.45 217.75 424.61 C 234.57 417.76 249.46 406.37 259.13 388.08 C 268.80 369.80 267.40 348.81 267.00 317.00 C 266.60 285.19 267.19 244.60 267.00 211.00 C 266.81 177.40 267.10 140.38 267.00 106.00 C 266.90 71.62 267.07 34.62 267.00 0.00
L 0.00 0.00
L 0.00 512.00 Z"/>
</g>
<g fill="None" fill-opacity="0.0" stroke="#000000" stroke-opacity="0.99" stroke-width="0.3"><path d="
M 180.00 512.00 
L 184.00 512.00
C 188.09 510.21 194.16 511.00 199.00 511.00
C 200.66 511.00 202.35 511.09 204.00 511.00
C 221.15 510.03 234.78 506.62 248.92 500.87 C 263.06 495.12 273.84 490.82 287.25 480.81 C 300.67 470.81 316.41 454.37 325.09 441.08 C 333.77 427.79 338.93 416.99 344.19 399.75 C 349.46 382.52 351.60 369.69 352.00 344.00 C 352.40 318.31 350.84 282.32 351.00 255.00 C 351.16 227.68 352.24 195.05 351.00 167.00
C 387.66 195.54 427.11 209.75 481.00 212.00
C 481.00 184.00 481.00 156.00 481.00 128.00
C 441.88 127.11 418.09 117.79 390.25 90.75 C 362.41 63.71 353.55 38.61 351.00 1.00
C 323.78 3.46 294.47 -0.01 268.00 0.00
L 267.00 0.00
C 267.07 34.62 266.90 71.62 267.00 106.00 C 267.10 140.38 266.81 177.40 267.00 211.00 C 267.19 244.60 266.60 285.19 267.00 317.00 C 267.40 348.81 268.80 369.80 259.13 388.08 C 249.46 406.37 234.57 417.76 217.75 424.61 C 200.94 431.45 175.62 429.35 160.77 422.58 C 145.92 415.80 127.79 397.79 121.35 382.70 C 114.91 367.61 115.22 339.41 121.29 324.30 C 127.36 309.20 144.40 292.33 159.23 285.58 C 174.06 278.82 196.68 274.05 216.00 282.00
C 216.00 253.67 216.00 225.33 216.00 197.00
C 183.26 190.57 148.41 200.11 125.75 209.61 C 103.10 219.11 76.21 239.86 59.57 264.23 C 42.93 288.60 36.49 307.08 32.92 337.92 C 29.36 368.77 36.54 401.90 47.29 423.70 C 58.03 445.50 83.69 473.94 106.25 487.74 C 128.80 501.53 150.00 507.35 180.00 512.00 Z"/>
</g>
<g fill="None" fill-opacity="0.0" stroke="#000000" stroke-opacity="0.60" stroke-width="0.3"><path d="
M 351.00 1.00 
C 350.76 0.69 351.00 0.00 351.00 0.00
L 268.00 0.00
C 294.47 -0.01 323.78 3.46 351.00 1.00 Z"/>
</g>
<g fill="None" fill-opacity="0.0" stroke="#000000" stroke-opacity="0.00" stroke-width="0.3"><path d="
M 351.00 1.00 
C 353.55 38.61 362.41 63.71 390.25 90.75 C 418.09 117.79 441.88 127.11 481.00 128.00
C 481.00 156.00 481.00 184.00 481.00 212.00
C 427.11 209.75 387.66 195.54 351.00 167.00
C 352.24 195.05 351.16 227.68 351.00 255.00 C 350.84 282.32 352.40 318.31 352.00 344.00 C 351.60 369.69 349.46 382.52 344.19 399.75 C 338.93 416.99 333.77 427.79 325.09 441.08 C 316.41 454.37 300.67 470.81 287.25 480.81 C 273.84 490.82 263.06 495.12 248.92 500.87 C 234.78 506.62 221.15 510.03 204.00 511.00
C 203.88 511.03 204.00 512.00 204.00 512.00
L 512.00 512.00
L 512.00 0.00
L 351.00 0.00
C 351.00 0.00 350.76 0.69 351.00 1.00 Z"/>
</g>
<g fill="None" fill-opacity="0.0" stroke="#000000" stroke-opacity="0.53" stroke-width="0.3"><path d="
M 184.00 512.00 
L 199.00 512.00
C 199.00 511.50 199.00 511.00 199.00 511.00
C 194.16 511.00 188.09 510.21 184.00 512.00 Z"/>
</g>
<g fill="None" fill-opacity="0.0" stroke="#000000" stroke-opacity="0.27" stroke-width="0.3"><path d="
M 199.00 512.00 
L 204.00 512.00
C 204.00 512.00 203.88 511.03 204.00 511.00
C 202.35 511.09 200.66 511.00 199.00 511.00
C 199.00 511.00 199.00 511.50 199.00 512.00 Z"/>
</g>
<g fill="#000000" fill-opacity="0.00" stroke="None">
<path d="
M 0.00 512.00 
L 180.00 512.00
C 150.00 507.35 128.80 501.53 106.25 487.74 C 83.69 473.94 58.03 445.50 47.29 423.70 C 36.54 401.90 29.36 368.77 32.92 337.92 C 36.49 307.08 42.93 288.60 59.57 264.23 C 76.21 239.86 103.10 219.11 125.75 209.61 C 148.41 200.11 183.26 190.57 216.00 197.00
C 216.00 225.33 216.00 253.67 216.00 282.00
C 196.68 274.05 174.06 278.82 159.23 285.58 C 144.40 292.33 127.36 309.20 121.29 324.30 C 115.22 339.41 114.91 367.61 121.35 382.70 C 127.79 397.79 145.92 415.80 160.77 422.58 C 175.62 429.35 200.94 431.45 217.75 424.61 C 234.57 417.76 249.46 406.37 259.13 388.08 C 268.80 369.80 267.40 348.81 267.00 317.00 C 266.60 285.19 267.19 244.60 267.00 211.00 C 266.81 177.40 267.10 140.38 267.00 106.00 C 266.90 71.62 267.07 34.62 267.00 0.00
L 0.00 0.00
L 0.00 512.00 Z"/>
</g>
<g fill="#000000" fill-opacity="0.99" stroke="None">
<path d="
M 180.00 512.00 
L 184.00 512.00
C 188.09 510.21 194.16 511.00 199.00 511.00
C 200.66 511.00 202.35 511.09 204.00 511.00
C 221.15 510.03 234.78 506.62 248.92 500.87 C 263.06 495.12 273.84 490.82 287.25 480.81 C 300.67 470.81 316.41 454.37 325.09 441.08 C 333.77 427.79 338.93 416.99 344.19 399.75 C 349.46 382.52 351.60 369.69 352.00 344.00 C 352.40 318.31 350.84 282.32 351.00 255.00 C 351.16 227.68 352.24 195.05 351.00 167.00
C 387.66 195.54 427.11 209.75 481.00 212.00
C 481.00 184.00 481.00 156.00 481.00 128.00
C 441.88 127.11 418.09 117.79 390.25 90.75 C 362.41 63.71 353.55 38.61 351.00 1.00
C 323.78 3.46 294.47 -0.01 268.00 0.00
L 267.00 0.00
C 267.07 34.62 266.90 71.62 267.00 106.00 C 267.10 140.38 266.81 177.40 267.00 211.00 C 267.19 244.60 266.60 285.19 267.00 317.00 C 267.40 348.81 268.80 369.80 259.13 388.08 C 249.46 406.37 234.57 417.76 217.75 424.61 C 200.94 431.45 175.62 429.35 160.77 422.58 C 145.92 415.80 127.79 397.79 121.35 382.70 C 114.91 367.61 115.22 339.41 121.29 324.30 C 127.36 309.20 144.40 292.33 159.23 285.58 C 174.06 278.82 196.68 274.05 216.00 282.00
C 216.00 253.67 216.00 225.33 216.00 197.00
C 183.26 190.57 148.41 200.11 125.75 209.61 C 103.10 219.11 76.21 239.86 59.57 264.23 C 42.93 288.60 36.49 307.08 32.92 337.92 C 29.36 368.77 36.54 401.90 47.29 423.70 C 58.03 445.50 83.69 473.94 106.25 487.74 C 128.80 501.53 150.00 507.35 180.00 512.00 Z"/>
</g>
<g fill="#000000" fill-opacity="0.60" stroke="None">
<path d="
M 351.00 1.00 
C 350.76 0.69 351.00 0.00 351.00 0.00
L 268.00 0.00
C 294.47 -0.01 323.78 3.46 351.00 1.00 Z"/>
</g>
<g fill="#000000" fill-opacity="0.00" stroke="None">
<path d="
M 351.00 1.00 
C 353.55 38.61 362.41 63.71 390.25 90.75 C 418.09 117.79 441.88 127.11 481.00 128.00
C 481.00 156.00 481.00 184.00 481.00 212.00
C 427.11 209.75 387.66 195.54 351.00 167.00
C 352.24 195.05 351.16 227.68 351.00 255.00 C 350.84 282.32 352.40 318.31 352.00 344.00 C 351.60 369.69 349.46 382.52 344.19 399.75 C 338.93 416.99 333.77 427.79 325.09 441.08 C 316.41 454.37 300.67 470.81 287.25 480.81 C 273.84 490.82 263.06 495.12 248.92 500.87 C 234.78 506.62 221.15 510.03 204.00 511.00
C 203.88 511.03 204.00 512.00 204.00 512.00
L 512.00 512.00
L 512.00 0.00
L 351.00 0.00
C 351.00 0.00 350.76 0.69 351.00 1.00 Z"/>
</g>
<g fill="#000000" fill-opacity="0.53" stroke="None">
<path d="
M 184.00 512.00 
L 199.00 512.00
C 199.00 511.50 199.00 511.00 199.00 511.00
C 194.16 511.00 188.09 510.21 184.00 512.00 Z"/>
</g>
<g fill="#000000" fill-opacity="0.27" stroke="None">
<path d="
M 199.00 512.00 
L 204.00 512.00
C 204.00 512.00 203.88 511.03 204.00 511.00
C 202.35 511.09 200.66 511.00 199.00 511.00
C 199.00 511.00 199.00 511.50 199.00 512.00 Z"/>
</g>
</svg>