<svg xmlns="http://www.w3.org/2000/svg" 
viewBox = "0 0 512 512"
width="512"
height="512">
<g fill="None" fill-opacity="0.0" stroke="#000000" stroke-opacity="0.00" stroke-width="0.3"><path d="
M 0.00 53.00 
C 4.44 27.04 27.11 4.42 53.00 0.00
L 0.00 0.00
L 0.00 53.00 Z"/>
</g>
<g fill="None" fill-opacity="0.0" stroke="#1975D1" stroke-opacity="1.00" stroke-width="0.3"><path d="
M 0.00 53.00 
L 0.00 459.00
C 4.44 484.96 27.11 507.58 53.00 512.00
L 256.00 512.00
C 256.00 453.33 256.00 394.67 256.00 336.00
C 234.67 336.00 213.33 336.00 192.00 336.00
C 192.00 309.33 192.00 282.67 192.00 256.00
C 213.33 256.00 234.67 256.00 256.00 256.00
C 255.66 208.87 249.20 159.31 284.25 124.25 C 319.29 89.19 368.85 95.68 416.00 96.00
C 416.00 122.67 416.00 149.33 416.00 176.00
C 399.05 176.25 385.26 175.66 368.00 176.00 C 350.74 176.34 350.97 193.54 352.00 208.00 C 353.03 222.46 351.23 241.16 352.00 256.00
C 378.67 256.00 405.33 256.00 432.00 256.00
C 427.73 265.33 424.90 275.36 420.68 284.68 C 416.45 294.00 413.66 303.93 409.08 313.08 C 404.49 322.23 404.90 337.10 392.00 336.00 C 379.10 334.90 365.00 336.82 352.00 336.00
C 352.00 394.67 352.00 453.33 352.00 512.00
L 459.00 512.00
C 484.96 507.56 507.58 484.89 512.00 459.00
L 512.00 53.00
C 507.56 27.04 484.89 4.42 459.00 0.00
L 53.00 0.00
C 27.11 4.42 4.44 27.04 0.00 53.00 Z"/>
</g>
<g fill="None" fill-opacity="0.0" stroke="#000000" stroke-opacity="0.00" stroke-width="0.3"><path d="
M 512.00 53.00 
L 512.00 0.00
L 459.00 0.00
C 484.89 4.42 507.56 27.04 512.00 53.00 Z"/>
</g>
<g fill="None" fill-opacity="0.0" stroke="#F9F9F9" stroke-opacity="1.00" stroke-width="0.3"><path d="
M 256.00 512.00 
L 352.00 512.00
C 352.00 453.33 352.00 394.67 352.00 336.00
C 365.00 336.82 379.10 334.90 392.00 336.00 C 404.90 337.10 404.49 322.23 409.08 313.08 C 413.66 303.93 416.45 294.00 420.68 284.68 C 424.90 275.36 427.73 265.33 432.00 256.00
C 405.33 256.00 378.67 256.00 352.00 256.00
C 351.23 241.16 353.03 222.46 352.00 208.00 C 350.97 193.54 350.74 176.34 368.00 176.00 C 385.26 175.66 399.05 176.25 416.00 176.00
C 416.00 149.33 416.00 122.67 416.00 96.00
C 368.85 95.68 319.29 89.19 284.25 124.25 C 249.20 159.31 255.66 208.87 256.00 256.00
C 234.67 256.00 213.33 256.00 192.00 256.00
C 192.00 282.67 192.00 309.33 192.00 336.00
C 213.33 336.00 234.67 336.00 256.00 336.00
C 256.00 394.67 256.00 453.33 256.00 512.00 Z"/>
</g>
<g fill="None" fill-opacity="0.0" stroke="#000000" stroke-opacity="0.00" stroke-width="0.3"><path d="
M 0.00 512.00 
L 53.00 512.00
C 27.11 507.58 4.44 484.96 0.00 459.00
L 0.00 512.00 Z"/>
</g>
<g fill="None" fill-opacity="0.0" stroke="#000000" stroke-opacity="0.00" stroke-width="0.3"><path d="
M 459.00 512.00 
L 512.00 512.00
L 512.00 459.00
C 507.58 484.89 484.96 507.56 459.00 512.00 Z"/>
</g>
<g fill="#000000" fill-opacity="0.00" stroke="None">
<path d="
M 0.00 53.00 
C 4.44 27.04 27.11 4.42 53.00 0.00
L 0.00 0.00
L 0.00 53.00 Z"/>
</g>
<g fill="#1975D1" fill-opacity="1.00" stroke="None">
<path d="
M 0.00 53.00 
L 0.00 459.00
C 4.44 484.96 27.11 507.58 53.00 512.00
L 256.00 512.00
C 256.00 453.33 256.00 394.67 256.00 336.00
C 234.67 336.00 213.33 336.00 192.00 336.00
C 192.00 309.33 192.00 282.67 192.00 256.00
C 213.33 256.00 234.67 256.00 256.00 256.00
C 255.66 208.87 249.20 159.31 284.25 124.25 C 319.29 89.19 368.85 95.68 416.00 96.00
C 416.00 122.67 416.00 149.33 416.00 176.00
C 399.05 176.25 385.26 175.66 368.00 176.00 C 350.74 176.34 350.97 193.54 352.00 208.00 C 353.03 222.46 351.23 241.16 352.00 256.00
C 378.67 256.00 405.33 256.00 432.00 256.00
C 427.73 265.33 424.90 275.36 420.68 284.68 C 416.45 294.00 413.66 303.93 409.08 313.08 C 404.49 322.23 404.90 337.10 392.00 336.00 C 379.10 334.90 365.00 336.82 352.00 336.00
C 352.00 394.67 352.00 453.33 352.00 512.00
L 459.00 512.00
C 484.96 507.56 507.58 484.89 512.00 459.00
L 512.00 53.00
C 507.56 27.04 484.89 4.42 459.00 0.00
L 53.00 0.00
C 27.11 4.42 4.44 27.04 0.00 53.00 Z"/>
</g>
<g fill="#000000" fill-opacity="0.00" stroke="None">
<path d="
M 512.00 53.00 
L 512.00 0.00
L 459.00 0.00
C 484.89 4.42 507.56 27.04 512.00 53.00 Z"/>
</g>
<g fill="#F9F9F9" fill-opacity="1.00" stroke="None">
<path d="
M 256.00 512.00 
L 352.00 512.00
C 352.00 453.33 352.00 394.67 352.00 336.00
C 365.00 336.82 379.10 334.90 392.00 336.00 C 404.90 337.10 404.49 322.23 409.08 313.08 C 413.66 303.93 416.45 294.00 420.68 284.68 C 424.90 275.36 427.73 265.33 432.00 256.00
C 405.33 256.00 378.67 256.00 352.00 256.00
C 351.23 241.16 353.03 222.46 352.00 208.00 C 350.97 193.54 350.74 176.34 368.00 176.00 C 385.26 175.66 399.05 176.25 416.00 176.00
C 416.00 149.33 416.00 122.67 416.00 96.00
C 368.85 95.68 319.29 89.19 284.25 124.25 C 249.20 159.31 255.66 208.87 256.00 256.00
C 234.67 256.00 213.33 256.00 192.00 256.00
C 192.00 282.67 192.00 309.33 192.00 336.00
C 213.33 336.00 234.67 336.00 256.00 336.00
C 256.00 394.67 256.00 453.33 256.00 512.00 Z"/>
</g>
<g fill="#000000" fill-opacity="0.00" stroke="None">
<path d="
M 0.00 512.00 
L 53.00 512.00
C 27.11 507.58 4.44 484.96 0.00 459.00
L 0.00 512.00 Z"/>
</g>
<g fill="#000000" fill-opacity="0.00" stroke="None">
<path d="
M 459.00 512.00 
L 512.00 512.00
L 512.00 459.00
C 507.58 484.89 484.96 507.56 459.00 512.00 Z"/>
</g>
</svg>