<svg xmlns="http://www.w3.org/2000/svg"
viewBox = "0 0 512 512"
width="512"
height="512">
<g fill="None" fill-opacity="0.0" stroke="#000000" stroke-opacity="0.02" stroke-width="0.3"><path d="
M 0.00 206.00 
C 0.50 206.00 1.00 206.00 1.00 206.00
C 1.45 172.35 3.52 140.77 6.40 110.25 C 9.27 79.72 11.94 60.77 32.71 38.70 C 53.49 16.62 73.36 10.05 103.25 7.80 C 133.14 5.55 171.39 1.00 206.00 1.00
C 205.90 0.98 206.00 0.00 206.00 0.00
L 0.00 0.00
L 0.00 206.00 Z"/>
</g>
<g fill="None" fill-opacity="0.0" stroke="#000000" stroke-opacity="0.28" stroke-width="0.3"><path d="
M 206.00 1.00 
C 208.00 1.00 210.00 1.00 212.00 1.00
C 212.10 0.98 212.00 0.00 212.00 0.00
L 206.00 0.00
C 206.00 0.00 205.90 0.98 206.00 1.00 Z"/>
</g>
<g fill="None" fill-opacity="0.0" stroke="#000000" stroke-opacity="0.52" stroke-width="0.3"><path d="
M 212.00 1.00 
C 215.67 1.00 219.33 1.00 223.00 1.00
C 222.96 1.00 223.00 0.00 223.00 0.00
L 212.00 0.00
C 212.00 0.00 212.10 0.98 212.00 1.00 Z"/>
</g>
<g fill="None" fill-opacity="0.0" stroke="#000000" stroke-opacity="0.78" stroke-width="0.3"><path d="
M 223.00 1.00 
C 227.83 1.00 233.99 1.82 238.00 0.00
L 223.00 0.00
C 223.00 0.00 222.96 1.00 223.00 1.00 Z"/>
</g>
<g fill="None" fill-opacity="0.0" stroke="#000000" stroke-opacity="1.00" stroke-width="0.3"><path d="
M 223.00 1.00 
C 219.33 1.00 215.67 1.00 212.00 1.00
C 210.00 1.00 208.00 1.00 206.00 1.00
C 171.39 1.00 133.14 5.55 103.25 7.80 C 73.36 10.05 53.49 16.62 32.71 38.70 C 11.94 60.77 9.27 79.72 6.40 110.25 C 3.52 140.77 1.45 172.35 1.00 206.00
C 0.97 208.00 1.00 210.00 1.00 212.00
C 1.00 214.67 1.00 217.33 1.00 220.00
C 1.00 223.83 1.82 228.99 0.00 232.00
L 0.00 277.00
C 1.69 278.77 1.00 282.48 1.00 285.00
C 1.00 290.00 1.00 295.00 1.00 300.00
C 1.00 302.66 0.90 305.34 1.00 308.00
C 2.28 341.65 4.49 374.24 7.60 404.74 C 10.71 435.25 13.09 453.28 34.75 475.25 C 56.41 497.22 74.52 501.57 105.25 504.20 C 135.98 506.83 172.08 510.35 206.00 512.00
L 210.00 512.00
C 212.43 510.26 216.82 511.00 220.00 511.00
C 223.33 511.00 226.67 511.00 230.00 511.00
C 232.84 511.00 236.98 510.21 239.00 512.00
L 273.00 512.00
C 275.10 510.28 279.15 511.00 282.00 511.00
C 285.33 511.00 288.67 511.00 292.00 511.00
C 294.00 511.00 296.00 511.00 298.00 511.00
C 300.67 511.00 303.33 511.00 306.00 511.00
C 348.36 511.00 399.13 507.02 433.30 500.29 C 467.47 493.55 494.88 465.15 501.80 430.75 C 508.72 396.35 507.50 345.87 512.00 306.00
L 512.00 302.00
C 510.31 300.23 511.00 296.52 511.00 294.00
C 511.00 291.34 510.95 288.66 511.00 286.00
C 511.04 283.80 510.21 280.39 512.00 279.00
L 512.00 235.00
C 510.31 233.23 511.00 229.52 511.00 227.00
C 511.00 222.67 511.00 218.33 511.00 214.00
C 511.00 211.33 511.00 208.67 511.00 206.00
C 511.00 171.84 507.40 137.38 504.41 107.25 C 501.41 77.13 499.23 57.84 477.75 36.25 C 456.26 14.66 437.28 10.74 407.25 7.40 C 377.22 4.05 340.94 2.79 308.00 1.00
C 305.35 0.86 302.65 1.00 300.00 1.00
C 296.33 1.00 292.67 1.00 289.00 1.00
C 284.17 1.00 278.01 1.82 274.00 0.00
L 238.00 0.00
C 233.99 1.82 227.83 1.00 223.00 1.00
M 133.00 96.00 
C 164.85 90.74 192.38 121.76 182.65 153.70 C 172.91 185.64 128.74 192.26 107.75 167.25 C 86.77 142.24 99.85 101.47 133.00 96.00
M 267.00 416.00 
C 243.01 412.90 201.94 428.04 205.00 395.00 C 208.06 361.96 203.41 331.08 205.00 299.00 C 206.59 266.92 203.86 237.34 205.00 207.00
C 217.07 195.69 234.06 205.71 252.00 202.00 C 269.94 198.29 276.39 209.91 272.00 228.00
C 277.50 220.71 286.67 212.70 293.25 208.81 C 299.84 204.92 308.26 200.87 316.75 199.74 C 325.24 198.60 340.00 198.02 348.75 199.26 C 357.50 200.51 364.74 201.19 371.75 204.39 C 378.76 207.60 385.81 212.58 393.08 219.92 C 400.35 227.26 401.52 233.21 405.19 241.25 C 408.86 249.30 409.98 254.33 411.80 264.25 C 413.62 274.17 414.23 280.53 414.07 293.08 C 413.91 305.62 414.33 325.92 414.00 340.00 C 413.67 354.08 414.53 374.21 414.00 388.00 C 413.47 401.79 418.71 416.22 403.97 415.02 C 389.24 413.82 369.90 416.26 355.33 415.33 C 340.76 414.40 346.81 397.41 346.00 384.00 C 345.19 370.59 346.49 348.96 346.00 335.00 C 345.51 321.04 347.00 303.18 344.68 291.32 C 342.36 279.46 342.95 276.68 335.92 268.08 C 328.89 259.48 320.59 256.63 310.00 257.00 C 299.41 257.37 294.43 258.22 286.75 266.75 C 279.08 275.29 277.32 277.73 274.24 288.25 C 271.17 298.76 273.77 311.59 273.00 326.00 C 272.23 340.41 273.85 360.30 273.00 375.00 C 272.15 389.70 276.92 406.28 267.00 416.00
M 116.00 201.00 
C 128.81 198.25 149.95 201.24 163.67 201.33 C 177.39 201.42 174.00 213.89 174.00 228.00 C 174.00 242.11 174.20 262.73 174.00 278.00 C 173.80 293.27 174.53 313.66 174.00 329.00 C 173.47 344.34 175.24 364.62 174.00 379.00 C 172.76 393.38 179.87 412.06 166.75 415.19 C 153.62 418.32 134.73 414.87 120.00 416.00 C 105.27 417.13 106.55 402.87 107.00 388.00 C 107.45 373.13 106.69 353.57 107.00 338.00 C 107.31 322.43 106.63 302.41 107.00 287.00 C 107.37 271.59 106.30 251.25 107.00 237.00 C 107.70 222.75 102.57 203.89 116.00 201.00 Z"/>
</g>
<g fill="None" fill-opacity="0.0" stroke="#000000" stroke-opacity="0.78" stroke-width="0.3"><path d="
M 289.00 1.00 
C 288.96 1.00 289.00 0.00 289.00 0.00
L 274.00 0.00
C 278.01 1.82 284.17 1.00 289.00 1.00 Z"/>
</g>
<g fill="None" fill-opacity="0.0" stroke="#000000" stroke-opacity="0.52" stroke-width="0.3"><path d="
M 289.00 1.00 
C 292.67 1.00 296.33 1.00 300.00 1.00
C 299.96 1.00 300.00 0.00 300.00 0.00
L 289.00 0.00
C 289.00 0.00 288.96 1.00 289.00 1.00 Z"/>
</g>
<g fill="None" fill-opacity="0.0" stroke="#000000" stroke-opacity="0.25" stroke-width="0.3"><path d="
M 300.00 1.00 
C 302.65 1.00 305.35 0.86 308.00 1.00
C 307.99 1.00 308.00 0.00 308.00 0.00
L 300.00 0.00
C 300.00 0.00 299.96 1.00 300.00 1.00 Z"/>
</g>
<g fill="None" fill-opacity="0.0" stroke="#000000" stroke-opacity="0.02" stroke-width="0.3"><path d="
M 308.00 1.00 
C 340.94 2.79 377.22 4.05 407.25 7.40 C 437.28 10.74 456.26 14.66 477.75 36.25 C 499.23 57.84 501.41 77.13 504.41 107.25 C 507.40 137.38 511.00 171.84 511.00 206.00
C 511.00 205.96 512.00 206.00 512.00 206.00
L 512.00 0.00
L 308.00 0.00
C 308.00 0.00 307.99 1.00 308.00 1.00 Z"/>
</g>
<g fill="None" fill-opacity="0.0" stroke="#000000" stroke-opacity="0.01" stroke-width="0.3"><path d="
M 133.00 96.00 
C 99.85 101.47 86.77 142.24 107.75 167.25 C 128.74 192.26 172.91 185.64 182.65 153.70 C 192.38 121.76 164.85 90.74 133.00 96.00 Z"/>
</g>
<g fill="None" fill-opacity="0.0" stroke="#000000" stroke-opacity="0.00" stroke-width="0.3"><path d="
M 267.00 416.00 
C 276.92 406.28 272.15 389.70 273.00 375.00 C 273.85 360.30 272.23 340.41 273.00 326.00 C 273.77 311.59 271.17 298.76 274.24 288.25 C 277.32 277.73 279.08 275.29 286.75 266.75 C 294.43 258.22 299.41 257.37 310.00 257.00 C 320.59 256.63 328.89 259.48 335.92 268.08 C 342.95 276.68 342.36 279.46 344.68 291.32 C 347.00 303.18 345.51 321.04 346.00 335.00 C 346.49 348.96 345.19 370.59 346.00 384.00 C 346.81 397.41 340.76 414.40 355.33 415.33 C 369.90 416.26 389.24 413.82 403.97 415.02 C 418.71 416.22 413.47 401.79 414.00 388.00 C 414.53 374.21 413.67 354.08 414.00 340.00 C 414.33 325.92 413.91 305.62 414.07 293.08 C 414.23 280.53 413.62 274.17 411.80 264.25 C 409.98 254.33 408.86 249.30 405.19 241.25 C 401.52 233.21 400.35 227.26 393.08 219.92 C 385.81 212.58 378.76 207.60 371.75 204.39 C 364.74 201.19 357.50 200.51 348.75 199.26 C 340.00 198.02 325.24 198.60 316.75 199.74 C 308.26 200.87 299.84 204.92 293.25 208.81 C 286.67 212.70 277.50 220.71 272.00 228.00
C 276.39 209.91 269.94 198.29 252.00 202.00 C 234.06 205.71 217.07 195.69 205.00 207.00
C 203.86 237.34 206.59 266.92 205.00 299.00 C 203.41 331.08 208.06 361.96 205.00 395.00 C 201.94 428.04 243.01 412.90 267.00 416.00 Z"/>
</g>
<g fill="None" fill-opacity="0.0" stroke="#000000" stroke-opacity="0.00" stroke-width="0.3"><path d="
M 116.00 201.00 
C 102.57 203.89 107.70 222.75 107.00 237.00 C 106.30 251.25 107.37 271.59 107.00 287.00 C 106.63 302.41 107.31 322.43 107.00 338.00 C 106.69 353.57 107.45 373.13 107.00 388.00 C 106.55 402.87 105.27 417.13 120.00 416.00 C 134.73 414.87 153.62 418.32 166.75 415.19 C 179.87 412.06 172.76 393.38 174.00 379.00 C 175.24 364.62 173.47 344.34 174.00 329.00 C 174.53 313.66 173.80 293.27 174.00 278.00 C 174.20 262.73 174.00 242.11 174.00 228.00 C 174.00 213.89 177.39 201.42 163.67 201.33 C 149.95 201.24 128.81 198.25 116.00 201.00 Z"/>
</g>
<g fill="None" fill-opacity="0.0" stroke="#000000" stroke-opacity="0.28" stroke-width="0.3"><path d="
M 0.00 212.00 
C 0.50 212.00 1.00 212.00 1.00 212.00
C 1.00 210.00 0.97 208.00 1.00 206.00
C 1.00 206.00 0.50 206.00 0.00 206.00
L 0.00 212.00 Z"/>
</g>
<g fill="None" fill-opacity="0.0" stroke="#000000" stroke-opacity="0.31" stroke-width="0.3"><path d="
M 511.00 214.00 
C 511.00 213.96 512.00 214.00 512.00 214.00
L 512.00 206.00
C 512.00 206.00 511.00 205.96 511.00 206.00
C 511.00 208.67 511.00 211.33 511.00 214.00 Z"/>
</g>
<g fill="None" fill-opacity="0.0" stroke="#000000" stroke-opacity="0.49" stroke-width="0.3"><path d="
M 0.00 220.00 
C 0.50 220.00 1.00 220.00 1.00 220.00
C 1.00 217.33 1.00 214.67 1.00 212.00
C 1.00 212.00 0.50 212.00 0.00 212.00
L 0.00 220.00 Z"/>
</g>
<g fill="None" fill-opacity="0.0" stroke="#000000" stroke-opacity="0.58" stroke-width="0.3"><path d="
M 511.00 227.00 
C 511.00 226.96 512.00 227.00 512.00 227.00
L 512.00 214.00
C 512.00 214.00 511.00 213.96 511.00 214.00
C 511.00 218.33 511.00 222.67 511.00 227.00 Z"/>
</g>
<g fill="None" fill-opacity="0.0" stroke="#000000" stroke-opacity="0.70" stroke-width="0.3"><path d="
M 0.00 232.00 
C 1.82 228.99 1.00 223.83 1.00 220.00
C 1.00 220.00 0.50 220.00 0.00 220.00
L 0.00 232.00 Z"/>
</g>
<g fill="None" fill-opacity="0.0" stroke="#000000" stroke-opacity="0.79" stroke-width="0.3"><path d="
M 512.00 235.00 
L 512.00 227.00
C 512.00 227.00 511.00 226.96 511.00 227.00
C 511.00 229.52 510.31 233.23 512.00 235.00 Z"/>
</g>
<g fill="None" fill-opacity="0.0" stroke="#000000" stroke-opacity="0.80" stroke-width="0.3"><path d="
M 0.00 285.00 
C 0.50 285.00 1.00 285.00 1.00 285.00
C 1.00 282.48 1.69 278.77 0.00 277.00
L 0.00 285.00 Z"/>
</g>
<g fill="None" fill-opacity="0.0" stroke="#000000" stroke-opacity="0.76" stroke-width="0.3"><path d="
M 511.00 286.00 
C 511.00 285.96 512.00 286.00 512.00 286.00
L 512.00 279.00
C 510.21 280.39 511.04 283.80 511.00 286.00 Z"/>
</g>
<g fill="None" fill-opacity="0.0" stroke="#000000" stroke-opacity="0.56" stroke-width="0.3"><path d="
M 0.00 300.00 
C 0.50 300.00 1.00 300.00 1.00 300.00
C 1.00 295.00 1.00 290.00 1.00 285.00
C 1.00 285.00 0.50 285.00 0.00 285.00
L 0.00 300.00 Z"/>
</g>
<g fill="None" fill-opacity="0.0" stroke="#000000" stroke-opacity="0.61" stroke-width="0.3"><path d="
M 511.00 294.00 
C 511.00 293.96 512.00 294.00 512.00 294.00
L 512.00 286.00
C 512.00 286.00 511.00 285.96 511.00 286.00
C 510.95 288.66 511.00 291.34 511.00 294.00 Z"/>
</g>
<g fill="None" fill-opacity="0.0" stroke="#000000" stroke-opacity="0.43" stroke-width="0.3"><path d="
M 512.00 302.00 
L 512.00 294.00
C 512.00 294.00 511.00 293.96 511.00 294.00
C 511.00 296.52 510.31 300.23 512.00 302.00 Z"/>
</g>
<g fill="None" fill-opacity="0.0" stroke="#000000" stroke-opacity="0.25" stroke-width="0.3"><path d="
M 0.00 308.00 
C 0.50 308.00 1.00 308.00 1.00 308.00
C 0.90 305.34 1.00 302.66 1.00 300.00
C 1.00 300.00 0.50 300.00 0.00 300.00
L 0.00 308.00 Z"/>
</g>
<g fill="None" fill-opacity="0.0" stroke="#000000" stroke-opacity="0.02" stroke-width="0.3"><path d="
M 306.00 511.00 
C 306.04 511.00 306.00 512.00 306.00 512.00
L 512.00 512.00
L 512.00 306.00
C 507.50 345.87 508.72 396.35 501.80 430.75 C 494.88 465.15 467.47 493.55 433.30 500.29 C 399.13 507.02 348.36 511.00 306.00 511.00 Z"/>
</g>
<g fill="None" fill-opacity="0.0" stroke="#000000" stroke-opacity="0.02" stroke-width="0.3"><path d="
M 0.00 512.00 
L 206.00 512.00
C 172.08 510.35 135.98 506.83 105.25 504.20 C 74.52 501.57 56.41 497.22 34.75 475.25 C 13.09 453.28 10.71 435.25 7.60 404.74 C 4.49 374.24 2.28 341.65 1.00 308.00
C 1.00 308.00 0.50 308.00 0.00 308.00
L 0.00 512.00 Z"/>
</g>
<g fill="None" fill-opacity="0.0" stroke="#000000" stroke-opacity="0.45" stroke-width="0.3"><path d="
M 210.00 512.00 
L 220.00 512.00
C 220.00 511.50 220.00 511.00 220.00 511.00
C 216.82 511.00 212.43 510.26 210.00 512.00 Z"/>
</g>
<g fill="None" fill-opacity="0.0" stroke="#000000" stroke-opacity="0.67" stroke-width="0.3"><path d="
M 220.00 512.00 
L 230.00 512.00
C 230.00 511.50 230.00 511.00 230.00 511.00
C 226.67 511.00 223.33 511.00 220.00 511.00
C 220.00 511.00 220.00 511.50 220.00 512.00 Z"/>
</g>
<g fill="None" fill-opacity="0.0" stroke="#000000" stroke-opacity="0.84" stroke-width="0.3"><path d="
M 230.00 512.00 
L 239.00 512.00
C 236.98 510.21 232.84 511.00 230.00 511.00
C 230.00 511.00 230.00 511.50 230.00 512.00 Z"/>
</g>
<g fill="None" fill-opacity="0.0" stroke="#000000" stroke-opacity="0.84" stroke-width="0.3"><path d="
M 273.00 512.00 
L 282.00 512.00
C 282.00 511.50 282.00 511.00 282.00 511.00
C 279.15 511.00 275.10 510.28 273.00 512.00 Z"/>
</g>
<g fill="None" fill-opacity="0.0" stroke="#000000" stroke-opacity="0.67" stroke-width="0.3"><path d="
M 282.00 512.00 
L 292.00 512.00
C 292.00 511.50 292.00 511.00 292.00 511.00
C 288.67 511.00 285.33 511.00 282.00 511.00
C 282.00 511.00 282.00 511.50 282.00 512.00 Z"/>
</g>
<g fill="None" fill-opacity="0.0" stroke="#000000" stroke-opacity="0.50" stroke-width="0.3"><path d="
M 292.00 512.00 
L 298.00 512.00
C 298.00 511.50 298.00 511.00 298.00 511.00
C 296.00 511.00 294.00 511.00 292.00 511.00
C 292.00 511.00 292.00 511.50 292.00 512.00 Z"/>
</g>
<g fill="None" fill-opacity="0.0" stroke="#000000" stroke-opacity="0.30" stroke-width="0.3"><path d="
M 298.00 512.00 
L 306.00 512.00
C 306.00 512.00 306.04 511.00 306.00 511.00
C 303.33 511.00 300.67 511.00 298.00 511.00
C 298.00 511.00 298.00 511.50 298.00 512.00 Z"/>
</g>
<g fill="#000000" fill-opacity="0.02" stroke="None">
<path d="
M 0.00 206.00 
C 0.50 206.00 1.00 206.00 1.00 206.00
C 1.45 172.35 3.52 140.77 6.40 110.25 C 9.27 79.72 11.94 60.77 32.71 38.70 C 53.49 16.62 73.36 10.05 103.25 7.80 C 133.14 5.55 171.39 1.00 206.00 1.00
C 205.90 0.98 206.00 0.00 206.00 0.00
L 0.00 0.00
L 0.00 206.00 Z"/>
</g>
<g fill="#000000" fill-opacity="0.28" stroke="None">
<path d="
M 206.00 1.00 
C 208.00 1.00 210.00 1.00 212.00 1.00
C 212.10 0.98 212.00 0.00 212.00 0.00
L 206.00 0.00
C 206.00 0.00 205.90 0.98 206.00 1.00 Z"/>
</g>
<g fill="#000000" fill-opacity="0.52" stroke="None">
<path d="
M 212.00 1.00 
C 215.67 1.00 219.33 1.00 223.00 1.00
C 222.96 1.00 223.00 0.00 223.00 0.00
L 212.00 0.00
C 212.00 0.00 212.10 0.98 212.00 1.00 Z"/>
</g>
<g fill="#000000" fill-opacity="0.78" stroke="None">
<path d="
M 223.00 1.00 
C 227.83 1.00 233.99 1.82 238.00 0.00
L 223.00 0.00
C 223.00 0.00 222.96 1.00 223.00 1.00 Z"/>
</g>
<g fill="#000000" fill-opacity="1.00" stroke="None">
<path d="
M 223.00 1.00 
C 219.33 1.00 215.67 1.00 212.00 1.00
C 210.00 1.00 208.00 1.00 206.00 1.00
C 171.39 1.00 133.14 5.55 103.25 7.80 C 73.36 10.05 53.49 16.62 32.71 38.70 C 11.94 60.77 9.27 79.72 6.40 110.25 C 3.52 140.77 1.45 172.35 1.00 206.00
C 0.97 208.00 1.00 210.00 1.00 212.00
C 1.00 214.67 1.00 217.33 1.00 220.00
C 1.00 223.83 1.82 228.99 0.00 232.00
L 0.00 277.00
C 1.69 278.77 1.00 282.48 1.00 285.00
C 1.00 290.00 1.00 295.00 1.00 300.00
C 1.00 302.66 0.90 305.34 1.00 308.00
C 2.28 341.65 4.49 374.24 7.60 404.74 C 10.71 435.25 13.09 453.28 34.75 475.25 C 56.41 497.22 74.52 501.57 105.25 504.20 C 135.98 506.83 172.08 510.35 206.00 512.00
L 210.00 512.00
C 212.43 510.26 216.82 511.00 220.00 511.00
C 223.33 511.00 226.67 511.00 230.00 511.00
C 232.84 511.00 236.98 510.21 239.00 512.00
L 273.00 512.00
C 275.10 510.28 279.15 511.00 282.00 511.00
C 285.33 511.00 288.67 511.00 292.00 511.00
C 294.00 511.00 296.00 511.00 298.00 511.00
C 300.67 511.00 303.33 511.00 306.00 511.00
C 348.36 511.00 399.13 507.02 433.30 500.29 C 467.47 493.55 494.88 465.15 501.80 430.75 C 508.72 396.35 507.50 345.87 512.00 306.00
L 512.00 302.00
C 510.31 300.23 511.00 296.52 511.00 294.00
C 511.00 291.34 510.95 288.66 511.00 286.00
C 511.04 283.80 510.21 280.39 512.00 279.00
L 512.00 235.00
C 510.31 233.23 511.00 229.52 511.00 227.00
C 511.00 222.67 511.00 218.33 511.00 214.00
C 511.00 211.33 511.00 208.67 511.00 206.00
C 511.00 171.84 507.40 137.38 504.41 107.25 C 501.41 77.13 499.23 57.84 477.75 36.25 C 456.26 14.66 437.28 10.74 407.25 7.40 C 377.22 4.05 340.94 2.79 308.00 1.00
C 305.35 0.86 302.65 1.00 300.00 1.00
C 296.33 1.00 292.67 1.00 289.00 1.00
C 284.17 1.00 278.01 1.82 274.00 0.00
L 238.00 0.00
C 233.99 1.82 227.83 1.00 223.00 1.00
M 133.00 96.00 
C 164.85 90.74 192.38 121.76 182.65 153.70 C 172.91 185.64 128.74 192.26 107.75 167.25 C 86.77 142.24 99.85 101.47 133.00 96.00
M 267.00 416.00 
C 243.01 412.90 201.94 428.04 205.00 395.00 C 208.06 361.96 203.41 331.08 205.00 299.00 C 206.59 266.92 203.86 237.34 205.00 207.00
C 217.07 195.69 234.06 205.71 252.00 202.00 C 269.94 198.29 276.39 209.91 272.00 228.00
C 277.50 220.71 286.67 212.70 293.25 208.81 C 299.84 204.92 308.26 200.87 316.75 199.74 C 325.24 198.60 340.00 198.02 348.75 199.26 C 357.50 200.51 364.74 201.19 371.75 204.39 C 378.76 207.60 385.81 212.58 393.08 219.92 C 400.35 227.26 401.52 233.21 405.19 241.25 C 408.86 249.30 409.98 254.33 411.80 264.25 C 413.62 274.17 414.23 280.53 414.07 293.08 C 413.91 305.62 414.33 325.92 414.00 340.00 C 413.67 354.08 414.53 374.21 414.00 388.00 C 413.47 401.79 418.71 416.22 403.97 415.02 C 389.24 413.82 369.90 416.26 355.33 415.33 C 340.76 414.40 346.81 397.41 346.00 384.00 C 345.19 370.59 346.49 348.96 346.00 335.00 C 345.51 321.04 347.00 303.18 344.68 291.32 C 342.36 279.46 342.95 276.68 335.92 268.08 C 328.89 259.48 320.59 256.63 310.00 257.00 C 299.41 257.37 294.43 258.22 286.75 266.75 C 279.08 275.29 277.32 277.73 274.24 288.25 C 271.17 298.76 273.77 311.59 273.00 326.00 C 272.23 340.41 273.85 360.30 273.00 375.00 C 272.15 389.70 276.92 406.28 267.00 416.00
M 116.00 201.00 
C 128.81 198.25 149.95 201.24 163.67 201.33 C 177.39 201.42 174.00 213.89 174.00 228.00 C 174.00 242.11 174.20 262.73 174.00 278.00 C 173.80 293.27 174.53 313.66 174.00 329.00 C 173.47 344.34 175.24 364.62 174.00 379.00 C 172.76 393.38 179.87 412.06 166.75 415.19 C 153.62 418.32 134.73 414.87 120.00 416.00 C 105.27 417.13 106.55 402.87 107.00 388.00 C 107.45 373.13 106.69 353.57 107.00 338.00 C 107.31 322.43 106.63 302.41 107.00 287.00 C 107.37 271.59 106.30 251.25 107.00 237.00 C 107.70 222.75 102.57 203.89 116.00 201.00 Z"/>
</g>
<g fill="#000000" fill-opacity="0.78" stroke="None">
<path d="
M 289.00 1.00 
C 288.96 1.00 289.00 0.00 289.00 0.00
L 274.00 0.00
C 278.01 1.82 284.17 1.00 289.00 1.00 Z"/>
</g>
<g fill="#000000" fill-opacity="0.52" stroke="None">
<path d="
M 289.00 1.00 
C 292.67 1.00 296.33 1.00 300.00 1.00
C 299.96 1.00 300.00 0.00 300.00 0.00
L 289.00 0.00
C 289.00 0.00 288.96 1.00 289.00 1.00 Z"/>
</g>
<g fill="#000000" fill-opacity="0.25" stroke="None">
<path d="
M 300.00 1.00 
C 302.65 1.00 305.35 0.86 308.00 1.00
C 307.99 1.00 308.00 0.00 308.00 0.00
L 300.00 0.00
C 300.00 0.00 299.96 1.00 300.00 1.00 Z"/>
</g>
<g fill="#000000" fill-opacity="0.02" stroke="None">
<path d="
M 308.00 1.00 
C 340.94 2.79 377.22 4.05 407.25 7.40 C 437.28 10.74 456.26 14.66 477.75 36.25 C 499.23 57.84 501.41 77.13 504.41 107.25 C 507.40 137.38 511.00 171.84 511.00 206.00
C 511.00 205.96 512.00 206.00 512.00 206.00
L 512.00 0.00
L 308.00 0.00
C 308.00 0.00 307.99 1.00 308.00 1.00 Z"/>
</g>
<g fill="#000000" fill-opacity="0.01" stroke="None">
<path d="
M 133.00 96.00 
C 99.85 101.47 86.77 142.24 107.75 167.25 C 128.74 192.26 172.91 185.64 182.65 153.70 C 192.38 121.76 164.85 90.74 133.00 96.00 Z"/>
</g>
<g fill="#000000" fill-opacity="0.00" stroke="None">
<path d="
M 267.00 416.00 
C 276.92 406.28 272.15 389.70 273.00 375.00 C 273.85 360.30 272.23 340.41 273.00 326.00 C 273.77 311.59 271.17 298.76 274.24 288.25 C 277.32 277.73 279.08 275.29 286.75 266.75 C 294.43 258.22 299.41 257.37 310.00 257.00 C 320.59 256.63 328.89 259.48 335.92 268.08 C 342.95 276.68 342.36 279.46 344.68 291.32 C 347.00 303.18 345.51 321.04 346.00 335.00 C 346.49 348.96 345.19 370.59 346.00 384.00 C 346.81 397.41 340.76 414.40 355.33 415.33 C 369.90 416.26 389.24 413.82 403.97 415.02 C 418.71 416.22 413.47 401.79 414.00 388.00 C 414.53 374.21 413.67 354.08 414.00 340.00 C 414.33 325.92 413.91 305.62 414.07 293.08 C 414.23 280.53 413.62 274.17 411.80 264.25 C 409.98 254.33 408.86 249.30 405.19 241.25 C 401.52 233.21 400.35 227.26 393.08 219.92 C 385.81 212.58 378.76 207.60 371.75 204.39 C 364.74 201.19 357.50 200.51 348.75 199.26 C 340.00 198.02 325.24 198.60 316.75 199.74 C 308.26 200.87 299.84 204.92 293.25 208.81 C 286.67 212.70 277.50 220.71 272.00 228.00
C 276.39 209.91 269.94 198.29 252.00 202.00 C 234.06 205.71 217.07 195.69 205.00 207.00
C 203.86 237.34 206.59 266.92 205.00 299.00 C 203.41 331.08 208.06 361.96 205.00 395.00 C 201.94 428.04 243.01 412.90 267.00 416.00 Z"/>
</g>
<g fill="#000000" fill-opacity="0.00" stroke="None">
<path d="
M 116.00 201.00 
C 102.57 203.89 107.70 222.75 107.00 237.00 C 106.30 251.25 107.37 271.59 107.00 287.00 C 106.63 302.41 107.31 322.43 107.00 338.00 C 106.69 353.57 107.45 373.13 107.00 388.00 C 106.55 402.87 105.27 417.13 120.00 416.00 C 134.73 414.87 153.62 418.32 166.75 415.19 C 179.87 412.06 172.76 393.38 174.00 379.00 C 175.24 364.62 173.47 344.34 174.00 329.00 C 174.53 313.66 173.80 293.27 174.00 278.00 C 174.20 262.73 174.00 242.11 174.00 228.00 C 174.00 213.89 177.39 201.42 163.67 201.33 C 149.95 201.24 128.81 198.25 116.00 201.00 Z"/>
</g>
<g fill="#000000" fill-opacity="0.28" stroke="None">
<path d="
M 0.00 212.00 
C 0.50 212.00 1.00 212.00 1.00 212.00
C 1.00 210.00 0.97 208.00 1.00 206.00
C 1.00 206.00 0.50 206.00 0.00 206.00
L 0.00 212.00 Z"/>
</g>
<g fill="#000000" fill-opacity="0.31" stroke="None">
<path d="
M 511.00 214.00 
C 511.00 213.96 512.00 214.00 512.00 214.00
L 512.00 206.00
C 512.00 206.00 511.00 205.96 511.00 206.00
C 511.00 208.67 511.00 211.33 511.00 214.00 Z"/>
</g>
<g fill="#000000" fill-opacity="0.49" stroke="None">
<path d="
M 0.00 220.00 
C 0.50 220.00 1.00 220.00 1.00 220.00
C 1.00 217.33 1.00 214.67 1.00 212.00
C 1.00 212.00 0.50 212.00 0.00 212.00
L 0.00 220.00 Z"/>
</g>
<g fill="#000000" fill-opacity="0.58" stroke="None">
<path d="
M 511.00 227.00 
C 511.00 226.96 512.00 227.00 512.00 227.00
L 512.00 214.00
C 512.00 214.00 511.00 213.96 511.00 214.00
C 511.00 218.33 511.00 222.67 511.00 227.00 Z"/>
</g>
<g fill="#000000" fill-opacity="0.70" stroke="None">
<path d="
M 0.00 232.00 
C 1.82 228.99 1.00 223.83 1.00 220.00
C 1.00 220.00 0.50 220.00 0.00 220.00
L 0.00 232.00 Z"/>
</g>
<g fill="#000000" fill-opacity="0.79" stroke="None">
<path d="
M 512.00 235.00 
L 512.00 227.00
C 512.00 227.00 511.00 226.96 511.00 227.00
C 511.00 229.52 510.31 233.23 512.00 235.00 Z"/>
</g>
<g fill="#000000" fill-opacity="0.80" stroke="None">
<path d="
M 0.00 285.00 
C 0.50 285.00 1.00 285.00 1.00 285.00
C 1.00 282.48 1.69 278.77 0.00 277.00
L 0.00 285.00 Z"/>
</g>
<g fill="#000000" fill-opacity="0.76" stroke="None">
<path d="
M 511.00 286.00 
C 511.00 285.96 512.00 286.00 512.00 286.00
L 512.00 279.00
C 510.21 280.39 511.04 283.80 511.00 286.00 Z"/>
</g>
<g fill="#000000" fill-opacity="0.56" stroke="None">
<path d="
M 0.00 300.00 
C 0.50 300.00 1.00 300.00 1.00 300.00
C 1.00 295.00 1.00 290.00 1.00 285.00
C 1.00 285.00 0.50 285.00 0.00 285.00
L 0.00 300.00 Z"/>
</g>
<g fill="#000000" fill-opacity="0.61" stroke="None">
<path d="
M 511.00 294.00 
C 511.00 293.96 512.00 294.00 512.00 294.00
L 512.00 286.00
C 512.00 286.00 511.00 285.96 511.00 286.00
C 510.95 288.66 511.00 291.34 511.00 294.00 Z"/>
</g>
<g fill="#000000" fill-opacity="0.43" stroke="None">
<path d="
M 512.00 302.00 
L 512.00 294.00
C 512.00 294.00 511.00 293.96 511.00 294.00
C 511.00 296.52 510.31 300.23 512.00 302.00 Z"/>
</g>
<g fill="#000000" fill-opacity="0.25" stroke="None">
<path d="
M 0.00 308.00 
C 0.50 308.00 1.00 308.00 1.00 308.00
C 0.90 305.34 1.00 302.66 1.00 300.00
C 1.00 300.00 0.50 300.00 0.00 300.00
L 0.00 308.00 Z"/>
</g>
<g fill="#000000" fill-opacity="0.02" stroke="None">
<path d="
M 306.00 511.00 
C 306.04 511.00 306.00 512.00 306.00 512.00
L 512.00 512.00
L 512.00 306.00
C 507.50 345.87 508.72 396.35 501.80 430.75 C 494.88 465.15 467.47 493.55 433.30 500.29 C 399.13 507.02 348.36 511.00 306.00 511.00 Z"/>
</g>
<g fill="#000000" fill-opacity="0.02" stroke="None">
<path d="
M 0.00 512.00 
L 206.00 512.00
C 172.08 510.35 135.98 506.83 105.25 504.20 C 74.52 501.57 56.41 497.22 34.75 475.25 C 13.09 453.28 10.71 435.25 7.60 404.74 C 4.49 374.24 2.28 341.65 1.00 308.00
C 1.00 308.00 0.50 308.00 0.00 308.00
L 0.00 512.00 Z"/>
</g>
<g fill="#000000" fill-opacity="0.45" stroke="None">
<path d="
M 210.00 512.00 
L 220.00 512.00
C 220.00 511.50 220.00 511.00 220.00 511.00
C 216.82 511.00 212.43 510.26 210.00 512.00 Z"/>
</g>
<g fill="#000000" fill-opacity="0.67" stroke="None">
<path d="
M 220.00 512.00 
L 230.00 512.00
C 230.00 511.50 230.00 511.00 230.00 511.00
C 226.67 511.00 223.33 511.00 220.00 511.00
C 220.00 511.00 220.00 511.50 220.00 512.00 Z"/>
</g>
<g fill="#000000" fill-opacity="0.84" stroke="None">
<path d="
M 230.00 512.00 
L 239.00 512.00
C 236.98 510.21 232.84 511.00 230.00 511.00
C 230.00 511.00 230.00 511.50 230.00 512.00 Z"/>
</g>
<g fill="#000000" fill-opacity="0.84" stroke="None">
<path d="
M 273.00 512.00 
L 282.00 512.00
C 282.00 511.50 282.00 511.00 282.00 511.00
C 279.15 511.00 275.10 510.28 273.00 512.00 Z"/>
</g>
<g fill="#000000" fill-opacity="0.67" stroke="None">
<path d="
M 282.00 512.00 
L 292.00 512.00
C 292.00 511.50 292.00 511.00 292.00 511.00
C 288.67 511.00 285.33 511.00 282.00 511.00
C 282.00 511.00 282.00 511.50 282.00 512.00 Z"/>
</g>
<g fill="#000000" fill-opacity="0.50" stroke="None">
<path d="
M 292.00 512.00 
L 298.00 512.00
C 298.00 511.50 298.00 511.00 298.00 511.00
C 296.00 511.00 294.00 511.00 292.00 511.00
C 292.00 511.00 292.00 511.50 292.00 512.00 Z"/>
</g>
<g fill="#000000" fill-opacity="0.30" stroke="None">
<path d="
M 298.00 512.00 
L 306.00 512.00
C 306.00 512.00 306.04 511.00 306.00 511.00
C 303.33 511.00 300.67 511.00 298.00 511.00
C 298.00 511.00 298.00 511.50 298.00 512.00 Z"/>
</g>
</svg>