<svg xmlns="http://www.w3.org/2000/svg"
viewBox = "0 0 810 517"
width="810"
height="517">
<g fill="None" fill-opacity="0.0" stroke="#FEFEFE" stroke-opacity="1.00" stroke-width="0.3"><path d="
M 0.00 517.00 
L 810.00 517.00
L 810.00 0.00
L 0.00 0.00
L 0.00 517.00
M 526.00 325.00 
C 525.88 326.44 526.34 327.19 525.00 328.00
C 522.17 329.72 510.42 328.41 507.00 328.00
C 499.17 329.94 494.06 337.13 488.70 343.70 C 483.33 350.26 480.24 360.31 481.00 370.00 C 481.76 379.69 483.42 387.20 490.30 395.70 C 497.19 404.19 487.56 413.25 477.00 411.00 C 466.44 408.75 452.19 412.33 442.00 411.00 C 431.81 409.67 416.88 412.24 408.00 411.00 C 399.12 409.76 381.55 415.39 380.00 404.00
C 375.52 412.30 360.62 407.12 352.00 408.00 C 343.38 408.88 328.25 408.07 319.00 408.00 C 309.76 407.93 295.82 409.16 287.00 408.00 C 278.18 406.84 263.54 409.42 266.78 419.22 C 270.02 429.02 275.89 430.69 277.78 440.22 C 279.66 449.76 279.25 460.10 275.22 468.22 C 271.19 476.35 267.50 481.13 260.25 486.25 C 253.01 491.38 245.06 493.90 236.00 494.00 C 226.93 494.10 217.59 492.23 210.30 486.70 C 203.02 481.16 200.48 476.98 196.03 468.97 C 191.58 460.96 191.76 450.79 192.98 440.98 C 194.19 431.16 201.39 428.88 203.97 418.97 C 206.55 409.06 191.69 406.79 183.00 408.00 C 174.31 409.21 159.15 407.74 150.00 408.00 C 140.85 408.26 126.49 408.59 118.00 408.00 C 109.51 407.41 93.35 412.19 91.08 401.92 C 88.80 391.66 91.80 379.56 91.00 369.00 C 90.20 358.44 90.88 347.69 91.00 337.00 C 91.12 326.31 89.95 314.72 91.00 304.00 C 92.05 293.28 103.63 296.00 109.70 301.30 C 115.76 306.61 127.44 308.16 135.67 307.67 C 143.90 307.18 152.48 303.36 159.25 298.25 C 166.02 293.14 169.71 287.84 172.98 279.98 C 176.24 272.11 177.02 259.93 174.07 251.93 C 171.12 243.92 168.23 237.84 161.75 232.25 C 155.27 226.65 147.24 223.00 138.99 222.01 C 130.75 221.01 117.13 222.37 111.25 227.25 C 105.38 232.14 93.73 237.13 91.23 226.77 C 88.73 216.41 91.96 204.76 91.00 194.00 C 90.04 183.24 91.32 173.15 91.00 162.00 C 90.68 150.85 90.93 140.71 91.00 129.00 C 91.07 117.29 106.99 121.40 116.00 121.00 C 125.01 120.60 138.86 121.39 148.00 121.00 C 157.14 120.61 172.81 121.62 181.00 121.00 C 189.19 120.38 206.47 119.42 204.99 129.01 C 203.52 138.59 194.90 141.24 193.68 150.68 C 192.46 160.12 191.35 170.00 195.77 178.23 C 200.20 186.46 202.23 191.16 209.75 196.25 C 217.27 201.35 224.88 204.59 234.00 205.00 C 243.13 205.41 251.59 202.80 259.08 198.08 C 266.56 193.35 270.25 188.38 274.30 180.30 C 278.36 172.23 279.85 162.85 278.00 153.00 C 276.15 143.15 272.18 141.72 267.23 131.77 C 262.28 121.82 277.94 119.06 287.00 121.00 C 296.06 122.94 309.85 119.65 319.00 121.00 C 328.16 122.35 343.83 119.34 352.00 121.00 C 360.17 122.66 378.31 116.14 381.00 125.00
C 384.04 118.04 398.00 123.26 405.00 122.00 C 412.00 120.74 424.90 122.77 433.00 122.00 C 441.10 121.23 451.44 122.77 460.00 122.00 C 468.56 121.23 478.71 123.68 487.02 121.02 C 495.34 118.36 493.16 109.89 488.25 104.75 C 483.34 99.61 482.43 91.13 480.67 84.33 C 478.92 77.53 481.11 67.19 483.98 60.98 C 486.84 54.76 490.39 50.29 495.75 45.75 C 501.12 41.21 508.09 38.19 515.00 37.00 C 521.91 35.81 532.53 35.04 539.02 37.98 C 545.52 40.91 550.79 44.08 555.75 49.25 C 560.71 54.42 563.76 59.97 565.93 67.07 C 568.09 74.18 567.15 84.04 565.68 91.68 C 564.20 99.31 559.39 102.48 555.70 109.70 C 552.01 116.91 560.86 123.54 569.00 122.00 C 577.14 120.46 588.41 122.84 597.00 122.00 C 605.59 121.16 615.32 122.66 624.00 122.00 C 632.68 121.34 643.55 122.90 652.00 122.00 C 660.45 121.10 670.02 122.36 669.99 132.01 C 669.96 141.66 670.19 149.79 670.00 159.00 C 669.81 168.21 670.45 178.15 670.00 187.00 C 669.55 195.85 671.05 205.79 670.00 214.00 C 668.95 222.21 669.88 233.96 679.00 233.00 C 688.13 232.04 689.93 225.50 698.03 224.03 C 706.12 222.55 714.21 220.90 721.67 223.33 C 729.13 225.76 734.07 228.32 739.75 233.25 C 745.43 238.17 747.84 242.64 750.92 249.08 C 754.01 255.51 755.12 266.77 754.00 274.00 C 752.88 281.23 749.36 287.46 744.75 292.75 C 740.15 298.04 735.93 301.94 729.77 304.77 C 723.61 307.61 713.03 310.51 706.00 309.00 C 698.97 307.49 691.85 306.66 686.31 301.70 C 680.76 296.73 670.04 296.42 670.00 306.00 C 669.96 315.58 670.04 323.82 670.00 333.00 C 669.96 342.18 670.07 352.18 670.00 361.00 C 669.93 369.82 670.15 380.89 670.00 389.00 C 669.85 397.11 672.15 406.60 663.92 409.92 C 655.68 413.24 645.80 410.30 637.00 411.00 C 628.20 411.70 618.77 410.95 610.00 411.00 C 601.23 411.05 590.50 411.51 582.00 411.00 C 573.50 410.49 563.57 413.75 557.25 407.75 C 550.92 401.75 558.16 395.37 561.75 389.75 C 565.35 384.14 567.48 374.16 567.00 367.00 C 566.52 359.84 564.94 351.89 561.08 345.92 C 557.22 339.96 553.11 335.77 547.25 331.75 C 541.40 327.72 533.11 325.68 526.00 325.00 Z"/>
</g>
<g fill="None" fill-opacity="0.0" stroke="#C3E7A1" stroke-opacity="1.00" stroke-width="0.3"><path d="
M 381.00 125.00 
C 384.80 137.51 379.02 152.93 381.00 166.00 C 382.98 179.07 379.51 193.78 381.00 207.00
C 384.46 208.37 392.71 204.73 395.00 208.00
C 398.29 212.70 392.53 223.73 395.00 229.00
C 391.00 229.00 387.00 229.00 383.00 229.00
C 386.23 229.98 393.85 236.75 397.00 229.00
C 397.00 226.07 396.33 221.79 397.00 219.00 C 397.67 216.21 395.42 210.26 397.00 208.00
C 399.03 205.10 410.13 207.06 414.00 207.00 C 417.87 206.94 429.13 205.45 432.00 208.00
C 434.59 210.30 435.91 220.55 437.00 224.00
C 441.01 228.17 448.64 227.45 452.75 233.25 C 456.86 239.05 460.24 242.17 462.93 249.07 C 465.61 255.98 465.39 263.65 465.02 271.02 C 464.66 278.40 458.86 283.39 458.00 290.00
C 458.85 292.92 458.63 296.17 460.00 299.00
C 470.92 269.74 480.38 239.06 490.00 209.00
C 492.83 205.52 502.46 206.48 507.00 207.00 C 511.54 207.52 522.91 204.79 526.00 208.00
C 527.73 227.12 526.00 246.75 526.00 266.00 C 526.00 285.25 527.65 305.79 526.00 325.00
C 533.11 325.68 541.40 327.72 547.25 331.75 C 553.11 335.77 557.22 339.96 561.08 345.92 C 564.94 351.89 566.52 359.84 567.00 367.00 C 567.48 374.16 565.35 384.14 561.75 389.75 C 558.16 395.37 550.92 401.75 557.25 407.75 C 563.57 413.75 573.50 410.49 582.00 411.00 C 590.50 411.51 601.23 411.05 610.00 411.00 C 618.77 410.95 628.20 411.70 637.00 411.00 C 645.80 410.30 655.68 413.24 663.92 409.92 C 672.15 406.60 669.85 397.11 670.00 389.00 C 670.15 380.89 669.93 369.82 670.00 361.00 C 670.07 352.18 669.96 342.18 670.00 333.00 C 670.04 323.82 669.96 315.58 670.00 306.00 C 670.04 296.42 680.76 296.73 686.31 301.70 C 691.85 306.66 698.97 307.49 706.00 309.00 C 713.03 310.51 723.61 307.61 729.77 304.77 C 735.93 301.94 740.15 298.04 744.75 292.75 C 749.36 287.46 752.88 281.23 754.00 274.00 C 755.12 266.77 754.01 255.51 750.92 249.08 C 747.84 242.64 745.43 238.17 739.75 233.25 C 734.07 228.32 729.13 225.76 721.67 223.33 C 714.21 220.90 706.12 222.55 698.03 224.03 C 689.93 225.50 688.13 232.04 679.00 233.00 C 669.88 233.96 668.95 222.21 670.00 214.00 C 671.05 205.79 669.55 195.85 670.00 187.00 C 670.45 178.15 669.81 168.21 670.00 159.00 C 670.19 149.79 669.96 141.66 669.99 132.01 C 670.02 122.36 660.45 121.10 652.00 122.00 C 643.55 122.90 632.68 121.34 624.00 122.00 C 615.32 122.66 605.59 121.16 597.00 122.00 C 588.41 122.84 577.14 120.46 569.00 122.00 C 560.86 123.54 552.01 116.91 555.70 109.70 C 559.39 102.48 564.20 99.31 565.68 91.68 C 567.15 84.04 568.09 74.18 565.93 67.07 C 563.76 59.97 560.71 54.42 555.75 49.25 C 550.79 44.08 545.52 40.91 539.02 37.98 C 532.53 35.04 521.91 35.81 515.00 37.00 C 508.09 38.19 501.12 41.21 495.75 45.75 C 490.39 50.29 486.84 54.76 483.98 60.98 C 481.11 67.19 478.92 77.53 480.67 84.33 C 482.43 91.13 483.34 99.61 488.25 104.75 C 493.16 109.89 495.34 118.36 487.02 121.02 C 478.71 123.68 468.56 121.23 460.00 122.00 C 451.44 122.77 441.10 121.23 433.00 122.00 C 424.90 122.77 412.00 120.74 405.00 122.00 C 398.00 123.26 384.04 118.04 381.00 125.00 Z"/>
</g>
<g fill="None" fill-opacity="0.0" stroke="#F39EBF" stroke-opacity="1.00" stroke-width="0.3"><path d="
M 380.00 404.00 
C 378.53 393.23 381.93 378.28 381.00 367.00 C 380.07 355.72 380.61 339.59 381.00 329.00 C 381.39 318.41 376.21 300.14 388.00 297.00
C 391.44 296.08 394.12 296.93 397.00 300.00
C 396.99 276.33 397.00 252.67 397.00 229.00
C 393.85 236.75 386.23 229.98 383.00 229.00
C 376.00 229.00 369.00 229.00 362.00 229.00
C 362.00 262.00 362.00 295.00 362.00 328.00
C 353.67 328.00 345.33 328.00 337.00 328.00
C 337.00 295.00 337.00 262.00 337.00 229.00
C 318.33 229.00 299.67 229.00 281.00 229.00
C 281.00 262.00 281.00 295.00 281.00 328.00
C 272.33 328.00 263.67 328.00 255.00 328.00
C 255.00 295.00 255.00 262.00 255.00 229.00
C 244.00 229.00 233.00 229.00 222.00 229.00
C 222.00 221.67 222.00 214.33 222.00 207.00
C 275.00 207.00 328.00 207.00 381.00 207.00
C 379.51 193.78 382.98 179.07 381.00 166.00 C 379.02 152.93 384.80 137.51 381.00 125.00
C 378.31 116.14 360.17 122.66 352.00 121.00 C 343.83 119.34 328.16 122.35 319.00 121.00 C 309.85 119.65 296.06 122.94 287.00 121.00 C 277.94 119.06 262.28 121.82 267.23 131.77 C 272.18 141.72 276.15 143.15 278.00 153.00 C 279.85 162.85 278.36 172.23 274.30 180.30 C 270.25 188.38 266.56 193.35 259.08 198.08 C 251.59 202.80 243.13 205.41 234.00 205.00 C 224.88 204.59 217.27 201.35 209.75 196.25 C 202.23 191.16 200.20 186.46 195.77 178.23 C 191.35 170.00 192.46 160.12 193.68 150.68 C 194.90 141.24 203.52 138.59 204.99 129.01 C 206.47 119.42 189.19 120.38 181.00 121.00 C 172.81 121.62 157.14 120.61 148.00 121.00 C 138.86 121.39 125.01 120.60 116.00 121.00 C 106.99 121.40 91.07 117.29 91.00 129.00 C 90.93 140.71 90.68 150.85 91.00 162.00 C 91.32 173.15 90.04 183.24 91.00 194.00 C 91.96 204.76 88.73 216.41 91.23 226.77 C 93.73 237.13 105.38 232.14 111.25 227.25 C 117.13 222.37 130.75 221.01 138.99 222.01 C 147.24 223.00 155.27 226.65 161.75 232.25 C 168.23 237.84 171.12 243.92 174.07 251.93 C 177.02 259.93 176.24 272.11 172.98 279.98 C 169.71 287.84 166.02 293.14 159.25 298.25 C 152.48 303.36 143.90 307.18 135.67 307.67 C 127.44 308.16 115.76 306.61 109.70 301.30 C 103.63 296.00 92.05 293.28 91.00 304.00 C 89.95 314.72 91.12 326.31 91.00 337.00 C 90.88 347.69 90.20 358.44 91.00 369.00 C 91.80 379.56 88.80 391.66 91.08 401.92 C 93.35 412.19 109.51 407.41 118.00 408.00 C 126.49 408.59 140.85 408.26 150.00 408.00 C 159.15 407.74 174.31 409.21 183.00 408.00 C 191.69 406.79 206.55 409.06 203.97 418.97 C 201.39 428.88 194.19 431.16 192.98 440.98 C 191.76 450.79 191.58 460.96 196.03 468.97 C 200.48 476.98 203.02 481.16 210.30 486.70 C 217.59 492.23 226.93 494.10 236.00 494.00 C 245.06 493.90 253.01 491.38 260.25 486.25 C 267.50 481.13 271.19 476.35 275.22 468.22 C 279.25 460.10 279.66 449.76 277.78 440.22 C 275.89 430.69 270.02 429.02 266.78 419.22 C 263.54 409.42 278.18 406.84 287.00 408.00 C 295.82 409.16 309.76 407.93 319.00 408.00 C 328.25 408.07 343.38 408.88 352.00 408.00 C 360.62 407.12 375.52 412.30 380.00 404.00 Z"/>
</g>
<g fill="None" fill-opacity="0.0" stroke="#E51D69" stroke-opacity="1.00" stroke-width="0.3"><path d="
M 383.00 229.00 
C 387.00 229.00 391.00 229.00 395.00 229.00
C 392.53 223.73 398.29 212.70 395.00 208.00
C 390.36 208.80 384.86 207.37 381.00 207.00
C 328.00 207.00 275.00 207.00 222.00 207.00
C 222.00 214.33 222.00 221.67 222.00 229.00
C 233.00 229.00 244.00 229.00 255.00 229.00
C 255.00 262.00 255.00 295.00 255.00 328.00
C 263.67 328.00 272.33 328.00 281.00 328.00
C 281.00 295.00 281.00 262.00 281.00 229.00
C 299.67 229.00 318.33 229.00 337.00 229.00
C 337.00 262.00 337.00 295.00 337.00 328.00
C 345.33 328.00 353.67 328.00 362.00 328.00
C 362.00 295.00 362.00 262.00 362.00 229.00
C 369.00 229.00 376.00 229.00 383.00 229.00 Z"/>
</g>
<g fill="None" fill-opacity="0.0" stroke="#D18D88" stroke-opacity="1.00" stroke-width="0.3"><path d="
M 395.00 208.00 
C 392.71 204.73 384.46 208.37 381.00 207.00
C 384.86 207.37 390.36 208.80 395.00 208.00 Z"/>
</g>
<g fill="None" fill-opacity="0.0" stroke="#D18C88" stroke-opacity="1.00" stroke-width="0.3"><path d="
M 397.00 208.00 
C 408.67 208.00 420.33 208.00 432.00 208.00
C 429.13 205.45 417.87 206.94 414.00 207.00 C 410.13 207.06 399.03 205.10 397.00 208.00 Z"/>
</g>
<g fill="None" fill-opacity="0.0" stroke="#D18D88" stroke-opacity="1.00" stroke-width="0.3"><path d="
M 490.00 209.00 
C 493.81 205.64 501.99 208.71 507.00 208.00 C 512.01 207.29 519.74 208.00 525.00 208.00
C 525.50 208.00 526.00 208.00 526.00 208.00
C 522.91 204.79 511.54 207.52 507.00 207.00 C 502.46 206.48 492.83 205.52 490.00 209.00 Z"/>
</g>
<g fill="None" fill-opacity="0.0" stroke="#E41D68" stroke-opacity="1.00" stroke-width="0.3"><path d="
M 397.00 229.00 
C 397.00 252.67 396.99 276.33 397.00 300.00
C 397.00 300.50 397.00 301.00 397.00 301.00
C 397.00 310.00 397.00 319.00 397.00 328.00
C 404.67 328.00 412.33 328.00 420.00 328.00
C 420.00 321.33 420.00 314.67 420.00 308.00
C 420.00 283.30 419.33 257.34 419.00 234.00
C 426.46 257.61 433.15 281.48 441.00 305.00
C 442.96 311.55 443.45 320.05 446.98 326.02 C 450.50 331.99 466.23 325.66 472.00 328.00
C 481.06 296.42 492.74 265.55 502.00 234.00
C 502.36 264.00 501.75 296.85 502.00 328.00
C 503.67 328.00 505.33 328.00 507.00 328.00
C 510.42 328.41 522.17 329.72 525.00 328.00
C 527.69 288.24 521.41 247.68 525.00 208.00
C 519.74 208.00 512.01 207.29 507.00 208.00 C 501.99 208.71 493.81 205.64 490.00 209.00
C 480.38 239.06 470.92 269.74 460.00 299.00
C 458.63 296.17 458.85 292.92 458.00 290.00
C 451.69 268.33 443.92 245.89 437.00 224.00
C 435.91 220.55 434.59 210.30 432.00 208.00
C 420.33 208.00 408.67 208.00 397.00 208.00
C 395.42 210.26 397.67 216.21 397.00 219.00 C 396.33 221.79 397.00 226.07 397.00 229.00 Z"/>
</g>
<g fill="None" fill-opacity="0.0" stroke="#D95F7B" stroke-opacity="1.00" stroke-width="0.3"><path d="
M 525.00 328.00 
C 526.34 327.19 525.88 326.44 526.00 325.00
C 527.65 305.79 526.00 285.25 526.00 266.00 C 526.00 246.75 527.73 227.12 526.00 208.00
C 526.00 208.00 525.50 208.00 525.00 208.00
C 521.41 247.68 527.69 288.24 525.00 328.00 Z"/>
</g>
<g fill="None" fill-opacity="0.0" stroke="#F39EBF" stroke-opacity="1.00" stroke-width="0.3"><path d="
M 458.00 290.00 
C 458.86 283.39 464.66 278.40 465.02 271.02 C 465.39 263.65 465.61 255.98 462.93 249.07 C 460.24 242.17 456.86 239.05 452.75 233.25 C 448.64 227.45 441.01 228.17 437.00 224.00
C 443.92 245.89 451.69 268.33 458.00 290.00 Z"/>
</g>
<g fill="None" fill-opacity="0.0" stroke="#F49DBF" stroke-opacity="1.00" stroke-width="0.3"><path d="
M 420.00 308.00 
C 425.10 312.38 437.78 301.90 441.00 305.00
C 433.15 281.48 426.46 257.61 419.00 234.00
C 419.33 257.34 420.00 283.30 420.00 308.00 Z"/>
</g>
<g fill="None" fill-opacity="0.0" stroke="#C3E7A1" stroke-opacity="1.00" stroke-width="0.3"><path d="
M 441.00 305.00 
C 437.78 301.90 425.10 312.38 420.00 308.00
C 420.00 314.67 420.00 321.33 420.00 328.00
C 412.33 328.00 404.67 328.00 397.00 328.00
C 397.00 319.00 397.00 310.00 397.00 301.00
C 394.01 298.84 392.04 296.64 388.00 297.00
C 376.21 300.14 381.39 318.41 381.00 329.00 C 380.61 339.59 380.07 355.72 381.00 367.00 C 381.93 378.28 378.53 393.23 380.00 404.00
C 381.55 415.39 399.12 409.76 408.00 411.00 C 416.88 412.24 431.81 409.67 442.00 411.00 C 452.19 412.33 466.44 408.75 477.00 411.00 C 487.56 413.25 497.19 404.19 490.30 395.70 C 483.42 387.20 481.76 379.69 481.00 370.00 C 480.24 360.31 483.33 350.26 488.70 343.70 C 494.06 337.13 499.17 329.94 507.00 328.00
C 505.33 328.00 503.67 328.00 502.00 328.00
C 501.75 296.85 502.36 264.00 502.00 234.00
C 492.74 265.55 481.06 296.42 472.00 328.00
C 466.23 325.66 450.50 331.99 446.98 326.02 C 443.45 320.05 442.96 311.55 441.00 305.00 Z"/>
</g>
<g fill="None" fill-opacity="0.0" stroke="#FCEBF1" stroke-opacity="1.00" stroke-width="0.3"><path d="
M 388.00 297.00 
C 392.04 296.64 394.01 298.84 397.00 301.00
C 397.00 301.00 397.00 300.50 397.00 300.00
C 394.12 296.93 391.44 296.08 388.00 297.00 Z"/>
</g>
<g fill="#FEFEFE" fill-opacity="1.00" stroke="None">
<path d="
M 0.00 517.00 
L 810.00 517.00
L 810.00 0.00
L 0.00 0.00
L 0.00 517.00
M 526.00 325.00 
C 525.88 326.44 526.34 327.19 525.00 328.00
C 522.17 329.72 510.42 328.41 507.00 328.00
C 499.17 329.94 494.06 337.13 488.70 343.70 C 483.33 350.26 480.24 360.31 481.00 370.00 C 481.76 379.69 483.42 387.20 490.30 395.70 C 497.19 404.19 487.56 413.25 477.00 411.00 C 466.44 408.75 452.19 412.33 442.00 411.00 C 431.81 409.67 416.88 412.24 408.00 411.00 C 399.12 409.76 381.55 415.39 380.00 404.00
C 375.52 412.30 360.62 407.12 352.00 408.00 C 343.38 408.88 328.25 408.07 319.00 408.00 C 309.76 407.93 295.82 409.16 287.00 408.00 C 278.18 406.84 263.54 409.42 266.78 419.22 C 270.02 429.02 275.89 430.69 277.78 440.22 C 279.66 449.76 279.25 460.10 275.22 468.22 C 271.19 476.35 267.50 481.13 260.25 486.25 C 253.01 491.38 245.06 493.90 236.00 494.00 C 226.93 494.10 217.59 492.23 210.30 486.70 C 203.02 481.16 200.48 476.98 196.03 468.97 C 191.58 460.96 191.76 450.79 192.98 440.98 C 194.19 431.16 201.39 428.88 203.97 418.97 C 206.55 409.06 191.69 406.79 183.00 408.00 C 174.31 409.21 159.15 407.74 150.00 408.00 C 140.85 408.26 126.49 408.59 118.00 408.00 C 109.51 407.41 93.35 412.19 91.08 401.92 C 88.80 391.66 91.80 379.56 91.00 369.00 C 90.20 358.44 90.88 347.69 91.00 337.00 C 91.12 326.31 89.95 314.72 91.00 304.00 C 92.05 293.28 103.63 296.00 109.70 301.30 C 115.76 306.61 127.44 308.16 135.67 307.67 C 143.90 307.18 152.48 303.36 159.25 298.25 C 166.02 293.14 169.71 287.84 172.98 279.98 C 176.24 272.11 177.02 259.93 174.07 251.93 C 171.12 243.92 168.23 237.84 161.75 232.25 C 155.27 226.65 147.24 223.00 138.99 222.01 C 130.75 221.01 117.13 222.37 111.25 227.25 C 105.38 232.14 93.73 237.13 91.23 226.77 C 88.73 216.41 91.96 204.76 91.00 194.00 C 90.04 183.24 91.32 173.15 91.00 162.00 C 90.68 150.85 90.93 140.71 91.00 129.00 C 91.07 117.29 106.99 121.40 116.00 121.00 C 125.01 120.60 138.86 121.39 148.00 121.00 C 157.14 120.61 172.81 121.62 181.00 121.00 C 189.19 120.38 206.47 119.42 204.99 129.01 C 203.52 138.59 194.90 141.24 193.68 150.68 C 192.46 160.12 191.35 170.00 195.77 178.23 C 200.20 186.46 202.23 191.16 209.75 196.25 C 217.27 201.35 224.88 204.59 234.00 205.00 C 243.13 205.41 251.59 202.80 259.08 198.08 C 266.56 193.35 270.25 188.38 274.30 180.30 C 278.36 172.23 279.85 162.85 278.00 153.00 C 276.15 143.15 272.18 141.72 267.23 131.77 C 262.28 121.82 277.94 119.06 287.00 121.00 C 296.06 122.94 309.85 119.65 319.00 121.00 C 328.16 122.35 343.83 119.34 352.00 121.00 C 360.17 122.66 378.31 116.14 381.00 125.00
C 384.04 118.04 398.00 123.26 405.00 122.00 C 412.00 120.74 424.90 122.77 433.00 122.00 C 441.10 121.23 451.44 122.77 460.00 122.00 C 468.56 121.23 478.71 123.68 487.02 121.02 C 495.34 118.36 493.16 109.89 488.25 104.75 C 483.34 99.61 482.43 91.13 480.67 84.33 C 478.92 77.53 481.11 67.19 483.98 60.98 C 486.84 54.76 490.39 50.29 495.75 45.75 C 501.12 41.21 508.09 38.19 515.00 37.00 C 521.91 35.81 532.53 35.04 539.02 37.98 C 545.52 40.91 550.79 44.08 555.75 49.25 C 560.71 54.42 563.76 59.97 565.93 67.07 C 568.09 74.18 567.15 84.04 565.68 91.68 C 564.20 99.31 559.39 102.48 555.70 109.70 C 552.01 116.91 560.86 123.54 569.00 122.00 C 577.14 120.46 588.41 122.84 597.00 122.00 C 605.59 121.16 615.32 122.66 624.00 122.00 C 632.68 121.34 643.55 122.90 652.00 122.00 C 660.45 121.10 670.02 122.36 669.99 132.01 C 669.96 141.66 670.19 149.79 670.00 159.00 C 669.81 168.21 670.45 178.15 670.00 187.00 C 669.55 195.85 671.05 205.79 670.00 214.00 C 668.95 222.21 669.88 233.96 679.00 233.00 C 688.13 232.04 689.93 225.50 698.03 224.03 C 706.12 222.55 714.21 220.90 721.67 223.33 C 729.13 225.76 734.07 228.32 739.75 233.25 C 745.43 238.17 747.84 242.64 750.92 249.08 C 754.01 255.51 755.12 266.77 754.00 274.00 C 752.88 281.23 749.36 287.46 744.75 292.75 C 740.15 298.04 735.93 301.94 729.77 304.77 C 723.61 307.61 713.03 310.51 706.00 309.00 C 698.97 307.49 691.85 306.66 686.31 301.70 C 680.76 296.73 670.04 296.42 670.00 306.00 C 669.96 315.58 670.04 323.82 670.00 333.00 C 669.96 342.18 670.07 352.18 670.00 361.00 C 669.93 369.82 670.15 380.89 670.00 389.00 C 669.85 397.11 672.15 406.60 663.92 409.92 C 655.68 413.24 645.80 410.30 637.00 411.00 C 628.20 411.70 618.77 410.95 610.00 411.00 C 601.23 411.05 590.50 411.51 582.00 411.00 C 573.50 410.49 563.57 413.75 557.25 407.75 C 550.92 401.75 558.16 395.37 561.75 389.75 C 565.35 384.14 567.48 374.16 567.00 367.00 C 566.52 359.84 564.94 351.89 561.08 345.92 C 557.22 339.96 553.11 335.77 547.25 331.75 C 541.40 327.72 533.11 325.68 526.00 325.00 Z"/>
</g>
<g fill="#C3E7A1" fill-opacity="1.00" stroke="None">
<path d="
M 381.00 125.00 
C 384.80 137.51 379.02 152.93 381.00 166.00 C 382.98 179.07 379.51 193.78 381.00 207.00
C 384.46 208.37 392.71 204.73 395.00 208.00
C 398.29 212.70 392.53 223.73 395.00 229.00
C 391.00 229.00 387.00 229.00 383.00 229.00
C 386.23 229.98 393.85 236.75 397.00 229.00
C 397.00 226.07 396.33 221.79 397.00 219.00 C 397.67 216.21 395.42 210.26 397.00 208.00
C 399.03 205.10 410.13 207.06 414.00 207.00 C 417.87 206.94 429.13 205.45 432.00 208.00
C 434.59 210.30 435.91 220.55 437.00 224.00
C 441.01 228.17 448.64 227.45 452.75 233.25 C 456.86 239.05 460.24 242.17 462.93 249.07 C 465.61 255.98 465.39 263.65 465.02 271.02 C 464.66 278.40 458.86 283.39 458.00 290.00
C 458.85 292.92 458.63 296.17 460.00 299.00
C 470.92 269.74 480.38 239.06 490.00 209.00
C 492.83 205.52 502.46 206.48 507.00 207.00 C 511.54 207.52 522.91 204.79 526.00 208.00
C 527.73 227.12 526.00 246.75 526.00 266.00 C 526.00 285.25 527.65 305.79 526.00 325.00
C 533.11 325.68 541.40 327.72 547.25 331.75 C 553.11 335.77 557.22 339.96 561.08 345.92 C 564.94 351.89 566.52 359.84 567.00 367.00 C 567.48 374.16 565.35 384.14 561.75 389.75 C 558.16 395.37 550.92 401.75 557.25 407.75 C 563.57 413.75 573.50 410.49 582.00 411.00 C 590.50 411.51 601.23 411.05 610.00 411.00 C 618.77 410.95 628.20 411.70 637.00 411.00 C 645.80 410.30 655.68 413.24 663.92 409.92 C 672.15 406.60 669.85 397.11 670.00 389.00 C 670.15 380.89 669.93 369.82 670.00 361.00 C 670.07 352.18 669.96 342.18 670.00 333.00 C 670.04 323.82 669.96 315.58 670.00 306.00 C 670.04 296.42 680.76 296.73 686.31 301.70 C 691.85 306.66 698.97 307.49 706.00 309.00 C 713.03 310.51 723.61 307.61 729.77 304.77 C 735.93 301.94 740.15 298.04 744.75 292.75 C 749.36 287.46 752.88 281.23 754.00 274.00 C 755.12 266.77 754.01 255.51 750.92 249.08 C 747.84 242.64 745.43 238.17 739.75 233.25 C 734.07 228.32 729.13 225.76 721.67 223.33 C 714.21 220.90 706.12 222.55 698.03 224.03 C 689.93 225.50 688.13 232.04 679.00 233.00 C 669.88 233.96 668.95 222.21 670.00 214.00 C 671.05 205.79 669.55 195.85 670.00 187.00 C 670.45 178.15 669.81 168.21 670.00 159.00 C 670.19 149.79 669.96 141.66 669.99 132.01 C 670.02 122.36 660.45 121.10 652.00 122.00 C 643.55 122.90 632.68 121.34 624.00 122.00 C 615.32 122.66 605.59 121.16 597.00 122.00 C 588.41 122.84 577.14 120.46 569.00 122.00 C 560.86 123.54 552.01 116.91 555.70 109.70 C 559.39 102.48 564.20 99.31 565.68 91.68 C 567.15 84.04 568.09 74.18 565.93 67.07 C 563.76 59.97 560.71 54.42 555.75 49.25 C 550.79 44.08 545.52 40.91 539.02 37.98 C 532.53 35.04 521.91 35.81 515.00 37.00 C 508.09 38.19 501.12 41.21 495.75 45.75 C 490.39 50.29 486.84 54.76 483.98 60.98 C 481.11 67.19 478.92 77.53 480.67 84.33 C 482.43 91.13 483.34 99.61 488.25 104.75 C 493.16 109.89 495.34 118.36 487.02 121.02 C 478.71 123.68 468.56 121.23 460.00 122.00 C 451.44 122.77 441.10 121.23 433.00 122.00 C 424.90 122.77 412.00 120.74 405.00 122.00 C 398.00 123.26 384.04 118.04 381.00 125.00 Z"/>
</g>
<g fill="#F39EBF" fill-opacity="1.00" stroke="None">
<path d="
M 380.00 404.00 
C 378.53 393.23 381.93 378.28 381.00 367.00 C 380.07 355.72 380.61 339.59 381.00 329.00 C 381.39 318.41 376.21 300.14 388.00 297.00
C 391.44 296.08 394.12 296.93 397.00 300.00
C 396.99 276.33 397.00 252.67 397.00 229.00
C 393.85 236.75 386.23 229.98 383.00 229.00
C 376.00 229.00 369.00 229.00 362.00 229.00
C 362.00 262.00 362.00 295.00 362.00 328.00
C 353.67 328.00 345.33 328.00 337.00 328.00
C 337.00 295.00 337.00 262.00 337.00 229.00
C 318.33 229.00 299.67 229.00 281.00 229.00
C 281.00 262.00 281.00 295.00 281.00 328.00
C 272.33 328.00 263.67 328.00 255.00 328.00
C 255.00 295.00 255.00 262.00 255.00 229.00
C 244.00 229.00 233.00 229.00 222.00 229.00
C 222.00 221.67 222.00 214.33 222.00 207.00
C 275.00 207.00 328.00 207.00 381.00 207.00
C 379.51 193.78 382.98 179.07 381.00 166.00 C 379.02 152.93 384.80 137.51 381.00 125.00
C 378.31 116.14 360.17 122.66 352.00 121.00 C 343.83 119.34 328.16 122.35 319.00 121.00 C 309.85 119.65 296.06 122.94 287.00 121.00 C 277.94 119.06 262.28 121.82 267.23 131.77 C 272.18 141.72 276.15 143.15 278.00 153.00 C 279.85 162.85 278.36 172.23 274.30 180.30 C 270.25 188.38 266.56 193.35 259.08 198.08 C 251.59 202.80 243.13 205.41 234.00 205.00 C 224.88 204.59 217.27 201.35 209.75 196.25 C 202.23 191.16 200.20 186.46 195.77 178.23 C 191.35 170.00 192.46 160.12 193.68 150.68 C 194.90 141.24 203.52 138.59 204.99 129.01 C 206.47 119.42 189.19 120.38 181.00 121.00 C 172.81 121.62 157.14 120.61 148.00 121.00 C 138.86 121.39 125.01 120.60 116.00 121.00 C 106.99 121.40 91.07 117.29 91.00 129.00 C 90.93 140.71 90.68 150.85 91.00 162.00 C 91.32 173.15 90.04 183.24 91.00 194.00 C 91.96 204.76 88.73 216.41 91.23 226.77 C 93.73 237.13 105.38 232.14 111.25 227.25 C 117.13 222.37 130.75 221.01 138.99 222.01 C 147.24 223.00 155.27 226.65 161.75 232.25 C 168.23 237.84 171.12 243.92 174.07 251.93 C 177.02 259.93 176.24 272.11 172.98 279.98 C 169.71 287.84 166.02 293.14 159.25 298.25 C 152.48 303.36 143.90 307.18 135.67 307.67 C 127.44 308.16 115.76 306.61 109.70 301.30 C 103.63 296.00 92.05 293.28 91.00 304.00 C 89.95 314.72 91.12 326.31 91.00 337.00 C 90.88 347.69 90.20 358.44 91.00 369.00 C 91.80 379.56 88.80 391.66 91.08 401.92 C 93.35 412.19 109.51 407.41 118.00 408.00 C 126.49 408.59 140.85 408.26 150.00 408.00 C 159.15 407.74 174.31 409.21 183.00 408.00 C 191.69 406.79 206.55 409.06 203.97 418.97 C 201.39 428.88 194.19 431.16 192.98 440.98 C 191.76 450.79 191.58 460.96 196.03 468.97 C 200.48 476.98 203.02 481.16 210.30 486.70 C 217.59 492.23 226.93 494.10 236.00 494.00 C 245.06 493.90 253.01 491.38 260.25 486.25 C 267.50 481.13 271.19 476.35 275.22 468.22 C 279.25 460.10 279.66 449.76 277.78 440.22 C 275.89 430.69 270.02 429.02 266.78 419.22 C 263.54 409.42 278.18 406.84 287.00 408.00 C 295.82 409.16 309.76 407.93 319.00 408.00 C 328.25 408.07 343.38 408.88 352.00 408.00 C 360.62 407.12 375.52 412.30 380.00 404.00 Z"/>
</g>
<g fill="#E51D69" fill-opacity="1.00" stroke="None">
<path d="
M 383.00 229.00 
C 387.00 229.00 391.00 229.00 395.00 229.00
C 392.53 223.73 398.29 212.70 395.00 208.00
C 390.36 208.80 384.86 207.37 381.00 207.00
C 328.00 207.00 275.00 207.00 222.00 207.00
C 222.00 214.33 222.00 221.67 222.00 229.00
C 233.00 229.00 244.00 229.00 255.00 229.00
C 255.00 262.00 255.00 295.00 255.00 328.00
C 263.67 328.00 272.33 328.00 281.00 328.00
C 281.00 295.00 281.00 262.00 281.00 229.00
C 299.67 229.00 318.33 229.00 337.00 229.00
C 337.00 262.00 337.00 295.00 337.00 328.00
C 345.33 328.00 353.67 328.00 362.00 328.00
C 362.00 295.00 362.00 262.00 362.00 229.00
C 369.00 229.00 376.00 229.00 383.00 229.00 Z"/>
</g>
<g fill="#D18D88" fill-opacity="1.00" stroke="None">
<path d="
M 395.00 208.00 
C 392.71 204.73 384.46 208.37 381.00 207.00
C 384.86 207.37 390.36 208.80 395.00 208.00 Z"/>
</g>
<g fill="#D18C88" fill-opacity="1.00" stroke="None">
<path d="
M 397.00 208.00 
C 408.67 208.00 420.33 208.00 432.00 208.00
C 429.13 205.45 417.87 206.94 414.00 207.00 C 410.13 207.06 399.03 205.10 397.00 208.00 Z"/>
</g>
<g fill="#D18D88" fill-opacity="1.00" stroke="None">
<path d="
M 490.00 209.00 
C 493.81 205.64 501.99 208.71 507.00 208.00 C 512.01 207.29 519.74 208.00 525.00 208.00
C 525.50 208.00 526.00 208.00 526.00 208.00
C 522.91 204.79 511.54 207.52 507.00 207.00 C 502.46 206.48 492.83 205.52 490.00 209.00 Z"/>
</g>
<g fill="#E41D68" fill-opacity="1.00" stroke="None">
<path d="
M 397.00 229.00 
C 397.00 252.67 396.99 276.33 397.00 300.00
C 397.00 300.50 397.00 301.00 397.00 301.00
C 397.00 310.00 397.00 319.00 397.00 328.00
C 404.67 328.00 412.33 328.00 420.00 328.00
C 420.00 321.33 420.00 314.67 420.00 308.00
C 420.00 283.30 419.33 257.34 419.00 234.00
C 426.46 257.61 433.15 281.48 441.00 305.00
C 442.96 311.55 443.45 320.05 446.98 326.02 C 450.50 331.99 466.23 325.66 472.00 328.00
C 481.06 296.42 492.74 265.55 502.00 234.00
C 502.36 264.00 501.75 296.85 502.00 328.00
C 503.67 328.00 505.33 328.00 507.00 328.00
C 510.42 328.41 522.17 329.72 525.00 328.00
C 527.69 288.24 521.41 247.68 525.00 208.00
C 519.74 208.00 512.01 207.29 507.00 208.00 C 501.99 208.71 493.81 205.64 490.00 209.00
C 480.38 239.06 470.92 269.74 460.00 299.00
C 458.63 296.17 458.85 292.92 458.00 290.00
C 451.69 268.33 443.92 245.89 437.00 224.00
C 435.91 220.55 434.59 210.30 432.00 208.00
C 420.33 208.00 408.67 208.00 397.00 208.00
C 395.42 210.26 397.67 216.21 397.00 219.00 C 396.33 221.79 397.00 226.07 397.00 229.00 Z"/>
</g>
<g fill="#D95F7B" fill-opacity="1.00" stroke="None">
<path d="
M 525.00 328.00 
C 526.34 327.19 525.88 326.44 526.00 325.00
C 527.65 305.79 526.00 285.25 526.00 266.00 C 526.00 246.75 527.73 227.12 526.00 208.00
C 526.00 208.00 525.50 208.00 525.00 208.00
C 521.41 247.68 527.69 288.24 525.00 328.00 Z"/>
</g>
<g fill="#F39EBF" fill-opacity="1.00" stroke="None">
<path d="
M 458.00 290.00 
C 458.86 283.39 464.66 278.40 465.02 271.02 C 465.39 263.65 465.61 255.98 462.93 249.07 C 460.24 242.17 456.86 239.05 452.75 233.25 C 448.64 227.45 441.01 228.17 437.00 224.00
C 443.92 245.89 451.69 268.33 458.00 290.00 Z"/>
</g>
<g fill="#F49DBF" fill-opacity="1.00" stroke="None">
<path d="
M 420.00 308.00 
C 425.10 312.38 437.78 301.90 441.00 305.00
C 433.15 281.48 426.46 257.61 419.00 234.00
C 419.33 257.34 420.00 283.30 420.00 308.00 Z"/>
</g>
<g fill="#C3E7A1" fill-opacity="1.00" stroke="None">
<path d="
M 441.00 305.00 
C 437.78 301.90 425.10 312.38 420.00 308.00
C 420.00 314.67 420.00 321.33 420.00 328.00
C 412.33 328.00 404.67 328.00 397.00 328.00
C 397.00 319.00 397.00 310.00 397.00 301.00
C 394.01 298.84 392.04 296.64 388.00 297.00
C 376.21 300.14 381.39 318.41 381.00 329.00 C 380.61 339.59 380.07 355.72 381.00 367.00 C 381.93 378.28 378.53 393.23 380.00 404.00
C 381.55 415.39 399.12 409.76 408.00 411.00 C 416.88 412.24 431.81 409.67 442.00 411.00 C 452.19 412.33 466.44 408.75 477.00 411.00 C 487.56 413.25 497.19 404.19 490.30 395.70 C 483.42 387.20 481.76 379.69 481.00 370.00 C 480.24 360.31 483.33 350.26 488.70 343.70 C 494.06 337.13 499.17 329.94 507.00 328.00
C 505.33 328.00 503.67 328.00 502.00 328.00
C 501.75 296.85 502.36 264.00 502.00 234.00
C 492.74 265.55 481.06 296.42 472.00 328.00
C 466.23 325.66 450.50 331.99 446.98 326.02 C 443.45 320.05 442.96 311.55 441.00 305.00 Z"/>
</g>
<g fill="#FCEBF1" fill-opacity="1.00" stroke="None">
<path d="
M 388.00 297.00 
C 392.04 296.64 394.01 298.84 397.00 301.00
C 397.00 301.00 397.00 300.50 397.00 300.00
C 394.12 296.93 391.44 296.08 388.00 297.00 Z"/>
</g>
</svg>