<svg xmlns="http://www.w3.org/2000/svg" 
viewBox = "0 0 512 512"
width="512"
height="512">
<g fill="None" fill-opacity="0.0" stroke="#000000" stroke-opacity="0.00" stroke-width="0.3"><path d="
M 0.00 512.00 
L 512.00 512.00
L 512.00 0.00
L 0.00 0.00
L 0.00 512.00
M 300.00 24.00 
C 318.75 30.01 323.79 50.85 323.00 69.00 C 322.21 87.15 336.11 102.26 342.00 118.00
C 342.13 118.35 342.67 118.83 343.00 119.00
C 353.91 124.44 361.06 131.38 373.22 134.78 C 385.38 138.17 399.78 140.72 413.07 140.93 C 426.36 141.13 431.57 154.05 439.00 162.00
C 446.34 169.86 456.87 172.67 458.98 185.02 C 461.08 197.38 461.42 208.74 452.75 218.75 C 444.09 228.76 434.84 232.09 422.00 232.00 C 409.16 231.91 394.66 230.08 382.93 227.07 C 371.19 224.07 360.81 220.82 350.31 215.69 C 339.80 210.57 331.77 205.69 322.00 200.00
C 322.27 228.90 321.64 261.46 322.00 290.00 C 322.36 318.54 321.31 352.81 322.00 380.00 C 322.69 407.19 315.49 429.92 303.08 451.08 C 290.67 472.24 276.24 482.36 257.00 495.00
C 244.02 502.47 230.67 506.27 216.00 509.00 C 201.33 511.72 179.53 511.19 165.93 507.07 C 152.32 502.95 137.00 498.74 126.77 490.23 C 116.54 481.72 102.12 475.61 98.00 463.00
C 97.68 462.76 97.00 463.00 97.00 463.00
C 88.80 458.99 84.73 450.10 78.25 443.75 C 71.77 437.41 68.27 428.69 63.69 420.31 C 59.12 411.92 55.51 401.27 53.67 391.33 C 51.83 381.38 49.97 366.68 51.00 356.00 C 52.03 345.32 54.66 333.61 57.93 323.93 C 61.19 314.24 65.45 306.85 70.30 298.30 C 75.16 289.76 80.85 283.98 87.75 276.75 C 94.66 269.53 100.38 265.33 108.70 259.70 C 117.01 254.06 124.88 250.90 134.69 246.69 C 144.51 242.49 155.08 243.51 165.69 246.31 C 176.31 249.10 178.30 259.75 185.00 266.00
C 191.86 272.41 201.11 275.08 204.31 285.69 C 207.50 296.31 207.30 308.29 201.74 317.74 C 196.19 327.20 188.43 331.84 178.93 334.93 C 169.42 338.01 162.31 343.35 155.75 350.75 C 149.20 358.15 144.35 369.15 143.67 378.67 C 142.99 388.19 142.73 403.73 150.00 411.00
C 160.70 421.70 184.06 419.88 197.08 414.08 C 210.09 408.27 220.60 399.03 225.98 383.98 C 231.35 368.92 230.09 346.96 230.00 329.00 C 229.91 311.04 230.03 289.77 230.00 271.00 C 229.97 252.23 230.00 231.06 230.00 212.00 C 230.00 192.94 229.96 171.94 230.00 153.00 C 230.04 134.06 229.90 113.43 230.00 95.00 C 230.10 76.57 229.77 53.26 230.00 36.00 C 230.23 18.74 241.23 7.54 256.00 3.00
C 272.78 -2.16 294.39 5.63 300.00 24.00 Z"/>
</g>
<g fill="None" fill-opacity="0.0" stroke="#00CBC6" stroke-opacity="0.95" stroke-width="0.3"><path d="
M 256.00 3.00 
C 259.15 4.99 256.37 14.09 257.00 18.00 C 257.63 21.91 257.00 29.74 257.00 34.00
C 261.14 28.65 268.55 24.53 274.68 22.68 C 280.81 20.82 294.72 18.72 300.00 24.00
C 294.39 5.63 272.78 -2.16 256.00 3.00 Z"/>
</g>
<g fill="None" fill-opacity="0.0" stroke="#08FEF8" stroke-opacity="0.98" stroke-width="0.3"><path d="
M 150.00 411.00 
C 158.21 419.21 162.41 429.98 175.08 433.92 C 187.75 437.87 203.75 440.26 216.07 434.07 C 228.40 427.89 234.66 423.02 241.92 410.92 C 249.19 398.83 249.51 385.25 249.00 370.00 C 248.49 354.75 249.23 336.82 249.00 321.00 C 248.77 305.18 249.10 288.04 249.00 272.00 C 248.90 255.96 249.05 239.07 249.00 223.00 C 248.95 206.93 249.02 191.04 249.00 175.00 C 248.98 158.96 249.01 141.92 249.00 126.00 C 248.99 110.08 249.01 92.52 249.00 77.00 C 248.99 61.48 247.49 47.80 257.00 36.00
C 257.00 35.50 257.00 34.50 257.00 34.00
C 257.00 29.74 257.63 21.91 257.00 18.00 C 256.37 14.09 259.15 4.99 256.00 3.00
C 241.23 7.54 230.23 18.74 230.00 36.00 C 229.77 53.26 230.10 76.57 230.00 95.00 C 229.90 113.43 230.04 134.06 230.00 153.00 C 229.96 171.94 230.00 192.94 230.00 212.00 C 230.00 231.06 229.97 252.23 230.00 271.00 C 230.03 289.77 229.91 311.04 230.00 329.00 C 230.09 346.96 231.35 368.92 225.98 383.98 C 220.60 399.03 210.09 408.27 197.08 414.08 C 184.06 419.88 160.70 421.70 150.00 411.00 Z"/>
</g>
<g fill="None" fill-opacity="0.0" stroke="#000000" stroke-opacity="1.00" stroke-width="0.3"><path d="
M 257.00 34.00 
C 257.00 34.50 257.00 35.50 257.00 36.00
C 257.00 53.68 257.01 71.31 257.00 89.00 C 256.99 106.69 257.03 124.29 257.00 142.00 C 256.97 159.71 257.07 177.25 257.00 195.00 C 256.93 212.75 257.16 231.26 257.00 249.00 C 256.84 266.74 257.35 284.34 257.00 302.00 C 256.65 319.66 257.79 337.43 257.00 355.00 C 256.21 372.57 258.74 390.57 257.00 408.00 C 255.26 425.43 260.78 444.98 257.00 462.00
C 272.00 452.73 278.85 438.28 287.92 423.92 C 297.00 409.57 302.00 386.68 302.00 369.00
C 302.00 361.01 302.00 352.98 302.00 345.00 C 302.00 337.02 301.99 328.96 302.00 321.00 C 302.01 313.04 301.98 304.92 302.00 297.00 C 302.02 289.08 301.96 280.82 302.00 273.00 C 302.04 265.18 301.92 256.61 302.00 249.00 C 302.08 241.39 301.82 232.13 302.00 225.00 C 302.18 217.87 301.61 207.08 302.00 201.00 C 302.39 194.92 300.27 179.69 304.00 180.00
C 310.86 180.57 316.03 189.71 323.23 191.77 C 330.43 193.83 337.37 199.61 345.22 201.78 C 353.08 203.94 360.74 207.22 369.22 208.78 C 377.71 210.34 389.02 211.91 398.00 212.00 C 406.98 212.09 417.15 212.46 424.23 207.23 C 431.31 202.00 435.55 197.95 438.92 189.92 C 442.29 181.90 441.51 170.29 439.00 162.00
C 420.10 159.81 399.08 157.26 381.78 150.22 C 364.48 143.19 355.85 131.60 343.00 119.00
C 342.67 118.83 342.13 118.35 342.00 118.00
C 335.78 112.50 329.99 108.04 324.75 101.25 C 319.52 94.46 316.14 87.63 312.08 79.92 C 308.01 72.22 306.73 62.14 304.02 53.98 C 301.32 45.81 306.48 30.48 300.00 24.00
C 294.72 18.72 280.81 20.82 274.68 22.68 C 268.55 24.53 261.14 28.65 257.00 34.00 Z"/>
</g>
<g fill="None" fill-opacity="0.0" stroke="#C90038" stroke-opacity="0.94" stroke-width="0.3"><path d="
M 342.00 118.00 
C 336.11 102.26 322.21 87.15 323.00 69.00 C 323.79 50.85 318.75 30.01 300.00 24.00
C 306.48 30.48 301.32 45.81 304.02 53.98 C 306.73 62.14 308.01 72.22 312.08 79.92 C 316.14 87.63 319.52 94.46 324.75 101.25 C 329.99 108.04 335.78 112.50 342.00 118.00 Z"/>
</g>
<g fill="None" fill-opacity="0.0" stroke="#212440" stroke-opacity="0.99" stroke-width="0.3"><path d="
M 150.00 411.00 
C 144.47 405.47 137.17 403.05 132.75 395.25 C 128.32 387.46 124.66 379.45 124.00 370.00 C 123.35 360.55 125.47 349.49 129.77 341.77 C 134.07 334.06 137.45 328.75 144.25 323.25 C 151.05 317.75 159.83 315.57 167.23 312.23 C 174.63 308.89 181.28 302.13 183.92 294.92 C 186.57 287.72 190.56 272.63 185.00 266.00
C 180.79 260.98 167.32 263.23 161.33 264.33 C 155.34 265.43 146.23 269.48 140.31 272.31 C 134.38 275.13 128.44 279.13 122.92 282.92 C 117.40 286.70 112.09 291.29 107.25 296.25 C 102.40 301.21 98.28 305.52 94.25 311.25 C 90.22 316.97 86.47 322.65 83.23 329.23 C 79.99 335.81 77.40 342.87 75.22 350.22 C 73.04 357.58 71.42 365.76 71.00 374.00 C 70.58 382.25 70.95 394.10 71.93 402.07 C 72.90 410.05 74.72 417.69 76.98 425.02 C 79.23 432.36 83.11 438.30 85.92 445.08 C 88.73 451.85 94.81 456.31 97.00 463.00
C 97.00 463.00 97.68 462.76 98.00 463.00
C 119.96 479.78 148.84 492.54 177.00 491.00 C 205.16 489.46 235.68 483.69 256.00 463.00
C 256.25 462.75 256.68 462.20 257.00 462.00
C 260.78 444.98 255.26 425.43 257.00 408.00 C 258.74 390.57 256.21 372.57 257.00 355.00 C 257.79 337.43 256.65 319.66 257.00 302.00 C 257.35 284.34 256.84 266.74 257.00 249.00 C 257.16 231.26 256.93 212.75 257.00 195.00 C 257.07 177.25 256.97 159.71 257.00 142.00 C 257.03 124.29 256.99 106.69 257.00 89.00 C 257.01 71.31 257.00 53.68 257.00 36.00
C 247.49 47.80 248.99 61.48 249.00 77.00 C 249.01 92.52 248.99 110.08 249.00 126.00 C 249.01 141.92 248.98 158.96 249.00 175.00 C 249.02 191.04 248.95 206.93 249.00 223.00 C 249.05 239.07 248.90 255.96 249.00 272.00 C 249.10 288.04 248.77 305.18 249.00 321.00 C 249.23 336.82 248.49 354.75 249.00 370.00 C 249.51 385.25 249.19 398.83 241.92 410.92 C 234.66 423.02 228.40 427.89 216.07 434.07 C 203.75 440.26 187.75 437.87 175.08 433.92 C 162.41 429.98 158.21 419.21 150.00 411.00 Z"/>
</g>
<g fill="None" fill-opacity="0.0" stroke="#00CAC5" stroke-opacity="0.94" stroke-width="0.3"><path d="
M 439.00 162.00 
C 431.57 154.05 426.36 141.13 413.07 140.93 C 399.78 140.72 385.38 138.17 373.22 134.78 C 361.06 131.38 353.91 124.44 343.00 119.00
C 355.85 131.60 364.48 143.19 381.78 150.22 C 399.08 157.26 420.10 159.81 439.00 162.00 Z"/>
</g>
<g fill="None" fill-opacity="0.0" stroke="#B00041" stroke-opacity="0.96" stroke-width="0.3"><path d="
M 304.00 180.00 
C 298.78 241.72 307.96 307.42 302.00 369.00
C 302.00 386.68 297.00 409.57 287.92 423.92 C 278.85 438.28 272.00 452.73 257.00 462.00
C 256.68 462.20 256.25 462.75 256.00 463.00
C 257.17 466.91 257.95 473.36 257.00 478.00 C 256.05 482.64 259.09 490.78 257.00 495.00
C 276.24 482.36 290.67 472.24 303.08 451.08 C 315.49 429.92 322.69 407.19 322.00 380.00 C 321.31 352.81 322.36 318.54 322.00 290.00 C 321.64 261.46 322.27 228.90 322.00 200.00
C 331.77 205.69 339.80 210.57 350.31 215.69 C 360.81 220.82 371.19 224.07 382.93 227.07 C 394.66 230.08 409.16 231.91 422.00 232.00 C 434.84 232.09 444.09 228.76 452.75 218.75 C 461.42 208.74 461.08 197.38 458.98 185.02 C 456.87 172.67 446.34 169.86 439.00 162.00
C 441.51 170.29 442.29 181.90 438.92 189.92 C 435.55 197.95 431.31 202.00 424.23 207.23 C 417.15 212.46 406.98 212.09 398.00 212.00 C 389.02 211.91 377.71 210.34 369.22 208.78 C 360.74 207.22 353.08 203.94 345.22 201.78 C 337.37 199.61 330.43 193.83 323.23 191.77 C 316.03 189.71 310.86 180.57 304.00 180.00 Z"/>
</g>
<g fill="None" fill-opacity="0.0" stroke="#420019" stroke-opacity="0.80" stroke-width="0.3"><path d="
M 302.00 369.00 
C 307.96 307.42 298.78 241.72 304.00 180.00
C 300.27 179.69 302.39 194.92 302.00 201.00 C 301.61 207.08 302.18 217.87 302.00 225.00 C 301.82 232.13 302.08 241.39 302.00 249.00 C 301.92 256.61 302.04 265.18 302.00 273.00 C 301.96 280.82 302.02 289.08 302.00 297.00 C 301.98 304.92 302.01 313.04 302.00 321.00 C 301.99 328.96 302.00 337.02 302.00 345.00 C 302.00 352.98 302.00 361.01 302.00 369.00 Z"/>
</g>
<g fill="None" fill-opacity="0.0" stroke="#08FDF7" stroke-opacity="0.96" stroke-width="0.3"><path d="
M 97.00 463.00 
C 94.81 456.31 88.73 451.85 85.92 445.08 C 83.11 438.30 79.23 432.36 76.98 425.02 C 74.72 417.69 72.90 410.05 71.93 402.07 C 70.95 394.10 70.58 382.25 71.00 374.00 C 71.42 365.76 73.04 357.58 75.22 350.22 C 77.40 342.87 79.99 335.81 83.23 329.23 C 86.47 322.65 90.22 316.97 94.25 311.25 C 98.28 305.52 102.40 301.21 107.25 296.25 C 112.09 291.29 117.40 286.70 122.92 282.92 C 128.44 279.13 134.38 275.13 140.31 272.31 C 146.23 269.48 155.34 265.43 161.33 264.33 C 167.32 263.23 180.79 260.98 185.00 266.00
C 178.30 259.75 176.31 249.10 165.69 246.31 C 155.08 243.51 144.51 242.49 134.69 246.69 C 124.88 250.90 117.01 254.06 108.70 259.70 C 100.38 265.33 94.66 269.53 87.75 276.75 C 80.85 283.98 75.16 289.76 70.30 298.30 C 65.45 306.85 61.19 314.24 57.93 323.93 C 54.66 333.61 52.03 345.32 51.00 356.00 C 49.97 366.68 51.83 381.38 53.67 391.33 C 55.51 401.27 59.12 411.92 63.69 420.31 C 68.27 428.69 71.77 437.41 78.25 443.75 C 84.73 450.10 88.80 458.99 97.00 463.00 Z"/>
</g>
<g fill="None" fill-opacity="0.0" stroke="#EF0043" stroke-opacity="0.96" stroke-width="0.3"><path d="
M 150.00 411.00 
C 142.73 403.73 142.99 388.19 143.67 378.67 C 144.35 369.15 149.20 358.15 155.75 350.75 C 162.31 343.35 169.42 338.01 178.93 334.93 C 188.43 331.84 196.19 327.20 201.74 317.74 C 207.30 308.29 207.50 296.31 204.31 285.69 C 201.11 275.08 191.86 272.41 185.00 266.00
C 190.56 272.63 186.57 287.72 183.92 294.92 C 181.28 302.13 174.63 308.89 167.23 312.23 C 159.83 315.57 151.05 317.75 144.25 323.25 C 137.45 328.75 134.07 334.06 129.77 341.77 C 125.47 349.49 123.35 360.55 124.00 370.00 C 124.66 379.45 128.32 387.46 132.75 395.25 C 137.17 403.05 144.47 405.47 150.00 411.00 Z"/>
</g>
<g fill="None" fill-opacity="0.0" stroke="#EE0044" stroke-opacity="0.96" stroke-width="0.3"><path d="
M 257.00 495.00 
C 259.09 490.78 256.05 482.64 257.00 478.00 C 257.95 473.36 257.17 466.91 256.00 463.00
C 235.68 483.69 205.16 489.46 177.00 491.00 C 148.84 492.54 119.96 479.78 98.00 463.00
C 102.12 475.61 116.54 481.72 126.77 490.23 C 137.00 498.74 152.32 502.95 165.93 507.07 C 179.53 511.19 201.33 511.72 216.00 509.00 C 230.67 506.27 244.02 502.47 257.00 495.00 Z"/>
</g>
<g fill="#000000" fill-opacity="0.00" stroke="None">
<path d="
M 0.00 512.00 
L 512.00 512.00
L 512.00 0.00
L 0.00 0.00
L 0.00 512.00
M 300.00 24.00 
C 318.75 30.01 323.79 50.85 323.00 69.00 C 322.21 87.15 336.11 102.26 342.00 118.00
C 342.13 118.35 342.67 118.83 343.00 119.00
C 353.91 124.44 361.06 131.38 373.22 134.78 C 385.38 138.17 399.78 140.72 413.07 140.93 C 426.36 141.13 431.57 154.05 439.00 162.00
C 446.34 169.86 456.87 172.67 458.98 185.02 C 461.08 197.38 461.42 208.74 452.75 218.75 C 444.09 228.76 434.84 232.09 422.00 232.00 C 409.16 231.91 394.66 230.08 382.93 227.07 C 371.19 224.07 360.81 220.82 350.31 215.69 C 339.80 210.57 331.77 205.69 322.00 200.00
C 322.27 228.90 321.64 261.46 322.00 290.00 C 322.36 318.54 321.31 352.81 322.00 380.00 C 322.69 407.19 315.49 429.92 303.08 451.08 C 290.67 472.24 276.24 482.36 257.00 495.00
C 244.02 502.47 230.67 506.27 216.00 509.00 C 201.33 511.72 179.53 511.19 165.93 507.07 C 152.32 502.95 137.00 498.74 126.77 490.23 C 116.54 481.72 102.12 475.61 98.00 463.00
C 97.68 462.76 97.00 463.00 97.00 463.00
C 88.80 458.99 84.73 450.10 78.25 443.75 C 71.77 437.41 68.27 428.69 63.69 420.31 C 59.12 411.92 55.51 401.27 53.67 391.33 C 51.83 381.38 49.97 366.68 51.00 356.00 C 52.03 345.32 54.66 333.61 57.93 323.93 C 61.19 314.24 65.45 306.85 70.30 298.30 C 75.16 289.76 80.85 283.98 87.75 276.75 C 94.66 269.53 100.38 265.33 108.70 259.70 C 117.01 254.06 124.88 250.90 134.69 246.69 C 144.51 242.49 155.08 243.51 165.69 246.31 C 176.31 249.10 178.30 259.75 185.00 266.00
C 191.86 272.41 201.11 275.08 204.31 285.69 C 207.50 296.31 207.30 308.29 201.74 317.74 C 196.19 327.20 188.43 331.84 178.93 334.93 C 169.42 338.01 162.31 343.35 155.75 350.75 C 149.20 358.15 144.35 369.15 143.67 378.67 C 142.99 388.19 142.73 403.73 150.00 411.00
C 160.70 421.70 184.06 419.88 197.08 414.08 C 210.09 408.27 220.60 399.03 225.98 383.98 C 231.35 368.92 230.09 346.96 230.00 329.00 C 229.91 311.04 230.03 289.77 230.00 271.00 C 229.97 252.23 230.00 231.06 230.00 212.00 C 230.00 192.94 229.96 171.94 230.00 153.00 C 230.04 134.06 229.90 113.43 230.00 95.00 C 230.10 76.57 229.77 53.26 230.00 36.00 C 230.23 18.74 241.23 7.54 256.00 3.00
C 272.78 -2.16 294.39 5.63 300.00 24.00 Z"/>
</g>
<g fill="#00CBC6" fill-opacity="0.95" stroke="None">
<path d="
M 256.00 3.00 
C 259.15 4.99 256.37 14.09 257.00 18.00 C 257.63 21.91 257.00 29.74 257.00 34.00
C 261.14 28.65 268.55 24.53 274.68 22.68 C 280.81 20.82 294.72 18.72 300.00 24.00
C 294.39 5.63 272.78 -2.16 256.00 3.00 Z"/>
</g>
<g fill="#08FEF8" fill-opacity="0.98" stroke="None">
<path d="
M 150.00 411.00 
C 158.21 419.21 162.41 429.98 175.08 433.92 C 187.75 437.87 203.75 440.26 216.07 434.07 C 228.40 427.89 234.66 423.02 241.92 410.92 C 249.19 398.83 249.51 385.25 249.00 370.00 C 248.49 354.75 249.23 336.82 249.00 321.00 C 248.77 305.18 249.10 288.04 249.00 272.00 C 248.90 255.96 249.05 239.07 249.00 223.00 C 248.95 206.93 249.02 191.04 249.00 175.00 C 248.98 158.96 249.01 141.92 249.00 126.00 C 248.99 110.08 249.01 92.52 249.00 77.00 C 248.99 61.48 247.49 47.80 257.00 36.00
C 257.00 35.50 257.00 34.50 257.00 34.00
C 257.00 29.74 257.63 21.91 257.00 18.00 C 256.37 14.09 259.15 4.99 256.00 3.00
C 241.23 7.54 230.23 18.74 230.00 36.00 C 229.77 53.26 230.10 76.57 230.00 95.00 C 229.90 113.43 230.04 134.06 230.00 153.00 C 229.96 171.94 230.00 192.94 230.00 212.00 C 230.00 231.06 229.97 252.23 230.00 271.00 C 230.03 289.77 229.91 311.04 230.00 329.00 C 230.09 346.96 231.35 368.92 225.98 383.98 C 220.60 399.03 210.09 408.27 197.08 414.08 C 184.06 419.88 160.70 421.70 150.00 411.00 Z"/>
</g>
<g fill="#000000" fill-opacity="1.00" stroke="None">
<path d="
M 257.00 34.00 
C 257.00 34.50 257.00 35.50 257.00 36.00
C 257.00 53.68 257.01 71.31 257.00 89.00 C 256.99 106.69 257.03 124.29 257.00 142.00 C 256.97 159.71 257.07 177.25 257.00 195.00 C 256.93 212.75 257.16 231.26 257.00 249.00 C 256.84 266.74 257.35 284.34 257.00 302.00 C 256.65 319.66 257.79 337.43 257.00 355.00 C 256.21 372.57 258.74 390.57 257.00 408.00 C 255.26 425.43 260.78 444.98 257.00 462.00
C 272.00 452.73 278.85 438.28 287.92 423.92 C 297.00 409.57 302.00 386.68 302.00 369.00
C 302.00 361.01 302.00 352.98 302.00 345.00 C 302.00 337.02 301.99 328.96 302.00 321.00 C 302.01 313.04 301.98 304.92 302.00 297.00 C 302.02 289.08 301.96 280.82 302.00 273.00 C 302.04 265.18 301.92 256.61 302.00 249.00 C 302.08 241.39 301.82 232.13 302.00 225.00 C 302.18 217.87 301.61 207.08 302.00 201.00 C 302.39 194.92 300.27 179.69 304.00 180.00
C 310.86 180.57 316.03 189.71 323.23 191.77 C 330.43 193.83 337.37 199.61 345.22 201.78 C 353.08 203.94 360.74 207.22 369.22 208.78 C 377.71 210.34 389.02 211.91 398.00 212.00 C 406.98 212.09 417.15 212.46 424.23 207.23 C 431.31 202.00 435.55 197.95 438.92 189.92 C 442.29 181.90 441.51 170.29 439.00 162.00
C 420.10 159.81 399.08 157.26 381.78 150.22 C 364.48 143.19 355.85 131.60 343.00 119.00
C 342.67 118.83 342.13 118.35 342.00 118.00
C 335.78 112.50 329.99 108.04 324.75 101.25 C 319.52 94.46 316.14 87.63 312.08 79.92 C 308.01 72.22 306.73 62.14 304.02 53.98 C 301.32 45.81 306.48 30.48 300.00 24.00
C 294.72 18.72 280.81 20.82 274.68 22.68 C 268.55 24.53 261.14 28.65 257.00 34.00 Z"/>
</g>
<g fill="#C90038" fill-opacity="0.94" stroke="None">
<path d="
M 342.00 118.00 
C 336.11 102.26 322.21 87.15 323.00 69.00 C 323.79 50.85 318.75 30.01 300.00 24.00
C 306.48 30.48 301.32 45.81 304.02 53.98 C 306.73 62.14 308.01 72.22 312.08 79.92 C 316.14 87.63 319.52 94.46 324.75 101.25 C 329.99 108.04 335.78 112.50 342.00 118.00 Z"/>
</g>
<g fill="#212440" fill-opacity="0.99" stroke="None">
<path d="
M 150.00 411.00 
C 144.47 405.47 137.17 403.05 132.75 395.25 C 128.32 387.46 124.66 379.45 124.00 370.00 C 123.35 360.55 125.47 349.49 129.77 341.77 C 134.07 334.06 137.45 328.75 144.25 323.25 C 151.05 317.75 159.83 315.57 167.23 312.23 C 174.63 308.89 181.28 302.13 183.92 294.92 C 186.57 287.72 190.56 272.63 185.00 266.00
C 180.79 260.98 167.32 263.23 161.33 264.33 C 155.34 265.43 146.23 269.48 140.31 272.31 C 134.38 275.13 128.44 279.13 122.92 282.92 C 117.40 286.70 112.09 291.29 107.25 296.25 C 102.40 301.21 98.28 305.52 94.25 311.25 C 90.22 316.97 86.47 322.65 83.23 329.23 C 79.99 335.81 77.40 342.87 75.22 350.22 C 73.04 357.58 71.42 365.76 71.00 374.00 C 70.58 382.25 70.95 394.10 71.93 402.07 C 72.90 410.05 74.72 417.69 76.98 425.02 C 79.23 432.36 83.11 438.30 85.92 445.08 C 88.73 451.85 94.81 456.31 97.00 463.00
C 97.00 463.00 97.68 462.76 98.00 463.00
C 119.96 479.78 148.84 492.54 177.00 491.00 C 205.16 489.46 235.68 483.69 256.00 463.00
C 256.25 462.75 256.68 462.20 257.00 462.00
C 260.78 444.98 255.26 425.43 257.00 408.00 C 258.74 390.57 256.21 372.57 257.00 355.00 C 257.79 337.43 256.65 319.66 257.00 302.00 C 257.35 284.34 256.84 266.74 257.00 249.00 C 257.16 231.26 256.93 212.75 257.00 195.00 C 257.07 177.25 256.97 159.71 257.00 142.00 C 257.03 124.29 256.99 106.69 257.00 89.00 C 257.01 71.31 257.00 53.68 257.00 36.00
C 247.49 47.80 248.99 61.48 249.00 77.00 C 249.01 92.52 248.99 110.08 249.00 126.00 C 249.01 141.92 248.98 158.96 249.00 175.00 C 249.02 191.04 248.95 206.93 249.00 223.00 C 249.05 239.07 248.90 255.96 249.00 272.00 C 249.10 288.04 248.77 305.18 249.00 321.00 C 249.23 336.82 248.49 354.75 249.00 370.00 C 249.51 385.25 249.19 398.83 241.92 410.92 C 234.66 423.02 228.40 427.89 216.07 434.07 C 203.75 440.26 187.75 437.87 175.08 433.92 C 162.41 429.98 158.21 419.21 150.00 411.00 Z"/>
</g>
<g fill="#00CAC5" fill-opacity="0.94" stroke="None">
<path d="
M 439.00 162.00 
C 431.57 154.05 426.36 141.13 413.07 140.93 C 399.78 140.72 385.38 138.17 373.22 134.78 C 361.06 131.38 353.91 124.44 343.00 119.00
C 355.85 131.60 364.48 143.19 381.78 150.22 C 399.08 157.26 420.10 159.81 439.00 162.00 Z"/>
</g>
<g fill="#B00041" fill-opacity="0.96" stroke="None">
<path d="
M 304.00 180.00 
C 298.78 241.72 307.96 307.42 302.00 369.00
C 302.00 386.68 297.00 409.57 287.92 423.92 C 278.85 438.28 272.00 452.73 257.00 462.00
C 256.68 462.20 256.25 462.75 256.00 463.00
C 257.17 466.91 257.95 473.36 257.00 478.00 C 256.05 482.64 259.09 490.78 257.00 495.00
C 276.24 482.36 290.67 472.24 303.08 451.08 C 315.49 429.92 322.69 407.19 322.00 380.00 C 321.31 352.81 322.36 318.54 322.00 290.00 C 321.64 261.46 322.27 228.90 322.00 200.00
C 331.77 205.69 339.80 210.57 350.31 215.69 C 360.81 220.82 371.19 224.07 382.93 227.07 C 394.66 230.08 409.16 231.91 422.00 232.00 C 434.84 232.09 444.09 228.76 452.75 218.75 C 461.42 208.74 461.08 197.38 458.98 185.02 C 456.87 172.67 446.34 169.86 439.00 162.00
C 441.51 170.29 442.29 181.90 438.92 189.92 C 435.55 197.95 431.31 202.00 424.23 207.23 C 417.15 212.46 406.98 212.09 398.00 212.00 C 389.02 211.91 377.71 210.34 369.22 208.78 C 360.74 207.22 353.08 203.94 345.22 201.78 C 337.37 199.61 330.43 193.83 323.23 191.77 C 316.03 189.71 310.86 180.57 304.00 180.00 Z"/>
</g>
<g fill="#420019" fill-opacity="0.80" stroke="None">
<path d="
M 302.00 369.00 
C 307.96 307.42 298.78 241.72 304.00 180.00
C 300.27 179.69 302.39 194.92 302.00 201.00 C 301.61 207.08 302.18 217.87 302.00 225.00 C 301.82 232.13 302.08 241.39 302.00 249.00 C 301.92 256.61 302.04 265.18 302.00 273.00 C 301.96 280.82 302.02 289.08 302.00 297.00 C 301.98 304.92 302.01 313.04 302.00 321.00 C 301.99 328.96 302.00 337.02 302.00 345.00 C 302.00 352.98 302.00 361.01 302.00 369.00 Z"/>
</g>
<g fill="#08FDF7" fill-opacity="0.96" stroke="None">
<path d="
M 97.00 463.00 
C 94.81 456.31 88.73 451.85 85.92 445.08 C 83.11 438.30 79.23 432.36 76.98 425.02 C 74.72 417.69 72.90 410.05 71.93 402.07 C 70.95 394.10 70.58 382.25 71.00 374.00 C 71.42 365.76 73.04 357.58 75.22 350.22 C 77.40 342.87 79.99 335.81 83.23 329.23 C 86.47 322.65 90.22 316.97 94.25 311.25 C 98.28 305.52 102.40 301.21 107.25 296.25 C 112.09 291.29 117.40 286.70 122.92 282.92 C 128.44 279.13 134.38 275.13 140.31 272.31 C 146.23 269.48 155.34 265.43 161.33 264.33 C 167.32 263.23 180.79 260.98 185.00 266.00
C 178.30 259.75 176.31 249.10 165.69 246.31 C 155.08 243.51 144.51 242.49 134.69 246.69 C 124.88 250.90 117.01 254.06 108.70 259.70 C 100.38 265.33 94.66 269.53 87.75 276.75 C 80.85 283.98 75.16 289.76 70.30 298.30 C 65.45 306.85 61.19 314.24 57.93 323.93 C 54.66 333.61 52.03 345.32 51.00 356.00 C 49.97 366.68 51.83 381.38 53.67 391.33 C 55.51 401.27 59.12 411.92 63.69 420.31 C 68.27 428.69 71.77 437.41 78.25 443.75 C 84.73 450.10 88.80 458.99 97.00 463.00 Z"/>
</g>
<g fill="#EF0043" fill-opacity="0.96" stroke="None">
<path d="
M 150.00 411.00 
C 142.73 403.73 142.99 388.19 143.67 378.67 C 144.35 369.15 149.20 358.15 155.75 350.75 C 162.31 343.35 169.42 338.01 178.93 334.93 C 188.43 331.84 196.19 327.20 201.74 317.74 C 207.30 308.29 207.50 296.31 204.31 285.69 C 201.11 275.08 191.86 272.41 185.00 266.00
C 190.56 272.63 186.57 287.72 183.92 294.92 C 181.28 302.13 174.63 308.89 167.23 312.23 C 159.83 315.57 151.05 317.75 144.25 323.25 C 137.45 328.75 134.07 334.06 129.77 341.77 C 125.47 349.49 123.35 360.55 124.00 370.00 C 124.66 379.45 128.32 387.46 132.75 395.25 C 137.17 403.05 144.47 405.47 150.00 411.00 Z"/>
</g>
<g fill="#EE0044" fill-opacity="0.96" stroke="None">
<path d="
M 257.00 495.00 
C 259.09 490.78 256.05 482.64 257.00 478.00 C 257.95 473.36 257.17 466.91 256.00 463.00
C 235.68 483.69 205.16 489.46 177.00 491.00 C 148.84 492.54 119.96 479.78 98.00 463.00
C 102.12 475.61 116.54 481.72 126.77 490.23 C 137.00 498.74 152.32 502.95 165.93 507.07 C 179.53 511.19 201.33 511.72 216.00 509.00 C 230.67 506.27 244.02 502.47 257.00 495.00 Z"/>
</g>
</svg>