<svg xmlns="http://www.w3.org/2000/svg"
width="512"
height="512">
<g fill="None" fill-opacity="0.0" stroke="#000000" stroke-opacity="0.00" stroke-width="0.3"><path d="
M 0.00 53.00 
C 0.50 53.00 1.00 53.00 1.00 53.00
C 3.06 27.49 27.48 3.06 53.00 1.00
C 53.01 1.00 53.00 0.00 53.00 0.00
L 0.00 0.00
L 0.00 53.00 Z"/>
</g>
<g fill="None" fill-opacity="0.0" stroke="#757575" stroke-opacity="0.41" stroke-width="0.3"><path d="
M 53.00 1.00 
C 54.90 0.85 57.91 1.83 59.00 0.00
L 53.00 0.00
C 53.00 0.00 53.01 1.00 53.00 1.00 Z"/>
</g>
<g fill="None" fill-opacity="0.0" stroke="#757575" stroke-opacity="1.00" stroke-width="0.3"><path d="
M 53.00 1.00 
C 27.48 3.06 3.06 27.49 1.00 53.00
C 0.85 54.90 1.83 57.91 0.00 59.00
L 0.00 459.00
C 4.44 484.96 27.11 507.58 53.00 512.00
L 256.00 512.00
C 256.00 453.33 256.00 394.67 256.00 336.00
C 234.67 336.00 213.33 336.00 192.00 336.00
C 192.00 309.33 192.00 282.67 192.00 256.00
C 213.33 256.00 234.67 256.00 256.00 256.00
C 255.64 208.70 249.14 159.38 284.25 124.25 C 319.36 89.12 368.68 95.66 416.00 96.00
C 416.00 122.67 416.00 149.33 416.00 176.00
C 399.13 176.29 385.16 175.61 368.00 176.00 C 350.84 176.39 351.07 193.57 352.00 208.00 C 352.93 222.43 351.30 241.18 352.00 256.00
C 378.67 256.00 405.33 256.00 432.00 256.00
C 427.73 265.33 424.90 275.36 420.68 284.68 C 416.45 294.00 413.66 303.93 409.08 313.08 C 404.49 322.23 404.90 337.10 392.00 336.00 C 379.10 334.90 365.00 336.82 352.00 336.00
C 352.00 394.67 352.00 453.33 352.00 512.00
L 459.00 512.00
C 484.96 507.56 507.58 484.89 512.00 459.00
L 512.00 59.00
C 510.30 57.85 511.15 54.89 511.00 53.00
C 508.84 26.19 483.89 4.71 459.00 0.00
L 59.00 0.00
C 57.91 1.83 54.90 0.85 53.00 1.00 Z"/>
</g>
<g fill="None" fill-opacity="0.0" stroke="#000000" stroke-opacity="0.00" stroke-width="0.3"><path d="
M 511.00 53.00 
C 511.00 53.01 512.00 53.00 512.00 53.00
L 512.00 0.00
L 459.00 0.00
C 483.89 4.71 508.84 26.19 511.00 53.00 Z"/>
</g>
<g fill="None" fill-opacity="0.0" stroke="#757575" stroke-opacity="0.41" stroke-width="0.3"><path d="
M 0.00 59.00 
C 1.83 57.91 0.85 54.90 1.00 53.00
C 1.00 53.00 0.50 53.00 0.00 53.00
L 0.00 59.00 Z"/>
</g>
<g fill="None" fill-opacity="0.0" stroke="#757575" stroke-opacity="0.41" stroke-width="0.3"><path d="
M 512.00 59.00 
L 512.00 53.00
C 512.00 53.00 511.00 53.01 511.00 53.00
C 511.15 54.89 510.30 57.85 512.00 59.00 Z"/>
</g>
<g fill="None" fill-opacity="0.0" stroke="#F9F9F9" stroke-opacity="1.00" stroke-width="0.3"><path d="
M 256.00 512.00 
L 352.00 512.00
C 352.00 453.33 352.00 394.67 352.00 336.00
C 365.00 336.82 379.10 334.90 392.00 336.00 C 404.90 337.10 404.49 322.23 409.08 313.08 C 413.66 303.93 416.45 294.00 420.68 284.68 C 424.90 275.36 427.73 265.33 432.00 256.00
C 405.33 256.00 378.67 256.00 352.00 256.00
C 351.30 241.18 352.93 222.43 352.00 208.00 C 351.07 193.57 350.84 176.39 368.00 176.00 C 385.16 175.61 399.13 176.29 416.00 176.00
C 416.00 149.33 416.00 122.67 416.00 96.00
C 368.68 95.66 319.36 89.12 284.25 124.25 C 249.14 159.38 255.64 208.70 256.00 256.00
C 234.67 256.00 213.33 256.00 192.00 256.00
C 192.00 282.67 192.00 309.33 192.00 336.00
C 213.33 336.00 234.67 336.00 256.00 336.00
C 256.00 394.67 256.00 453.33 256.00 512.00 Z"/>
</g>
<g fill="None" fill-opacity="0.0" stroke="#000000" stroke-opacity="0.00" stroke-width="0.3"><path d="
M 0.00 512.00 
L 53.00 512.00
C 27.11 507.58 4.44 484.96 0.00 459.00
L 0.00 512.00 Z"/>
</g>
<g fill="None" fill-opacity="0.0" stroke="#000000" stroke-opacity="0.00" stroke-width="0.3"><path d="
M 459.00 512.00 
L 512.00 512.00
L 512.00 459.00
C 507.58 484.89 484.96 507.56 459.00 512.00 Z"/>
</g>
<g fill="#000000" fill-opacity="0.00" stroke="None">
<path d="
M 0.00 53.00 
C 0.50 53.00 1.00 53.00 1.00 53.00
C 3.06 27.49 27.48 3.06 53.00 1.00
C 53.01 1.00 53.00 0.00 53.00 0.00
L 0.00 0.00
L 0.00 53.00 Z"/>
</g>
<g fill="#757575" fill-opacity="0.41" stroke="None">
<path d="
M 53.00 1.00 
C 54.90 0.85 57.91 1.83 59.00 0.00
L 53.00 0.00
C 53.00 0.00 53.01 1.00 53.00 1.00 Z"/>
</g>
<g fill="#757575" fill-opacity="1.00" stroke="None">
<path d="
M 53.00 1.00 
C 27.48 3.06 3.06 27.49 1.00 53.00
C 0.85 54.90 1.83 57.91 0.00 59.00
L 0.00 459.00
C 4.44 484.96 27.11 507.58 53.00 512.00
L 256.00 512.00
C 256.00 453.33 256.00 394.67 256.00 336.00
C 234.67 336.00 213.33 336.00 192.00 336.00
C 192.00 309.33 192.00 282.67 192.00 256.00
C 213.33 256.00 234.67 256.00 256.00 256.00
C 255.64 208.70 249.14 159.38 284.25 124.25 C 319.36 89.12 368.68 95.66 416.00 96.00
C 416.00 122.67 416.00 149.33 416.00 176.00
C 399.13 176.29 385.16 175.61 368.00 176.00 C 350.84 176.39 351.07 193.57 352.00 208.00 C 352.93 222.43 351.30 241.18 352.00 256.00
C 378.67 256.00 405.33 256.00 432.00 256.00
C 427.73 265.33 424.90 275.36 420.68 284.68 C 416.45 294.00 413.66 303.93 409.08 313.08 C 404.49 322.23 404.90 337.10 392.00 336.00 C 379.10 334.90 365.00 336.82 352.00 336.00
C 352.00 394.67 352.00 453.33 352.00 512.00
L 459.00 512.00
C 484.96 507.56 507.58 484.89 512.00 459.00
L 512.00 59.00
C 510.30 57.85 511.15 54.89 511.00 53.00
C 508.84 26.19 483.89 4.71 459.00 0.00
L 59.00 0.00
C 57.91 1.83 54.90 0.85 53.00 1.00 Z"/>
</g>
<g fill="#000000" fill-opacity="0.00" stroke="None">
<path d="
M 511.00 53.00 
C 511.00 53.01 512.00 53.00 512.00 53.00
L 512.00 0.00
L 459.00 0.00
C 483.89 4.71 508.84 26.19 511.00 53.00 Z"/>
</g>
<g fill="#757575" fill-opacity="0.41" stroke="None">
<path d="
M 0.00 59.00 
C 1.83 57.91 0.85 54.90 1.00 53.00
C 1.00 53.00 0.50 53.00 0.00 53.00
L 0.00 59.00 Z"/>
</g>
<g fill="#757575" fill-opacity="0.41" stroke="None">
<path d="
M 512.00 59.00 
L 512.00 53.00
C 512.00 53.00 511.00 53.01 511.00 53.00
C 511.15 54.89 510.30 57.85 512.00 59.00 Z"/>
</g>
<g fill="#F9F9F9" fill-opacity="1.00" stroke="None">
<path d="
M 256.00 512.00 
L 352.00 512.00
C 352.00 453.33 352.00 394.67 352.00 336.00
C 365.00 336.82 379.10 334.90 392.00 336.00 C 404.90 337.10 404.49 322.23 409.08 313.08 C 413.66 303.93 416.45 294.00 420.68 284.68 C 424.90 275.36 427.73 265.33 432.00 256.00
C 405.33 256.00 378.67 256.00 352.00 256.00
C 351.30 241.18 352.93 222.43 352.00 208.00 C 351.07 193.57 350.84 176.39 368.00 176.00 C 385.16 175.61 399.13 176.29 416.00 176.00
C 416.00 149.33 416.00 122.67 416.00 96.00
C 368.68 95.66 319.36 89.12 284.25 124.25 C 249.14 159.38 255.64 208.70 256.00 256.00
C 234.67 256.00 213.33 256.00 192.00 256.00
C 192.00 282.67 192.00 309.33 192.00 336.00
C 213.33 336.00 234.67 336.00 256.00 336.00
C 256.00 394.67 256.00 453.33 256.00 512.00 Z"/>
</g>
<g fill="#000000" fill-opacity="0.00" stroke="None">
<path d="
M 0.00 512.00 
L 53.00 512.00
C 27.11 507.58 4.44 484.96 0.00 459.00
L 0.00 512.00 Z"/>
</g>
<g fill="#000000" fill-opacity="0.00" stroke="None">
<path d="
M 459.00 512.00 
L 512.00 512.00
L 512.00 459.00
C 507.58 484.89 484.96 507.56 459.00 512.00 Z"/>
</g>
</svg>